<svg width="24" height="24" viewBox="0 0 24 24" fill="none" xmlns="http://www.w3.org/2000/svg">
<path fill-rule="evenodd" clip-rule="evenodd" d="M1.5 18.7435V5H7.87842C9.92718 5 11.588 6.65433 11.588 8.69505C11.588 9.99183 11.1877 10.7951 9.71987 11.6192C11.4764 12.4164 11.9642 13.5212 11.9642 15.0624C11.9642 17.1471 10.1048 18.7435 8.01184 18.7435H1.5ZM4.19907 7.275V10.5798H7.35805C7.35805 10.5798 8.89343 10.5798 8.89343 8.9274C8.89343 7.275 7.35805 7.275 7.35805 7.275H4.19907ZM4.19907 16.4159V12.8475H7.58748C8.13456 12.8475 9.28168 13.1287 9.28168 14.8163C9.28168 16.0679 8.15221 16.4042 7.58748 16.4159H4.19907Z" fill="white"/>
<path fill-rule="evenodd" clip-rule="evenodd" d="M17.7351 8.78677C15.7938 8.78677 12.9172 10.1755 12.9172 13.867C12.9172 16.1148 14.1525 19 17.8586 19C20.8234 19 22.1882 16.832 22.5 15.7479H19.7116C19.5704 16.2401 19.0234 16.7851 17.8586 16.7851C16.1644 16.7851 15.5644 15.3436 15.4761 14.6229H22.5V13.867C22.5 10.1755 19.6763 8.78677 17.7351 8.78677ZM17.7351 10.8962C16.1538 10.8962 15.5702 12.197 15.4761 12.8475H19.7116C19.7116 12.197 19.3163 10.8962 17.7351 10.8962Z" fill="white"/>
<path d="M14.3643 5.78081V7.48595H21.0176V5.78081H14.3643Z" fill="white"/>
</svg>
