<svg width="417" height="368" viewBox="0 0 417 368" fill="none" xmlns="http://www.w3.org/2000/svg">
<path fill-rule="evenodd" clip-rule="evenodd" d="M168.022 328.292C168.097 327.961 168.157 327.626 168.245 327.298C172.862 310.067 177.527 292.848 182.021 275.584C182.648 273.191 183.771 271.787 185.881 270.574C206.749 258.612 252.016 232.359 272.87 220.393C279.685 216.482 284.082 208.353 282.957 199.82C282.924 199.562 282.852 199.309 282.77 198.906C282.031 199.286 281.347 199.601 280.699 199.969C274.079 203.778 267.461 207.58 260.863 211.417C260.125 211.849 259.842 211.758 259.422 211.002C256.383 205.6 253.29 200.234 250.214 194.859C250.084 194.634 249.97 194.405 249.856 194.199L246.366 188.156C243.143 190.021 236.698 193.754 236.698 193.754C232.058 196.444 227.42 199.149 222.783 201.854L222.771 201.861C222.613 201.739 222.496 201.685 222.446 201.599L222.3 201.351C219.318 196.298 216.342 191.253 214.421 185.656C210.817 175.148 209.98 164.424 212.165 153.536C215.88 135.002 225.982 120.901 242.277 111.416C272.91 93.5748 328.116 61.7536 358.797 44.0059C361.213 42.6117 364.117 41.0629 366.539 39.6996L359.489 66.011C356.933 75.5484 354.369 85.0907 351.834 94.6336C351.635 95.3777 351.265 95.8276 350.598 96.2123C340.59 101.96 306.101 121.859 296.112 127.641C285.078 134.021 274.068 140.444 263.025 146.8C258.681 149.302 255.387 152.715 253.524 157.403C252.077 161.026 251.699 164.788 252.304 168.784C252.809 168.539 253.285 168.345 253.727 168.09C260.489 164.187 267.255 160.271 274.019 156.361C275.007 155.791 275.007 155.791 275.568 156.755L275.583 156.78C278.72 162.191 281.858 167.594 284.996 172.998L285.003 173.009L288.805 179.472L290.289 178.614C297.376 174.514 304.462 170.414 311.546 166.306C312.31 165.86 312.59 166.015 312.979 166.749C314.763 170.088 316.785 173.308 318.403 176.719C323.366 187.152 325.102 198.183 323.729 209.647C322.289 221.657 317.802 232.447 310.112 241.809C305.487 247.433 300.005 252.103 293.689 255.76C281.109 263.043 268.545 270.352 255.965 277.635C239.884 286.951 199.296 310.381 183.213 319.704C178.214 322.601 168.022 328.292 168.022 328.292ZM264.428 192.294C263.646 190.921 262.799 189.575 262.055 188.175L258.111 181.357C261.775 179.235 265.437 177.111 269.096 174.981C269.884 174.526 270.23 174.656 270.644 175.432C271.514 177.048 272.484 178.618 273.363 180.119L276.942 186.338C273.28 188.458 269.619 190.58 265.957 192.704C265.18 193.147 264.816 192.976 264.428 192.294ZM190.781 299.546C190.52 299.703 190.231 299.823 189.751 300.06L189.749 300.067C191.428 293.8 193.035 287.776 194.667 281.767C194.738 281.501 194.992 281.211 195.243 281.066C214.265 270.035 257.788 244.882 276.82 233.869L277.048 233.737C279.97 232.045 282.891 230.355 285.405 228.054C292.001 222.014 295.66 214.529 296.553 205.651C297.006 201.148 296.562 196.741 295.159 192.443C294.959 191.826 295.11 191.559 295.691 191.224C299.437 189.096 303.142 186.906 306.907 184.71C308.286 187.487 309.002 190.386 309.571 193.319C311.294 202.239 310.491 210.973 307.299 219.469C303.3 230.105 296.467 238.372 286.601 244.077C264.495 256.864 217.896 283.799 195.789 296.593C194.109 297.562 192.449 298.566 190.781 299.546ZM239.539 176.296C235.722 178.492 231.923 180.709 227.875 183.056L227.867 183.061C227.217 180.926 226.527 178.992 226.032 177.015C223.792 168.11 224.026 159.231 226.86 150.515C230.708 138.668 238.06 129.559 248.885 123.306C264.318 114.388 279.726 105.426 295.149 96.4897C302.644 92.1467 334.639 73.6869 342.144 69.3612C342.915 68.9165 343.712 68.5082 344.699 67.9676C344.585 68.5298 344.533 68.8598 344.447 69.1807C342.956 74.7738 341.471 80.3688 339.939 85.951C339.818 86.3725 339.461 86.8328 339.08 87.0527C319.339 98.4976 275.069 124.007 255.358 135.504C248.827 139.308 243.901 144.72 240.946 151.758C237.745 159.388 237.491 167.193 239.806 175.108C239.949 175.586 240.11 175.966 239.539 176.296Z" fill="#1F2667" fill-opacity="0.9"/>
<path fill-rule="evenodd" clip-rule="evenodd" d="M168.022 328.292C168.097 327.961 168.157 327.626 168.245 327.298C172.862 310.067 177.527 292.848 182.021 275.584C182.648 273.191 183.771 271.787 185.881 270.574C206.749 258.612 252.016 232.359 272.87 220.393C279.685 216.482 284.082 208.353 282.957 199.82C282.924 199.562 282.852 199.309 282.77 198.906C282.031 199.286 281.347 199.601 280.699 199.969C274.079 203.778 267.461 207.58 260.863 211.417C260.125 211.849 259.842 211.758 259.422 211.002C256.383 205.6 253.29 200.234 250.214 194.859C250.084 194.634 249.97 194.405 249.856 194.199L246.366 188.156C243.143 190.021 236.698 193.754 236.698 193.754C232.058 196.444 227.42 199.149 222.783 201.854L222.771 201.861C222.613 201.739 222.496 201.685 222.446 201.599L222.3 201.351C219.318 196.298 216.342 191.253 214.421 185.656C210.817 175.148 209.98 164.424 212.165 153.536C215.88 135.002 225.982 120.901 242.277 111.416C272.91 93.5748 328.116 61.7536 358.797 44.0059C361.213 42.6117 364.117 41.0629 366.539 39.6996L359.489 66.011C356.933 75.5484 354.369 85.0907 351.834 94.6336C351.635 95.3777 351.265 95.8276 350.598 96.2123C340.59 101.96 306.101 121.859 296.112 127.641C285.078 134.021 274.068 140.444 263.025 146.8C258.681 149.302 255.387 152.715 253.524 157.403C252.077 161.026 251.699 164.788 252.304 168.784C252.809 168.539 253.285 168.345 253.727 168.09C260.489 164.187 267.255 160.271 274.019 156.361C275.007 155.791 275.007 155.791 275.568 156.755L275.583 156.78C278.72 162.191 281.858 167.594 284.996 172.998L285.003 173.009L288.805 179.472L290.289 178.614C297.376 174.514 304.462 170.414 311.546 166.306C312.31 165.86 312.59 166.015 312.979 166.749C314.763 170.088 316.785 173.308 318.403 176.719C323.366 187.152 325.102 198.183 323.729 209.647C322.289 221.657 317.802 232.447 310.112 241.809C305.487 247.433 300.005 252.103 293.689 255.76C281.109 263.043 268.545 270.352 255.965 277.635C239.884 286.951 199.296 310.381 183.213 319.704C178.214 322.601 168.022 328.292 168.022 328.292ZM264.428 192.294C263.646 190.921 262.799 189.575 262.055 188.175L258.111 181.357C261.775 179.235 265.437 177.111 269.096 174.981C269.884 174.526 270.23 174.656 270.644 175.432C271.514 177.048 272.484 178.618 273.363 180.119L276.942 186.338C273.28 188.458 269.619 190.58 265.957 192.704C265.18 193.147 264.816 192.976 264.428 192.294ZM190.781 299.546C190.52 299.703 190.231 299.823 189.751 300.06L189.749 300.067C191.428 293.8 193.035 287.776 194.667 281.767C194.738 281.501 194.992 281.211 195.243 281.066C214.265 270.035 257.788 244.882 276.82 233.869L277.048 233.737C279.97 232.045 282.891 230.355 285.405 228.054C292.001 222.014 295.66 214.529 296.553 205.651C297.006 201.148 296.562 196.741 295.159 192.443C294.959 191.826 295.11 191.559 295.691 191.224C299.437 189.096 303.142 186.906 306.907 184.71C308.286 187.487 309.002 190.386 309.571 193.319C311.294 202.239 310.491 210.973 307.299 219.469C303.3 230.105 296.467 238.372 286.601 244.077C264.495 256.864 217.896 283.799 195.789 296.593C194.109 297.562 192.449 298.566 190.781 299.546ZM239.539 176.296C235.722 178.492 231.923 180.709 227.875 183.056L227.867 183.061C227.217 180.926 226.527 178.992 226.032 177.015C223.792 168.11 224.026 159.231 226.86 150.515C230.708 138.668 238.06 129.559 248.885 123.306C264.318 114.388 279.726 105.426 295.149 96.4897C302.644 92.1467 334.639 73.6869 342.144 69.3612C342.915 68.9165 343.712 68.5082 344.699 67.9676C344.585 68.5298 344.533 68.8598 344.447 69.1807C342.956 74.7738 341.471 80.3688 339.939 85.951C339.818 86.3725 339.461 86.8328 339.08 87.0527C319.339 98.4976 275.069 124.007 255.358 135.504C248.827 139.308 243.901 144.72 240.946 151.758C237.745 159.388 237.491 167.193 239.806 175.108C239.949 175.586 240.11 175.966 239.539 176.296Z" fill="url(#paint0_linear_4_47)"/>
<defs>
<linearGradient id="paint0_linear_4_47" x1="306.774" y1="43.9952" x2="230.514" y2="317.949" gradientUnits="userSpaceOnUse">
<stop stop-color="#1595B6"/>
<stop offset="1" stop-color="#1595B6" stop-opacity="0"/>
</linearGradient>
</defs>
</svg>
