<svg width="1366" height="3608" viewBox="0 0 1366 3608" fill="none" xmlns="http://www.w3.org/2000/svg">
<g opacity="0.25" clip-path="url(#clip0_55_33036)">
<path d="M-668.066 1290.69C-591.555 1503.93 -343.422 1910.84 37.0156 1832.62C512.563 1734.85 669.659 1559.22 1000.91 1770.86C1332.17 1982.5 1256.98 2583.42 1699.75 2687.7C2142.51 2791.98 2182.65 2555.33 2406.59 2336.29C2630.54 2117.25 3166.34 2424.34 3192.73 2717.5" stroke="#0F9ABD"/>
<path d="M-646.046 1218.23C-577.023 1434.01 -343.243 1849.33 39.6929 1784.44C518.363 1703.32 681.492 1533.28 1005.16 1756.35C1328.83 1979.43 1232.71 2577.35 1671.57 2697.02C2110.43 2816.7 2158.79 2581.59 2390.25 2370.5C2621.7 2159.4 3146.46 2485.01 3162.6 2778.91" stroke="#1397BF"/>
<path d="M-621.748 1146.89C-560.297 1364.94 -341.154 1788.17 43.8137 1736.68C525.023 1672.32 693.987 1508.07 1009.67 1742.31C1325.36 1976.54 1208.43 2570.75 1642.85 2705.66C2077.26 2840.58 2133.8 2607.3 2372.48 2404.42C2611.16 2201.53 3124.24 2545.25 3130.11 2839.53" stroke="#1795C0"/>
<path d="M-595.211 1076.74C-541.407 1296.81 -337.168 1727.43 49.3616 1689.4C532.524 1641.87 707.118 1483.63 1014.44 1728.73C1321.75 1973.84 1184.16 2563.61 1613.6 2713.6C2043.04 2863.59 2107.69 2632.44 2353.31 2438C2598.92 2243.57 3099.7 2604.98 3095.29 2899.29" stroke="#1B92C2"/>
<path d="M-566.479 1007.87C-520.388 1229.67 -331.302 1667.16 56.3194 1642.65C540.846 1612.01 720.856 1459.95 1019.43 1715.64C1318.01 1971.32 1159.92 2555.93 1583.86 2720.81C2007.81 2885.7 2080.49 2656.94 2332.74 2471.2C2584.99 2285.45 3072.84 2664.13 3058.17 2958.1" stroke="#1F90C4"/>
<path d="M-535.597 940.342C-497.276 1163.62 -323.573 1607.44 64.6677 1596.47C549.969 1582.76 735.176 1437.08 1024.65 1703.03C1314.12 1968.98 1135.72 2547.71 1553.65 2727.29C1971.59 2906.87 2052.2 2680.79 2310.78 2503.96C2569.36 2327.13 3043.7 2722.6 3018.78 3015.89" stroke="#248DC5"/>
<path d="M-502.615 874.24C-472.109 1098.72 -314.001 1548.33 74.3859 1550.92C559.87 1554.16 750.048 1415.03 1030.06 1690.91C1310.07 1966.8 1111.59 2538.95 1523 2733.01C1934.41 2927.07 2022.87 2703.94 2287.46 2536.25C2552.06 2368.55 3012.31 2780.33 2977.16 3072.57" stroke="#288BC7"/>
<path d="M-467.583 809.634C-444.93 1035.04 -302.609 1489.9 85.4509 1506.04C570.526 1526.22 765.444 1393.81 1035.66 1679.3C1305.87 1964.79 1087.54 2529.67 1491.93 2737.97C1896.32 2946.27 1992.51 2726.36 2262.79 2568C2533.08 2409.64 2978.67 2837.23 2933.35 3128.06" stroke="#2C88C9"/>
<path d="M-430.554 746.594C-415.781 972.657 -289.422 1432.2 97.8388 1461.88C581.914 1498.97 781.335 1373.44 1041.42 1668.19C1301.51 1962.94 1063.59 2519.85 1460.47 2742.14C1857.34 2964.43 1961.14 2748.01 2236.79 2599.18C2512.44 2450.35 2942.84 2893.23 2887.4 3182.3" stroke="#3086CB"/>
<path d="M-391.584 685.19C-384.71 911.631 -274.465 1375.31 111.524 1418.48C594.01 1472.44 797.689 1353.95 1047.33 1657.6C1296.97 1961.25 1039.77 2509.52 1428.64 2745.52C1817.51 2981.52 1928.81 2768.85 2209.48 2629.73C2490.16 2490.61 2904.84 2948.25 2839.34 3235.21" stroke="#3483CC"/>
<path d="M-350.732 625.488C-351.765 852.031 -257.769 1319.27 126.478 1375.89C606.787 1446.66 814.478 1335.35 1053.37 1647.52C1292.26 1959.7 1016.08 2498.66 1396.48 2748.08C1776.88 2997.51 1895.53 2788.86 2180.89 2659.62C2466.24 2530.38 2864.7 3002.21 2789.23 3286.71" stroke="#3881CE"/>
<path d="M-308.058 567.553C-316.997 793.922 -239.365 1264.16 142.672 1334.15C620.219 1421.64 831.668 1317.65 1059.52 1637.97C1287.37 1958.29 992.548 2487.28 1364.01 2749.83C1735.47 3012.39 1861.33 2808 2151.03 2688.8C2440.72 2569.6 2822.47 3055.05 2737.12 3336.74" stroke="#3C7ED0"/>
<path d="M-263.625 511.447C-280.458 737.365 -219.284 1210.02 160.077 1293.31C634.279 1397.41 849.229 1300.86 1065.76 1628.94C1282.3 1957.01 969.192 2475.4 1331.27 2750.75C1693.34 3026.11 1826.25 2826.24 2119.93 2717.22C2413.61 2608.2 2778.19 3106.68 2683.05 3385.22" stroke="#407CD1"/>
<path d="M-217.498 457.23C-242.205 682.423 -197.564 1156.93 178.66 1253.4C648.94 1373.99 867.128 1285 1072.08 1620.43C1277.03 1955.87 946.027 2463.01 1298.27 2750.83C1650.51 3038.66 1790.32 2843.55 2087.63 2744.85C2384.93 2646.14 2731.89 3157.04 2627.09 3432.09" stroke="#4479D3"/>
<path d="M-169.743 404.96C-202.295 629.154 -174.241 1104.93 198.387 1214.47C664.173 1351.4 885.334 1270.08 1078.45 1612.46C1271.57 1954.84 923.072 2450.12 1265.06 2750.06C1607.04 3050.01 1753.57 2859.9 2054.14 2771.63C2354.71 2683.36 2683.63 3206.06 2569.29 3477.28" stroke="#4877D5"/>
<path d="M-120.43 354.693C-160.786 577.614 -149.354 1054.08 219.224 1176.56C679.947 1329.66 903.811 1256.1 1084.87 1605.02C1265.92 1953.93 900.344 2436.75 1231.65 2748.44C1562.96 3060.14 1716.04 2875.26 2019.5 2797.54C2322.97 2719.81 2633.44 3253.66 2509.71 3520.73" stroke="#4D74D6"/>
<path d="M-69.6298 306.482C-117.741 527.86 -122.944 1004.43 241.135 1139.7C696.234 1308.79 922.529 1243.09 1091.3 1598.11C1260.06 1953.13 877.86 2422.89 1198.09 2745.96C1518.32 3069.03 1677.75 2889.61 1983.75 2822.52C2289.74 2755.43 2581.39 3299.8 2448.42 3562.39" stroke="#5172D8"/>
<path d="M-17.4148 260.379C-73.2228 479.943 -95.0546 956.043 264.082 1103.93C713.003 1288.8 941.453 1231.04 1097.73 1591.74C1254 1952.43 855.636 2408.57 1164.39 2742.61C1473.15 3076.66 1638.75 2902.91 1946.9 2846.55C2255.05 2790.18 2527.53 3344.39 2385.47 3602.18" stroke="#556FDA"/>
<path d="M36.1405 216.43C-27.2961 433.912 -65.7302 908.96 288.026 1069.3C730.222 1269.72 960.548 1219.97 1104.14 1585.89C1247.73 1951.82 833.689 2393.78 1130.6 2738.4C1427.51 3083.01 1599.08 2915.15 1909 2869.57C2218.93 2824 2471.9 3387.38 2320.93 3640.05" stroke="#596DDB"/>
<path d="M90.9604 174.68C19.9724 389.816 -35.0173 863.233 312.928 1035.82C747.86 1251.55 979.782 1209.87 1110.51 1580.58C1241.25 1951.3 812.035 2378.54 1096.74 2733.31C1381.44 3088.08 1558.76 2926.3 1870.09 2891.57C2181.42 2856.84 2414.57 3428.7 2254.88 3675.96" stroke="#5D6ADD"/>
<path d="M146.967 135.175C68.5141 347.703 -2.96405 818.912 338.746 1003.53C765.884 1234.31 999.12 1200.75 1116.83 1575.8C1234.55 1950.86 790.689 2362.85 1062.84 2727.34C1334.99 3091.83 1517.84 2936.35 1830.19 2912.5C2142.55 2888.65 2355.6 3468.31 2187.37 3709.84" stroke="#6168DF"/>
<path d="M204.082 97.9528C118.259 307.613 30.3798 776.041 365.439 972.476C784.262 1218.02 1018.53 1192.62 1123.08 1571.55C1227.64 1950.48 769.666 2346.74 1028.93 2720.51C1288.19 3094.27 1476.36 2945.26 1789.36 2932.33C2102.35 2919.4 2295.05 3506.14 2118.49 3741.65" stroke="#6565E1"/>
<path d="M262.223 63.0507C169.136 269.588 64.9623 734.663 392.962 942.672C802.961 1202.68 1037.97 1185.47 1129.24 1567.82C1220.5 1950.18 748.982 2330.21 995.042 2712.79C1241.1 3095.38 1434.36 2953.03 1747.61 2951.03C2060.87 2949.03 2232.97 3542.13 2048.3 3771.34" stroke="#6963E2"/>
<path d="M321.311 30.5041C221.073 233.666 100.731 694.823 421.271 914.152C821.947 1188.31 1057.41 1179.32 1135.28 1564.62C1213.15 1949.92 728.651 2313.27 961.209 2704.21C1193.77 3095.15 1391.88 2959.63 1705.01 2968.56C2018.14 2977.49 2169.44 3576.25 1976.89 3798.86" stroke="#6D60E4"/>
<path d="M381.262 0.34344C273.994 199.884 137.632 656.56 450.323 886.942C841.185 1174.92 1076.82 1174.14 1141.19 1561.93C1205.57 1949.72 708.686 2295.93 927.459 2694.75C1146.23 3093.57 1348.95 2965.05 1661.58 2984.9C1974.21 3004.76 2104.52 3608.42 1904.32 3824.19" stroke="#715EE6"/>
<path d="M441.992 -27.4012C327.826 168.274 175.609 619.913 480.069 861.067C860.643 1162.51 1096.16 1169.96 1146.96 1559.76C1197.76 1949.55 689.102 2278.22 893.823 2684.43C1098.54 3090.64 1305.62 2969.27 1617.37 3000.02C1929.12 3030.77 2038.28 3638.62 1830.67 3847.27" stroke="#765BE7"/>
<path d="M503.417 -52.7066C382.491 138.865 214.605 584.917 510.463 836.55C880.286 1151.09 1115.4 1166.76 1152.57 1558.09C1189.73 1949.42 669.911 2260.13 860.331 2673.24C1050.75 3086.35 1261.94 2972.28 1572.42 3013.89C1882.91 3055.51 1970.79 3666.79 1756.02 3868.07" stroke="#7A59E9"/>
<path d="M565.45 -75.5475C437.912 111.687 254.562 551.608 541.457 813.413C900.077 1140.67 1134.5 1164.53 1157.99 1556.92C1181.47 1949.31 651.126 2241.69 827.013 2661.19C1002.9 3080.69 1217.94 2974.06 1526.78 3026.49C1835.62 3078.91 1902.12 3692.9 1680.46 3886.55" stroke="#7E56EB"/>
<path d="M628.006 -95.9047C494.012 86.765 295.419 520.019 573.004 791.677C919.984 1131.25 1153.44 1163.28 1163.21 1556.25C1172.99 1949.22 632.759 2222.91 793.899 2648.3C955.038 3073.68 1173.67 2974.62 1480.49 3037.79C1787.32 3100.96 1832.34 3716.89 1604.06 3902.69" stroke="#8254EC"/>
<path d="M690.997 -113.762C550.71 64.1198 337.118 490.179 605.053 771.359C939.971 1122.83 1172.16 1162.99 1168.22 1556.06C1164.27 1949.13 614.823 2203.81 761.018 2634.56C907.213 3065.31 1129.17 2973.94 1433.6 3047.78C1738.03 3121.62 1761.54 3738.74 1526.91 3916.46" stroke="#8651EE"/>
<path d="M754.337 -129.106C607.927 43.7721 379.596 462.117 637.554 752.477C960.002 1115.43 1190.65 1163.66 1172.99 1556.36C1155.33 1949.05 597.327 2184.39 728.4 2619.98C859.473 3055.57 1084.48 2972 1386.15 3056.42C1687.82 3140.85 1689.77 3758.41 1449.09 3927.84" stroke="#8A4FF0"/>
<path d="M817.937 -141.925C665.582 25.7377 422.791 435.86 670.458 735.045C980.043 1109.03 1208.87 1165.28 1177.51 1557.12C1146.16 1948.96 580.282 2164.68 696.074 2604.58C811.865 3044.48 1039.65 2968.82 1338.19 3063.71C1636.73 3158.61 1617.13 3775.87 1370.68 3936.79" stroke="#8E4CF1"/>
<path d="M881.708 -152.212C723.595 10.0315 466.638 411.43 703.714 719.077C1000.06 1103.64 1226.78 1167.84 1181.77 1558.35C1136.76 1948.86 563.699 2144.7 664.067 2588.37C764.436 3032.04 994.726 2964.37 1289.77 3069.63C1584.82 3174.89 1543.69 3791.09 1291.77 3943.31" stroke="#924AF3"/>
<path d="M945.563 -159.963C781.884 -3.3365 511.075 388.85 737.27 704.583C1020.01 1099.25 1244.36 1171.33 1185.74 1560.03C1127.13 1948.73 547.586 2124.45 632.41 2571.35C717.234 3018.26 949.745 2958.67 1240.94 3074.16C1532.13 3189.65 1469.52 3804.04 1212.44 3947.38" stroke="#9647F5"/>
<path d="M1009.41 -165.177C840.367 -14.3577 556.036 368.139 771.074 691.574C1039.87 1095.87 1261.56 1175.73 1189.42 1562.15C1117.28 1948.56 531.953 2103.96 601.129 2553.55C670.304 3003.14 904.754 2951.7 1191.74 3077.28C1478.72 3202.87 1394.71 3814.7 1132.78 3948.98" stroke="#9A45F7"/>
<path d="M1073.17 -167.854C898.963 -23.0265 601.456 349.314 805.075 680.056C1059.6 1093.48 1278.37 1181.04 1192.78 1564.7C1107.2 1948.36 516.809 2083.23 570.251 2534.97C623.694 2986.7 859.796 2943.47 1142.22 3078.99C1424.65 3214.52 1319.33 3823.04 1052.88 3948.1" stroke="#9F42F8"/>
<path d="M1136.74 -168C957.588 -29.3405 647.268 332.39 839.22 670.038C1079.16 1092.1 1294.74 1187.23 1195.82 1567.67C1096.9 1948.12 502.16 2062.3 539.805 2515.62C577.449 2968.94 814.916 2933.98 1092.44 3079.28C1369.97 3224.58 1243.48 3829.06 972.824 3944.74" stroke="#A340FA"/>
<path d="M1200.05 -165.623C1016.16 -33.2999 693.406 317.381 873.458 661.521C1098.52 1091.7 1310.65 1194.3 1198.51 1571.06C1086.38 1947.81 488.013 2041.17 509.814 2495.53C531.616 2949.89 770.158 2923.24 1042.44 3078.13C1314.73 3233.03 1167.22 3832.72 892.694 3938.89" stroke="#A73DFC"/>
<path d="M1262.99 -160.733C1074.6 -34.908 739.803 304.295 907.735 654.509C1117.65 1092.28 1326.07 1202.22 1200.85 1574.83C1075.63 1947.45 474.376 2019.87 480.307 2474.71C486.238 2929.56 725.565 2911.25 992.279 3075.55C1258.99 3239.85 1090.65 3834.03 812.581 3930.55" stroke="#AB3BFD"/>
<path d="M1325.49 -153.345C1132.82 -34.1717 786.392 293.14 941.999 649.002C1136.51 1093.83 1340.96 1210.98 1202.82 1579C1064.67 1947.01 461.254 1998.4 451.307 2453.18C441.361 2907.95 681.181 2898.01 941.999 3071.52C1202.82 3245.03 1013.83 3832.97 732.571 3919.73" stroke="#AF38FF"/>
</g>
<defs>
<clipPath id="clip0_55_33036">
<rect width="1366" height="3608" fill="white"/>
</clipPath>
</defs>
</svg>
