<svg width="40" height="40" viewBox="0 0 40 40" fill="none" xmlns="http://www.w3.org/2000/svg">
<g filter="url(#filter0_d_103_1768)">
<rect x="4" y="4" width="32" height="32" rx="6" fill="#2AAA4E"/>
<path fill-rule="evenodd" clip-rule="evenodd" d="M20.0001 33C25.2921 33 29.5822 31.8639 29.5822 30.4624C29.5822 29.0609 25.2921 27.9248 20.0001 27.9248C14.708 27.9248 10.418 29.0609 10.418 30.4624C10.418 31.8639 14.708 33 20.0001 33ZM20 32.1814C24.6222 32.1814 28.3692 31.2285 28.3692 30.0531C28.3692 28.8777 24.6222 27.9248 20.0001 27.9248C15.3779 27.9248 11.6309 28.8777 11.6309 30.0531C11.6309 31.2285 15.3779 32.1814 20 32.1814Z" fill="#FEFEFE"/>
<path fill-rule="evenodd" clip-rule="evenodd" d="M20.0417 31.3809C23.159 31.3809 25.686 30.7206 25.686 29.906C25.686 29.0915 23.159 28.4312 20.0417 28.4312C16.9245 28.4312 14.3975 29.0915 14.3975 29.906C14.3975 30.7206 16.9245 31.3809 20.0417 31.3809ZM20.0417 30.9051C22.7644 30.9051 24.9715 30.3513 24.9715 29.6681C24.9715 28.985 22.7644 28.4312 20.0417 28.4312C17.319 28.4312 15.1119 28.985 15.1119 29.6681C15.1119 30.3513 17.319 30.9051 20.0417 30.9051Z" fill="#FEFEFE"/>
<path d="M27.7117 13.2705C27.7117 18.2568 20.0224 29.3351 20.0224 29.3351C20.0224 29.3351 12.6602 18.3016 12.333 13.2705C12.333 11.5701 13.1431 9.93945 14.5852 8.73714C16.0272 7.53483 17.983 6.85937 20.0224 6.85938C22.0617 6.85938 24.0175 7.53483 25.4595 8.73714C26.9016 9.93945 27.7117 11.5701 27.7117 13.2705Z" fill="#FEFEFE"/>
<path d="M15.9839 16.2668C15.8664 16.1808 15.8297 16.0216 15.8977 15.8928V15.8928C16.269 15.1896 17.2174 15.0512 17.7743 15.619L18.3868 16.2437L20.6218 18.5229L19.8768 20.6755L18.6351 18.2064L15.9839 16.2668Z" fill="#0A810A"/>
<path d="M24.9137 12.8746C24.9293 12.8372 24.9373 12.797 24.9372 12.7564V12.7564C24.9372 12.5856 24.7987 12.4463 24.6287 12.446L24.5865 12.4459L23.6018 12.4459L21.1185 18.144L19.9858 29.4412L21.6772 20.6645L24.9137 12.8746Z" fill="#0A810A"/>
<path d="M19.3861 28.3544L19.2581 20.3887L15.9221 16.4057C15.7281 16.1741 15.8655 15.8156 16.1622 15.7793C16.7041 15.7129 17.2455 15.9036 17.6318 16.2966C18.0289 16.7008 18.5834 17.2644 19.1846 17.8738L20.0499 18.6884H20.0937L22.0494 13.5216C22.6266 12.3978 22.8796 12.4048 23.9304 12.4339C24.1228 12.4392 24.342 12.4453 24.5948 12.4453L21.2326 20.3887C20.9891 22.0673 20.7991 23.4909 20.609 24.9146C20.424 26.3007 20.239 27.6867 20.0046 29.308C19.9419 29.2135 19.719 28.8757 19.3861 28.3544Z" fill="#2AAA4E"/>
</g>
<defs>
<filter id="filter0_d_103_1768" x="0" y="0" width="40" height="40" filterUnits="userSpaceOnUse" color-interpolation-filters="sRGB">
<feFlood flood-opacity="0" result="BackgroundImageFix"/>
<feColorMatrix in="SourceAlpha" type="matrix" values="0 0 0 0 0 0 0 0 0 0 0 0 0 0 0 0 0 0 127 0" result="hardAlpha"/>
<feOffset/>
<feGaussianBlur stdDeviation="2"/>
<feComposite in2="hardAlpha" operator="out"/>
<feColorMatrix type="matrix" values="0 0 0 0 0 0 0 0 0 0 0 0 0 0 0 0 0 0 0.15 0"/>
<feBlend mode="normal" in2="BackgroundImageFix" result="effect1_dropShadow_103_1768"/>
<feBlend mode="normal" in="SourceGraphic" in2="effect1_dropShadow_103_1768" result="shape"/>
</filter>
</defs>
</svg>
