<svg width="200" height="200" viewBox="0 0 200 200" fill="none" xmlns="http://www.w3.org/2000/svg">
<g clip-path="url(#clip0_27_1053)">
<rect width="200" height="200" rx="100" fill="#18181E"/>
<g opacity="0.2" clip-path="url(#clip1_27_1053)">
<mask id="mask0_27_1053" style="mask-type:alpha" maskUnits="userSpaceOnUse" x="-206" y="-93" width="798" height="494">
<rect x="-206" y="-93" width="798" height="494" fill="url(#paint0_radial_27_1053)"/>
</mask>
<g mask="url(#mask0_27_1053)">
<g filter="url(#filter0_f_27_1053)">
<path d="M21.5914 213.516C48.9192 186.21 48.9192 141.938 21.5914 114.633C-5.73647 87.3269 -50.0437 87.3269 -77.3715 114.633C-104.699 141.938 -104.699 186.21 -77.3715 213.516C-50.0437 240.822 -5.73646 240.822 21.5914 213.516Z" fill="#F7F5FA"/>
<path d="M38.2945 379.64C74.4486 343.515 74.4486 284.945 38.2944 248.82C2.14033 212.695 -56.4771 212.695 -92.6312 248.82C-128.785 284.945 -128.785 343.515 -92.6312 379.64C-56.4771 415.765 2.14035 415.765 38.2945 379.64Z" fill="#F7F5FA"/>
<path d="M60.288 224.814C109.066 224.814 148.609 185.303 148.609 136.564C148.609 87.8253 109.066 48.3145 60.288 48.3145C11.5096 48.3145 -28.0331 87.8253 -28.0331 136.564C-28.0331 185.303 11.5096 224.814 60.288 224.814Z" fill="#F7F5FA"/>
<path d="M64.3139 119.598C129.254 119.598 181.899 66.9962 181.899 2.10815C181.899 -62.7799 129.254 -115.382 64.3139 -115.382C-0.626549 -115.382 -53.2712 -62.7799 -53.2712 2.10815C-53.2712 66.9962 -0.626549 119.598 64.3139 119.598Z" fill="#F7F5FA"/>
<path d="M151.916 117.087C216.856 117.087 269.501 64.4853 269.501 -0.402817C269.501 -65.2909 216.856 -117.893 151.916 -117.893C86.9753 -117.893 34.3307 -65.2909 34.3307 -0.402817C34.3307 64.4853 86.9753 117.087 151.916 117.087Z" fill="#F7F5FA"/>
<path d="M0.420792 159.948C27.006 159.948 48.5576 138.414 48.5576 111.85C48.5576 85.2866 27.006 63.7524 0.420792 63.7524C-26.1644 63.7524 -47.716 85.2866 -47.716 111.85C-47.716 138.414 -26.1644 159.948 0.420792 159.948Z" fill="#F7F5FA"/>
</g>
<path d="M211.733 -33.8889H192.96C192.828 -33.8873 192.7 -33.8514 192.587 -33.7848C192.474 -33.7181 192.38 -33.623 192.315 -33.509L182.949 -17.3028C182.88 -17.1894 182.844 -17.0595 182.844 -16.927C182.844 -16.7945 182.88 -16.6646 182.949 -16.5512L192.315 -0.345054C192.38 -0.231973 192.474 -0.138083 192.587 -0.0728318C192.701 -0.00758062 192.829 0.0267303 192.96 0.0266465H211.733C211.864 0.0267303 211.992 -0.00758062 212.106 -0.0728318C212.219 -0.138083 212.313 -0.231973 212.378 -0.345054L221.711 -16.5512C221.776 -16.6657 221.811 -16.7952 221.811 -16.927C221.811 -17.0588 221.776 -17.1883 221.711 -17.3028L212.337 -33.4759C212.28 -33.5904 212.194 -33.6884 212.089 -33.7606C211.983 -33.8329 211.861 -33.8771 211.733 -33.8889Z" fill="#18181E"/>
<path d="M184.065 -15.4361C183.999 -15.5491 183.965 -15.6773 183.965 -15.8078C183.965 -15.9383 183.999 -16.0665 184.065 -16.1795L193.431 -32.3939C193.497 -32.5082 193.592 -32.6028 193.707 -32.6682C193.822 -32.7335 193.952 -32.7671 194.084 -32.7656H212.775L212.337 -33.509C212.272 -33.623 212.178 -33.7181 212.065 -33.7848C211.952 -33.8514 211.823 -33.8873 211.692 -33.8889H192.96C192.828 -33.8873 192.7 -33.8514 192.587 -33.7848C192.474 -33.7181 192.38 -33.623 192.315 -33.509L182.949 -17.3028C182.88 -17.1894 182.844 -17.0595 182.844 -16.927C182.844 -16.7945 182.88 -16.6646 182.949 -16.5512L192.315 -0.345054C192.38 -0.231973 192.474 -0.138083 192.587 -0.0728318C192.701 -0.00758062 192.829 0.0267303 192.96 0.0266465L184.065 -15.4361Z" fill="#18181E"/>
<path d="M147.956 -33.8889H129.224C129.091 -33.8888 128.961 -33.8536 128.846 -33.7868C128.731 -33.7201 128.636 -33.6242 128.571 -33.509L119.205 -17.3028C119.139 -17.1883 119.105 -17.0588 119.105 -16.927C119.105 -16.7952 119.139 -16.6657 119.205 -16.5512L128.571 -0.345057C128.637 -0.230753 128.732 -0.136076 128.847 -0.0707515C128.962 -0.00542711 129.092 0.02819 129.224 0.0266441H147.956C148.087 0.0267278 148.215 -0.00758306 148.328 -0.0728342C148.441 -0.138085 148.535 -0.231975 148.601 -0.345057L158 -16.5512C158.065 -16.6657 158.099 -16.7952 158.099 -16.927C158.099 -17.0588 158.065 -17.1883 158 -17.3028L148.601 -33.4759C148.54 -33.5961 148.448 -33.6979 148.335 -33.7705C148.221 -33.8432 148.091 -33.8841 147.956 -33.8889Z" fill="#18181E"/>
<path d="M120.329 -15.4361C120.263 -15.5491 120.229 -15.6773 120.229 -15.8078C120.229 -15.9383 120.263 -16.0665 120.329 -16.1795L129.695 -32.3939C129.76 -32.5069 129.854 -32.6008 129.967 -32.6661C130.081 -32.7313 130.209 -32.7656 130.34 -32.7656H149.031L148.601 -33.509C148.536 -33.623 148.442 -33.7181 148.329 -33.7848C148.216 -33.8514 148.087 -33.8873 147.956 -33.8889H129.224C129.091 -33.8888 128.961 -33.8536 128.846 -33.7868C128.731 -33.7201 128.636 -33.6242 128.571 -33.509L119.205 -17.3028C119.139 -17.1883 119.105 -17.0588 119.105 -16.927C119.105 -16.7952 119.139 -16.6657 119.205 -16.5512L128.571 -0.345057C128.637 -0.230753 128.732 -0.136076 128.847 -0.0707515C128.962 -0.00542711 129.092 0.02819 129.224 0.0266441H129.265L120.329 -15.4361Z" fill="#18181E"/>
<path d="M179.824 -15.5022H161.092C160.96 -15.5029 160.83 -15.4689 160.715 -15.4037C160.601 -15.3384 160.505 -15.2442 160.439 -15.1305L151.073 1.08389C151.007 1.19691 150.973 1.3251 150.973 1.4556C150.973 1.58609 151.007 1.71428 151.073 1.82729L160.48 18.0417C160.547 18.1554 160.642 18.2496 160.757 18.3149C160.871 18.3801 161.001 18.4141 161.133 18.4134H179.824C179.955 18.4135 180.083 18.3791 180.196 18.3139C180.31 18.2486 180.403 18.1548 180.469 18.0417L189.835 1.82729C189.904 1.71547 189.94 1.58682 189.94 1.4556C189.94 1.32437 189.904 1.19572 189.835 1.08389L180.469 -15.1305C180.403 -15.2436 180.31 -15.3375 180.196 -15.4027C180.083 -15.468 179.955 -15.5023 179.824 -15.5022Z" fill="#18181E"/>
<path d="M152.213 2.95065C152.148 2.83764 152.114 2.70945 152.114 2.57895C152.114 2.44846 152.148 2.32027 152.213 2.20725L161.563 -14.0071C161.628 -14.1202 161.722 -14.2141 161.836 -14.2793C161.949 -14.3446 162.077 -14.3789 162.208 -14.3788H180.899L180.469 -15.1305C180.404 -15.2436 180.31 -15.3375 180.196 -15.4027C180.083 -15.468 179.955 -15.5023 179.824 -15.5022H161.092C160.96 -15.5029 160.83 -15.4689 160.715 -15.4037C160.601 -15.3384 160.505 -15.2442 160.439 -15.1305L151.073 1.08389C151.007 1.19691 150.973 1.3251 150.973 1.4556C150.973 1.58609 151.007 1.71428 151.073 1.82729L160.48 18.0417C160.547 18.1554 160.642 18.2496 160.757 18.3149C160.871 18.3801 161.001 18.4141 161.133 18.4134L152.213 2.95065Z" fill="#18181E"/>
<path d="M211.733 2.86816H192.96C192.829 2.86808 192.701 2.90239 192.587 2.96764C192.474 3.03289 192.38 3.12678 192.315 3.23986L182.949 19.4708C182.88 19.5826 182.844 19.7112 182.844 19.8425C182.844 19.9737 182.88 20.1023 182.949 20.2142L192.315 36.4285C192.38 36.5416 192.474 36.6355 192.587 36.7008C192.701 36.766 192.829 36.8003 192.96 36.8002H211.733C211.864 36.8003 211.992 36.766 212.106 36.7008C212.219 36.6355 212.313 36.5416 212.378 36.4285L221.711 20.2142C221.777 20.1012 221.811 19.973 221.811 19.8425C221.811 19.712 221.777 19.5838 221.711 19.4708L212.337 3.25638C212.277 3.14607 212.191 3.05263 212.085 2.98476C211.98 2.91688 211.859 2.87677 211.733 2.86816Z" fill="#18181E"/>
<path d="M184.065 21.3375C184 21.223 183.965 21.0935 183.965 20.9617C183.965 20.8299 184 20.7004 184.065 20.5859L193.431 4.37974C193.497 4.26544 193.592 4.17076 193.707 4.10544C193.822 4.04011 193.952 4.0065 194.084 4.00804H212.775L212.337 3.25638C212.277 3.14607 212.191 3.05263 212.085 2.98476C211.98 2.91688 211.859 2.87677 211.733 2.86816H192.96C192.829 2.86808 192.701 2.90239 192.587 2.96764C192.474 3.03289 192.38 3.12678 192.315 3.23986L182.949 19.4708C182.88 19.5826 182.844 19.7112 182.844 19.8425C182.844 19.9737 182.88 20.1023 182.949 20.2142L192.315 36.4285C192.38 36.5416 192.474 36.6355 192.587 36.7008C192.701 36.766 192.829 36.8003 192.96 36.8002L184.065 21.3375Z" fill="#18181E"/>
<path d="M84.2117 -33.8889H65.4795C65.3481 -33.8873 65.2195 -33.8514 65.1064 -33.7848C64.9933 -33.7181 64.8996 -33.623 64.8347 -33.509L55.4933 -17.3028C55.4281 -17.1883 55.3938 -17.0588 55.3938 -16.927C55.3938 -16.7952 55.4281 -16.6657 55.4933 -16.5512L64.8347 -0.345057C64.9 -0.231975 64.994 -0.138085 65.1072 -0.0728342C65.2204 -0.00758306 65.3488 0.0267278 65.4795 0.0266441H84.2117C84.3438 0.02819 84.4739 -0.00542711 84.5887 -0.0707515C84.7035 -0.136076 84.7988 -0.230753 84.8648 -0.345057L94.2309 -16.5512C94.2962 -16.6657 94.3304 -16.7952 94.3304 -16.927C94.3304 -17.0588 94.2962 -17.1883 94.2309 -17.3028L84.8648 -33.4759C84.8035 -33.5973 84.7104 -33.6999 84.5954 -33.7726C84.4804 -33.8454 84.3478 -33.8855 84.2117 -33.8889Z" fill="#18181E"/>
<path d="M56.5845 -15.4361C56.5192 -15.5491 56.4848 -15.6773 56.4848 -15.8078C56.4848 -15.9383 56.5192 -16.0665 56.5845 -16.1795L65.9589 -32.3939C66.0243 -32.5069 66.1183 -32.6008 66.2314 -32.6661C66.3446 -32.7313 66.473 -32.7656 66.6037 -32.7656H85.2947L84.8648 -33.509C84.7992 -33.6242 84.7042 -33.7201 84.5895 -33.7868C84.4748 -33.8536 84.3445 -33.8888 84.2117 -33.8889H65.4795C65.3481 -33.8873 65.2195 -33.8514 65.1064 -33.7848C64.9933 -33.7181 64.8996 -33.623 64.8347 -33.509L55.4933 -17.3028C55.4281 -17.1883 55.3938 -17.0588 55.3938 -16.927C55.3938 -16.7952 55.4281 -16.6657 55.4933 -16.5512L64.8347 -0.345054C64.9 -0.231973 64.994 -0.138083 65.1072 -0.0728318C65.2204 -0.00758062 65.3488 0.0267303 65.4795 0.0266465L56.5845 -15.4361Z" fill="#18181E"/>
<path d="M116.088 -15.5022H97.3475C97.2168 -15.5023 97.0884 -15.468 96.9752 -15.4027C96.862 -15.3375 96.768 -15.2436 96.7027 -15.1305L87.3366 1.08388C87.2713 1.19689 87.2369 1.32509 87.2369 1.45558C87.2369 1.58608 87.2713 1.71427 87.3366 1.82728L96.7027 18.0417C96.768 18.1547 96.862 18.2486 96.9752 18.3139C97.0884 18.3791 97.2168 18.4134 97.3475 18.4134H116.088C116.219 18.4134 116.347 18.3791 116.46 18.3139C116.573 18.2486 116.667 18.1547 116.733 18.0417L126.099 1.82728C126.164 1.71427 126.199 1.58608 126.199 1.45558C126.199 1.32509 126.164 1.19689 126.099 1.08388L116.733 -15.1305C116.667 -15.2436 116.573 -15.3375 116.46 -15.4027C116.347 -15.468 116.219 -15.5023 116.088 -15.5022Z" fill="#18181E"/>
<path d="M88.4608 2.95064C88.3921 2.83882 88.3557 2.71016 88.3557 2.57894C88.3557 2.44772 88.3921 2.31907 88.4608 2.20724L97.827 -14.0071C97.8923 -14.1202 97.9863 -14.2141 98.0995 -14.2794C98.2127 -14.3446 98.3411 -14.3789 98.4718 -14.3788H117.163L116.733 -15.1305C116.667 -15.2436 116.573 -15.3375 116.46 -15.4027C116.347 -15.468 116.219 -15.5023 116.088 -15.5022H97.3475C97.2168 -15.5023 97.0884 -15.468 96.9752 -15.4027C96.862 -15.3375 96.768 -15.2436 96.7027 -15.1305L87.3366 1.08388C87.2713 1.19689 87.2369 1.32509 87.2369 1.45558C87.2369 1.58608 87.2713 1.71427 87.3366 1.82728L96.7027 18.0417C96.768 18.1547 96.862 18.2486 96.9752 18.3139C97.0884 18.3791 97.2168 18.4134 97.3475 18.4134H97.3971L88.4608 2.95064Z" fill="#18181E"/>
<path d="M147.956 2.86822H129.224C129.092 2.86667 128.962 2.90028 128.847 2.96561C128.732 3.03093 128.637 3.12561 128.571 3.23992L119.205 19.4708C119.139 19.5838 119.105 19.712 119.105 19.8425C119.105 19.973 119.139 20.1012 119.205 20.2142L128.571 36.4286C128.637 36.5429 128.732 36.6376 128.847 36.7029C128.962 36.7682 129.092 36.8018 129.224 36.8003H147.956C148.087 36.8004 148.215 36.7661 148.328 36.7008C148.441 36.6356 148.535 36.5417 148.601 36.4286L158 20.2142C158.065 20.1012 158.1 19.973 158.1 19.8425C158.1 19.712 158.065 19.5838 158 19.4708L148.601 3.25643C148.538 3.14028 148.445 3.04306 148.331 2.97482C148.218 2.90658 148.088 2.86978 147.956 2.86822Z" fill="#18181E"/>
<path d="M120.329 21.3374C120.264 21.2229 120.229 21.0934 120.229 20.9616C120.229 20.8298 120.264 20.7003 120.329 20.5858L129.695 4.37963C129.76 4.26655 129.854 4.17266 129.967 4.10741C130.081 4.04216 130.209 4.00785 130.34 4.00793H149.031L148.601 3.25627C148.535 3.14319 148.441 3.0493 148.328 2.98405C148.215 2.9188 148.087 2.88449 147.956 2.88457H129.224C129.092 2.88303 128.962 2.91664 128.847 2.98197C128.732 3.04729 128.637 3.14197 128.571 3.25627L119.205 19.4706C119.139 19.5837 119.105 19.7119 119.105 19.8424C119.105 19.9728 119.139 20.101 119.205 20.2141L128.571 36.4284C128.637 36.5427 128.732 36.6374 128.847 36.7027C128.962 36.7681 129.092 36.8017 129.224 36.8001H129.265L120.329 21.3374Z" fill="#18181E"/>
<path d="M179.824 21.2715H161.092C160.96 21.2708 160.83 21.3048 160.715 21.37C160.601 21.4353 160.505 21.5295 160.439 21.6432L151.073 37.8576C151.007 37.9706 150.973 38.0988 150.973 38.2293C150.973 38.3598 151.007 38.488 151.073 38.601L160.48 54.8154C160.547 54.9291 160.642 55.0233 160.757 55.0885C160.871 55.1538 161.001 55.1878 161.133 55.1871H179.824C179.955 55.1871 180.083 55.1528 180.196 55.0876C180.31 55.0223 180.403 54.9284 180.469 54.8154L189.835 38.601C189.904 38.4892 189.94 38.3605 189.94 38.2293C189.94 38.0981 189.904 37.9694 189.835 37.8576L180.469 21.6432C180.403 21.5301 180.31 21.4362 180.196 21.371C180.083 21.3057 179.955 21.2714 179.824 21.2715Z" fill="#18181E"/>
<path d="M152.213 39.7243C152.148 39.6098 152.114 39.4803 152.114 39.3485C152.114 39.2167 152.148 39.0872 152.213 38.9727L161.58 22.7666C161.644 22.6525 161.738 22.5574 161.851 22.4907C161.964 22.4241 162.093 22.3882 162.224 22.3866H180.899L180.469 21.6432C180.404 21.5301 180.31 21.4362 180.196 21.371C180.083 21.3057 179.955 21.2714 179.824 21.2715H161.092C160.96 21.2708 160.83 21.3048 160.715 21.37C160.601 21.4353 160.505 21.5295 160.439 21.6432L151.073 37.8576C151.007 37.9706 150.973 38.0988 150.973 38.2293C150.973 38.3598 151.007 38.488 151.073 38.601L160.48 54.8154C160.547 54.9291 160.642 55.0233 160.757 55.0885C160.871 55.1538 161.001 55.1878 161.133 55.1871L152.213 39.7243Z" fill="#18181E"/>
<path d="M211.733 39.6582H192.96C192.829 39.6581 192.701 39.6924 192.587 39.7577C192.474 39.8229 192.38 39.9168 192.315 40.0299L182.949 56.236C182.88 56.3494 182.844 56.4794 182.844 56.6119C182.844 56.7443 182.88 56.8743 182.949 56.9877L192.315 73.1938C192.38 73.3079 192.474 73.4029 192.587 73.4696C192.7 73.5363 192.828 73.5722 192.96 73.5738H211.733C211.865 73.5722 211.993 73.5363 212.106 73.4696C212.22 73.4029 212.313 73.3079 212.378 73.1938L221.753 56.9877C221.818 56.8731 221.852 56.7436 221.852 56.6119C221.852 56.4801 221.818 56.3506 221.753 56.236L212.337 40.0382C212.276 39.9294 212.189 39.8376 212.084 39.7712C211.978 39.7048 211.858 39.666 211.733 39.6582Z" fill="#18181E"/>
<path d="M184.065 58.1028C183.999 57.9898 183.965 57.8616 183.965 57.7311C183.965 57.6006 183.999 57.4724 184.065 57.3594L193.431 41.145C193.497 41.0307 193.592 40.936 193.707 40.8707C193.822 40.8054 193.952 40.7718 194.084 40.7733H212.775L212.337 40.0299C212.271 39.9168 212.177 39.8229 212.064 39.7577C211.951 39.6924 211.823 39.6581 211.692 39.6582H192.96C192.829 39.6581 192.701 39.6924 192.587 39.7577C192.474 39.8229 192.38 39.9168 192.315 40.0299L182.949 56.236C182.88 56.3494 182.844 56.4794 182.844 56.6119C182.844 56.7443 182.88 56.8743 182.949 56.9877L192.315 73.1938C192.38 73.3079 192.474 73.4029 192.587 73.4696C192.7 73.5363 192.828 73.5722 192.96 73.5738L184.065 58.1028Z" fill="#18181E"/>
<path d="M20.4757 -33.8889H1.76001C1.62869 -33.8873 1.50008 -33.8514 1.38696 -33.7848C1.27383 -33.7181 1.18015 -33.623 1.11521 -33.509L-8.27572 -17.3028C-8.34095 -17.1883 -8.37524 -17.0588 -8.37524 -16.927C-8.37524 -16.7952 -8.34095 -16.6657 -8.27572 -16.5512L1.09868 -0.345054C1.16402 -0.231973 1.25802 -0.138083 1.37121 -0.0728318C1.4844 -0.00758062 1.6128 0.0267303 1.74348 0.0266465H20.4757C20.6064 0.0267303 20.7348 -0.00758062 20.848 -0.0728318C20.9612 -0.138083 21.0552 -0.231973 21.1205 -0.345054L30.4949 -16.5512C30.5602 -16.6657 30.5945 -16.7952 30.5945 -16.927C30.5945 -17.0588 30.5602 -17.1883 30.4949 -17.3028L21.1205 -33.4759C21.0599 -33.5961 20.9681 -33.6979 20.8547 -33.7705C20.7413 -33.8432 20.6104 -33.8841 20.4757 -33.8889Z" fill="#18181E"/>
<path d="M-7.15145 -15.4361C-7.21675 -15.5491 -7.25113 -15.6773 -7.25113 -15.8078C-7.25113 -15.9383 -7.21675 -16.0665 -7.15145 -16.1795L2.21468 -32.3939C2.28002 -32.5069 2.37402 -32.6008 2.48721 -32.6661C2.6004 -32.7313 2.7288 -32.7656 2.85948 -32.7656H21.6L21.1619 -33.509C21.0969 -33.623 21.0033 -33.7181 20.8901 -33.7848C20.777 -33.8514 20.6484 -33.8873 20.5171 -33.8889H1.76001C1.62869 -33.8873 1.50008 -33.8514 1.38696 -33.7848C1.27383 -33.7181 1.18015 -33.623 1.11521 -33.509L-8.27572 -17.3028C-8.34095 -17.1883 -8.37524 -17.0588 -8.37524 -16.927C-8.37524 -16.7952 -8.34095 -16.6657 -8.27572 -16.5512L1.09868 -0.345054C1.16402 -0.231973 1.25802 -0.138083 1.37121 -0.0728318C1.4844 -0.00758062 1.6128 0.0267303 1.74348 0.0266465H1.76001L-7.15145 -15.4361Z" fill="#18181E"/>
<path d="M52.3437 -15.5022H33.6115C33.4808 -15.5022 33.3524 -15.4679 33.2392 -15.4027C33.126 -15.3374 33.032 -15.2435 32.9667 -15.1305L23.6005 1.08391C23.5352 1.19692 23.5009 1.32512 23.5009 1.45561C23.5009 1.58611 23.5352 1.7143 23.6005 1.82731L32.9667 18.0417C33.032 18.1548 33.126 18.2487 33.2392 18.3139C33.3524 18.3792 33.4808 18.4135 33.6115 18.4134H52.3437C52.4756 18.4141 52.6054 18.3801 52.72 18.3149C52.8347 18.2496 52.9301 18.1554 52.9968 18.0417L62.3629 1.82731C62.4282 1.7143 62.4626 1.58611 62.4626 1.45561C62.4626 1.32512 62.4282 1.19692 62.3629 1.08391L53.0133 -15.1305C52.9453 -15.2467 52.8472 -15.3425 52.7294 -15.4079C52.6116 -15.4732 52.4784 -15.5058 52.3437 -15.5022Z" fill="#18181E"/>
<path d="M24.7165 2.95065C24.6512 2.83764 24.6169 2.70945 24.6169 2.57895C24.6169 2.44846 24.6512 2.32026 24.7165 2.20725L34.0827 -14.0071C34.1493 -14.1209 34.2448 -14.2151 34.3594 -14.2803C34.474 -14.3455 34.6038 -14.3795 34.7357 -14.3788H53.4267L53.0133 -15.1305C52.9467 -15.2442 52.8512 -15.3384 52.7366 -15.4037C52.622 -15.4689 52.4922 -15.5029 52.3603 -15.5022H33.6115C33.4808 -15.5023 33.3524 -15.468 33.2392 -15.4027C33.126 -15.3375 33.032 -15.2436 32.9667 -15.1305L23.6005 1.08389C23.5352 1.1969 23.5009 1.3251 23.5009 1.45559C23.5009 1.58609 23.5352 1.71428 23.6005 1.82729L32.9667 18.0417C33.032 18.1548 33.126 18.2486 33.2392 18.3139C33.3524 18.3791 33.4808 18.4135 33.6115 18.4134L24.7165 2.95065Z" fill="#18181E"/>
<path d="M84.2118 2.86816H65.4795C65.3488 2.86808 65.2204 2.90239 65.1072 2.96764C64.994 3.03289 64.9 3.12678 64.8347 3.23986L55.4934 19.4708C55.4281 19.5838 55.3937 19.712 55.3937 19.8425C55.3937 19.973 55.4281 20.1012 55.4934 20.2142L64.8347 36.4285C64.9 36.5416 64.994 36.6355 65.1072 36.7008C65.2204 36.766 65.3488 36.8003 65.4795 36.8002H84.2118C84.3438 36.8018 84.4739 36.7682 84.5887 36.7029C84.7035 36.6375 84.7988 36.5429 84.8648 36.4285L94.231 20.2142C94.2963 20.1012 94.3306 19.973 94.3306 19.8425C94.3306 19.712 94.2963 19.5838 94.231 19.4708L84.8648 3.25638C84.8009 3.139 84.7065 3.041 84.5916 2.97268C84.4767 2.90436 84.3455 2.86826 84.2118 2.86816Z" fill="#18181E"/>
<path d="M56.5846 21.3374C56.5193 21.2229 56.485 21.0934 56.485 20.9616C56.485 20.8298 56.5193 20.7003 56.5846 20.5858L65.959 4.37963C66.0243 4.26655 66.1183 4.17266 66.2315 4.10741C66.3447 4.04216 66.4731 4.00785 66.6038 4.00793H85.2947L84.8648 3.25627C84.7988 3.14197 84.7035 3.04729 84.5887 2.98197C84.4739 2.91664 84.3438 2.88303 84.2118 2.88457H65.4795C65.3488 2.88449 65.2204 2.9188 65.1072 2.98405C64.994 3.0493 64.9 3.14319 64.8347 3.25627L55.4934 19.4706C55.4281 19.5837 55.3937 19.7119 55.3937 19.8424C55.3937 19.9728 55.4281 20.101 55.4934 20.2141L64.8347 36.4284C64.9 36.5415 64.994 36.6354 65.1072 36.7007C65.2204 36.7659 65.3488 36.8002 65.4795 36.8001L56.5846 21.3374Z" fill="#18181E"/>
<path d="M116.088 21.2715H97.3475C97.2168 21.2714 97.0884 21.3057 96.9752 21.371C96.862 21.4362 96.768 21.5301 96.7027 21.6432L87.3366 37.8576C87.2713 37.9706 87.2369 38.0988 87.2369 38.2293C87.2369 38.3598 87.2713 38.488 87.3366 38.601L96.7027 54.8153C96.768 54.9284 96.862 55.0223 96.9752 55.0876C97.0884 55.1528 97.2168 55.1871 97.3475 55.187H116.088C116.219 55.1871 116.347 55.1528 116.46 55.0876C116.573 55.0223 116.667 54.9284 116.733 54.8153L126.099 38.601C126.164 38.488 126.199 38.3598 126.199 38.2293C126.199 38.0988 126.164 37.9706 126.099 37.8576L116.733 21.6432C116.667 21.5301 116.573 21.4362 116.46 21.371C116.347 21.3057 116.219 21.2714 116.088 21.2715Z" fill="#18181E"/>
<path d="M88.4608 39.7243C88.3923 39.6109 88.356 39.481 88.356 39.3485C88.356 39.216 88.3923 39.0861 88.4608 38.9727L97.827 22.7665C97.8919 22.6525 97.9856 22.5574 98.0987 22.4907C98.2118 22.4241 98.3404 22.3882 98.4718 22.3866H117.163L116.733 21.6432C116.667 21.5301 116.573 21.4362 116.46 21.371C116.347 21.3057 116.219 21.2714 116.088 21.2715H97.3475C97.2168 21.2714 97.0884 21.3057 96.9752 21.371C96.862 21.4362 96.768 21.5301 96.7027 21.6432L87.3366 37.8576C87.2713 37.9706 87.2369 38.0988 87.2369 38.2293C87.2369 38.3598 87.2713 38.488 87.3366 38.601L96.7027 54.8153C96.768 54.9284 96.862 55.0223 96.9752 55.0876C97.0884 55.1528 97.2168 55.1871 97.3475 55.187H97.3971L88.4608 39.7243Z" fill="#18181E"/>
<path d="M147.956 39.6583H129.224C129.092 39.6567 128.962 39.6903 128.847 39.7556C128.732 39.821 128.637 39.9157 128.571 40.03L119.205 56.2361C119.139 56.3506 119.105 56.4801 119.105 56.6119C119.105 56.7437 119.139 56.8732 119.205 56.9877L128.571 73.1939C128.636 73.3091 128.731 73.405 128.846 73.4717C128.961 73.5385 129.091 73.5737 129.224 73.5738H147.956C148.087 73.5722 148.216 73.5363 148.329 73.4697C148.442 73.403 148.536 73.3079 148.601 73.1939L158 56.9877C158.065 56.8732 158.099 56.7437 158.099 56.6119C158.099 56.4801 158.065 56.3506 158 56.2361L148.601 40.0382C148.536 39.9236 148.443 39.828 148.33 39.7613C148.216 39.6946 148.087 39.659 147.956 39.6583Z" fill="#18181E"/>
<path d="M120.329 58.1028C120.263 57.9898 120.229 57.8616 120.229 57.7311C120.229 57.6006 120.263 57.4724 120.329 57.3594L129.695 41.1451C129.76 41.032 129.854 40.9381 129.967 40.8728C130.081 40.8076 130.209 40.7733 130.34 40.7734H149.031L148.601 40.03C148.535 39.9169 148.441 39.823 148.328 39.7577C148.215 39.6925 148.087 39.6582 147.956 39.6583H129.224C129.092 39.6567 128.962 39.6903 128.847 39.7556C128.732 39.821 128.637 39.9157 128.571 40.03L119.205 56.2361C119.139 56.3506 119.105 56.4801 119.105 56.6119C119.105 56.7437 119.139 56.8732 119.205 56.9877L128.571 73.1939C128.636 73.3091 128.731 73.405 128.846 73.4717C128.961 73.5385 129.091 73.5737 129.224 73.5738H129.265L120.329 58.1028Z" fill="#18181E"/>
<path d="M179.824 58.0366H161.092C160.959 58.0376 160.829 58.0732 160.715 58.1398C160.6 58.2065 160.505 58.3019 160.439 58.4166L151.073 74.6227C151.007 74.7372 150.973 74.8667 150.973 74.9985C150.973 75.1303 151.007 75.2598 151.073 75.3744L160.48 91.5805C160.547 91.6942 160.642 91.7884 160.757 91.8537C160.871 91.9189 161.001 91.9529 161.133 91.9522H179.824C179.955 91.9523 180.083 91.918 180.196 91.8527C180.309 91.7875 180.403 91.6936 180.469 91.5805L189.835 75.3744C189.904 75.261 189.94 75.131 189.94 74.9985C189.94 74.8661 189.904 74.7361 189.835 74.6227L180.469 58.4166C180.404 58.3025 180.31 58.2074 180.197 58.1408C180.084 58.0741 179.955 58.0382 179.824 58.0366Z" fill="#18181E"/>
<path d="M152.213 76.4895C152.148 76.3764 152.114 76.2483 152.114 76.1178C152.114 75.9873 152.148 75.8591 152.213 75.7461L161.563 59.5317C161.628 59.4186 161.722 59.3247 161.835 59.2595C161.949 59.1942 162.077 59.1599 162.208 59.16H180.899L180.469 58.4166C180.404 58.3025 180.31 58.2074 180.197 58.1408C180.084 58.0741 179.955 58.0382 179.824 58.0366H161.092C160.959 58.0376 160.829 58.0732 160.715 58.1398C160.6 58.2065 160.505 58.3019 160.439 58.4166L151.073 74.6227C151.007 74.7372 150.973 74.8667 150.973 74.9985C150.973 75.1303 151.007 75.2598 151.073 75.3744L160.48 91.5805C160.547 91.6942 160.642 91.7884 160.757 91.8537C160.871 91.9189 161.001 91.9529 161.133 91.9522L152.213 76.4895Z" fill="#18181E"/>
<path d="M211.733 76.4233H192.96C192.829 76.4233 192.701 76.4576 192.587 76.5228C192.474 76.5881 192.38 76.682 192.315 76.795L182.949 93.0094C182.88 93.1212 182.844 93.2499 182.844 93.3811C182.844 93.5123 182.88 93.641 182.949 93.7528L192.315 109.967C192.38 110.08 192.474 110.174 192.587 110.239C192.701 110.305 192.829 110.339 192.96 110.339H211.733C211.864 110.339 211.992 110.305 212.106 110.239C212.219 110.174 212.313 110.08 212.378 109.967L221.711 93.728C221.777 93.615 221.811 93.4868 221.811 93.3563C221.811 93.2258 221.777 93.0976 221.711 92.9846L212.337 76.795C212.275 76.6878 212.188 76.5977 212.082 76.5328C211.977 76.4678 211.857 76.4302 211.733 76.4233Z" fill="#18181E"/>
<path d="M184.065 94.8762C184 94.7632 183.965 94.635 183.965 94.5045C183.965 94.374 184 94.2458 184.065 94.1328L193.431 77.9184C193.497 77.8041 193.592 77.7094 193.707 77.6441C193.822 77.5788 193.952 77.5452 194.084 77.5467H212.775L212.337 76.795C212.272 76.682 212.178 76.5881 212.064 76.5228C211.951 76.4576 211.823 76.4233 211.692 76.4233H192.96C192.829 76.4233 192.701 76.4576 192.587 76.5228C192.474 76.5881 192.38 76.682 192.315 76.795L182.949 93.0094C182.88 93.1212 182.844 93.2499 182.844 93.3811C182.844 93.5123 182.88 93.641 182.949 93.7528L192.315 109.967C192.38 110.08 192.474 110.174 192.587 110.239C192.701 110.305 192.829 110.339 192.96 110.339L184.065 94.8762Z" fill="#18181E"/>
<path d="M20.4758 2.86816H1.76004C1.62936 2.86808 1.50096 2.90239 1.38777 2.96764C1.27458 3.03289 1.18058 3.12678 1.11524 3.23986L-8.27569 19.4708C-8.34099 19.5838 -8.37537 19.712 -8.37537 19.8425C-8.37537 19.973 -8.34099 20.1012 -8.27569 20.2142L1.09871 36.4285C1.16405 36.5416 1.25805 36.6355 1.37124 36.7008C1.48443 36.766 1.61283 36.8003 1.74351 36.8002H20.4758C20.6065 36.8003 20.7349 36.766 20.848 36.7008C20.9612 36.6355 21.0552 36.5416 21.1206 36.4285L30.495 20.2142C30.5603 20.1012 30.5947 19.973 30.5947 19.8425C30.5947 19.712 30.5603 19.5838 30.495 19.4708L21.1206 3.25638C21.0574 3.14022 20.9643 3.04301 20.8509 2.97477C20.7376 2.90653 20.6081 2.86973 20.4758 2.86816Z" fill="#18181E"/>
<path d="M-7.15142 21.3374C-7.21665 21.2228 -7.25095 21.0933 -7.25095 20.9615C-7.25095 20.8298 -7.21665 20.7002 -7.15142 20.5857L2.21471 4.37958C2.28005 4.2665 2.37405 4.17261 2.48724 4.10736C2.60043 4.04211 2.72883 4.0078 2.85951 4.00788H21.6L21.1619 3.25622C21.0966 3.14314 21.0026 3.04925 20.8894 2.984C20.7762 2.91875 20.6478 2.88444 20.5171 2.88452H1.76004C1.62936 2.88444 1.50096 2.91875 1.38777 2.984C1.27458 3.04925 1.18058 3.14314 1.11524 3.25622L-8.27569 19.4706C-8.34099 19.5836 -8.37537 19.7118 -8.37537 19.8423C-8.37537 19.9728 -8.34099 20.101 -8.27569 20.214L1.09871 36.4284C1.16405 36.5415 1.25805 36.6354 1.37124 36.7006C1.48443 36.7659 1.61283 36.8002 1.74351 36.8001H1.76004L-7.15142 21.3374Z" fill="#18181E"/>
<path d="M52.3437 21.2715H33.6115C33.4808 21.2714 33.3524 21.3057 33.2392 21.371C33.126 21.4362 33.032 21.5301 32.9667 21.6432L23.6005 37.8576C23.5352 37.9706 23.5009 38.0988 23.5009 38.2293C23.5009 38.3598 23.5352 38.488 23.6005 38.601L32.9667 54.8154C33.032 54.9285 33.126 55.0223 33.2392 55.0876C33.3524 55.1528 33.4808 55.1872 33.6115 55.1871H52.3437C52.4756 55.1878 52.6054 55.1538 52.72 55.0886C52.8347 55.0233 52.9301 54.9291 52.9968 54.8154L62.3629 38.601C62.4282 38.488 62.4626 38.3598 62.4626 38.2293C62.4626 38.0988 62.4282 37.9706 62.3629 37.8576L53.0133 21.6432C52.9453 21.527 52.8472 21.4312 52.7294 21.3658C52.6116 21.3004 52.4784 21.2679 52.3437 21.2715Z" fill="#18181E"/>
<path d="M24.7165 39.7243C24.6513 39.6098 24.617 39.4803 24.617 39.3485C24.617 39.2167 24.6513 39.0872 24.7165 38.9727L34.0827 22.7666C34.1489 22.6518 34.2441 22.5564 34.3586 22.4898C34.4732 22.4231 34.6032 22.3876 34.7357 22.3866H53.4267L52.9968 21.6432C52.9301 21.5295 52.8347 21.4353 52.7201 21.37C52.6054 21.3048 52.4757 21.2708 52.3437 21.2715H33.6115C33.4808 21.2714 33.3524 21.3057 33.2392 21.371C33.126 21.4362 33.032 21.5301 32.9667 21.6432L23.6005 37.8576C23.5352 37.9706 23.5009 38.0988 23.5009 38.2293C23.5009 38.3598 23.5352 38.488 23.6005 38.601L32.9667 54.8154C33.032 54.9284 33.126 55.0223 33.2392 55.0876C33.3524 55.1528 33.4808 55.1871 33.6115 55.1871L24.7165 39.7243Z" fill="#18181E"/>
<path d="M84.2117 39.6582H65.4795C65.3488 39.6581 65.2204 39.6924 65.1072 39.7577C64.994 39.8229 64.9 39.9168 64.8347 40.0299L55.4933 56.236C55.4281 56.3506 55.3938 56.4801 55.3938 56.6119C55.3938 56.7436 55.4281 56.8732 55.4933 56.9877L64.8595 73.1938C64.9244 73.3079 65.0181 73.403 65.1312 73.4696C65.2443 73.5363 65.3729 73.5722 65.5043 73.5738H84.2365C84.3692 73.5736 84.4996 73.5384 84.6143 73.4717C84.729 73.4049 84.824 73.3091 84.8896 73.1938L94.2557 56.9877C94.3209 56.8732 94.3552 56.7436 94.3552 56.6119C94.3552 56.4801 94.3209 56.3506 94.2557 56.236L84.8648 40.0382C84.7998 39.9223 84.705 39.826 84.5901 39.7592C84.4753 39.6924 84.3446 39.6575 84.2117 39.6582Z" fill="#18181E"/>
<path d="M56.5845 58.1028C56.5192 57.9898 56.4848 57.8616 56.4848 57.7311C56.4848 57.6006 56.5192 57.4724 56.5845 57.3594L65.9589 41.1451C66.0243 41.032 66.1183 40.9381 66.2314 40.8728C66.3446 40.8076 66.473 40.7733 66.6037 40.7734H85.2947L84.8648 40.03C84.7988 39.9157 84.7035 39.821 84.5887 39.7556C84.4739 39.6903 84.3438 39.6567 84.2117 39.6583H65.4795C65.3488 39.6582 65.2204 39.6925 65.1072 39.7577C64.994 39.823 64.9 39.9169 64.8347 40.03L55.4933 56.2361C55.4281 56.3506 55.3938 56.4801 55.3938 56.6119C55.3938 56.7437 55.4281 56.8732 55.4933 56.9877L64.8595 73.1939C64.9244 73.3079 65.0181 73.403 65.1312 73.4697C65.2443 73.5363 65.3729 73.5722 65.5043 73.5738L56.5845 58.1028Z" fill="#18181E"/>
<path d="M116.088 58.0366H97.3475C97.2162 58.0382 97.0876 58.0741 96.9745 58.1408C96.8613 58.2074 96.7677 58.3025 96.7027 58.4166L87.3366 74.6227C87.2714 74.7372 87.2371 74.8667 87.2371 74.9985C87.2371 75.1303 87.2714 75.2598 87.3366 75.3744L96.7027 91.5805C96.7681 91.6936 96.862 91.7875 96.9752 91.8527C97.0884 91.918 97.2168 91.9523 97.3475 91.9522H116.088C116.219 91.9523 116.347 91.918 116.46 91.8527C116.574 91.7875 116.668 91.6936 116.733 91.5805L126.099 75.3744C126.164 75.2598 126.199 75.1303 126.199 74.9985C126.199 74.8667 126.164 74.7372 126.099 74.6227L116.733 58.4166C116.668 58.3025 116.574 58.2074 116.461 58.1408C116.348 58.0741 116.219 58.0382 116.088 58.0366Z" fill="#18181E"/>
<path d="M88.4609 76.4895C88.3921 76.3776 88.3558 76.249 88.3558 76.1178C88.3558 75.9865 88.3921 75.8579 88.4609 75.7461L97.827 59.5317C97.8923 59.4186 97.9863 59.3247 98.0995 59.2595C98.2127 59.1942 98.3411 59.1599 98.4718 59.16H117.163L116.733 58.4166C116.668 58.3025 116.574 58.2074 116.461 58.1408C116.348 58.0741 116.219 58.0382 116.088 58.0366H97.3475C97.2162 58.0382 97.0876 58.0741 96.9745 58.1408C96.8613 58.2074 96.7677 58.3025 96.7027 58.4166L87.3366 74.6227C87.2714 74.7372 87.2371 74.8667 87.2371 74.9985C87.2371 75.1303 87.2714 75.2598 87.3366 75.3744L96.7027 91.5805C96.7681 91.6936 96.862 91.7875 96.9752 91.8527C97.0884 91.918 97.2168 91.9523 97.3475 91.9522H97.3971L88.4609 76.4895Z" fill="#18181E"/>
<path d="M147.956 76.4234H129.224C129.092 76.4218 128.962 76.4555 128.847 76.5208C128.732 76.5861 128.637 76.6808 128.571 76.7951L119.205 93.0095C119.139 93.1225 119.105 93.2507 119.105 93.3812C119.105 93.5117 119.139 93.6399 119.205 93.7529L128.571 109.967C128.637 110.082 128.732 110.176 128.847 110.242C128.962 110.307 129.092 110.34 129.224 110.339H147.956C148.087 110.339 148.215 110.305 148.328 110.239C148.441 110.174 148.535 110.08 148.601 109.967L158 93.7281C158.065 93.6151 158.1 93.4869 158.1 93.3564C158.1 93.2259 158.065 93.0977 158 92.9847L148.601 76.7951C148.535 76.682 148.441 76.5881 148.328 76.5229C148.215 76.4576 148.087 76.4233 147.956 76.4234Z" fill="#18181E"/>
<path d="M120.329 94.8762C120.264 94.7632 120.229 94.635 120.229 94.5045C120.229 94.374 120.264 94.2458 120.329 94.1328L129.695 77.9184C129.76 77.8054 129.854 77.7115 129.967 77.6462C130.081 77.581 130.209 77.5467 130.34 77.5468H149.031L148.601 76.7951C148.535 76.682 148.441 76.5881 148.328 76.5229C148.215 76.4576 148.087 76.4233 147.956 76.4234H129.224C129.092 76.4218 128.962 76.4555 128.847 76.5208C128.732 76.5861 128.637 76.6808 128.571 76.7951L119.205 93.0095C119.139 93.1225 119.105 93.2507 119.105 93.3812C119.105 93.5117 119.139 93.6399 119.205 93.7529L128.571 109.967C128.637 110.082 128.732 110.176 128.847 110.242C128.962 110.307 129.092 110.34 129.224 110.339H129.265L120.329 94.8762Z" fill="#18181E"/>
<path d="M179.824 94.8103H161.092C160.96 94.8096 160.83 94.8436 160.715 94.9088C160.601 94.9741 160.505 95.0683 160.439 95.182L151.073 111.396C151.007 111.509 150.973 111.638 150.973 111.768C150.973 111.899 151.007 112.027 151.073 112.14L160.48 128.354C160.547 128.468 160.642 128.562 160.757 128.627C160.871 128.693 161.001 128.727 161.133 128.726H179.824C179.955 128.726 180.083 128.692 180.196 128.626C180.31 128.561 180.403 128.467 180.469 128.354L189.835 112.14C189.904 112.028 189.94 111.899 189.94 111.768C189.94 111.637 189.904 111.508 189.835 111.396L180.469 95.182C180.403 95.0689 180.31 94.975 180.196 94.9098C180.083 94.8445 179.955 94.8102 179.824 94.8103Z" fill="#18181E"/>
<path d="M152.213 113.263C152.148 113.149 152.114 113.019 152.114 112.887C152.114 112.756 152.148 112.626 152.213 112.512L161.58 96.3054C161.645 96.1923 161.739 96.0984 161.852 96.0332C161.965 95.9679 162.094 95.9336 162.224 95.9337H180.899L180.469 95.182C180.404 95.0689 180.31 94.975 180.196 94.9098C180.083 94.8445 179.955 94.8102 179.824 94.8103H161.092C160.96 94.8096 160.83 94.8436 160.715 94.9088C160.601 94.9741 160.505 95.0683 160.439 95.182L151.073 111.396C151.007 111.509 150.973 111.638 150.973 111.768C150.973 111.899 151.007 112.027 151.073 112.14L160.48 128.354C160.547 128.468 160.642 128.562 160.757 128.627C160.871 128.693 161.001 128.727 161.133 128.726L152.213 113.263Z" fill="#18181E"/>
<path d="M211.733 113.197H192.96C192.829 113.197 192.701 113.231 192.587 113.296C192.474 113.362 192.38 113.456 192.315 113.569L182.949 129.783C182.88 129.895 182.844 130.024 182.844 130.155C182.844 130.286 182.88 130.415 182.949 130.526L192.315 146.741C192.38 146.854 192.474 146.948 192.587 147.013C192.701 147.078 192.829 147.113 192.96 147.113H211.733C211.864 147.113 211.992 147.078 212.106 147.013C212.219 146.948 212.313 146.854 212.378 146.741L221.753 130.526C221.818 130.413 221.852 130.285 221.852 130.155C221.852 130.024 221.818 129.896 221.753 129.783L212.337 113.552C212.273 113.448 212.185 113.361 212.08 113.299C211.974 113.237 211.855 113.202 211.733 113.197Z" fill="#18181E"/>
<path d="M184.065 131.65C184 131.535 183.965 131.406 183.965 131.274C183.965 131.142 184 131.013 184.065 130.898L193.431 114.692C193.497 114.577 193.592 114.481 193.706 114.414C193.821 114.347 193.951 114.312 194.084 114.312H212.775L212.337 113.569C212.272 113.456 212.178 113.362 212.064 113.296C211.951 113.231 211.823 113.197 211.692 113.197H192.96C192.829 113.197 192.701 113.231 192.587 113.296C192.474 113.362 192.38 113.456 192.315 113.569L182.949 129.783C182.88 129.895 182.844 130.024 182.844 130.155C182.844 130.286 182.88 130.415 182.949 130.526L192.315 146.741C192.38 146.854 192.474 146.948 192.587 147.013C192.701 147.078 192.829 147.113 192.96 147.113L184.065 131.65Z" fill="#18181E"/>
<path d="M20.4757 39.6582H1.76001C1.62933 39.6581 1.50093 39.6924 1.38774 39.7577C1.27455 39.8229 1.18055 39.9168 1.11521 40.0299L-8.27572 56.236C-8.34095 56.3506 -8.37524 56.4801 -8.37524 56.6119C-8.37524 56.7436 -8.34095 56.8731 -8.27572 56.9877L1.09868 73.1938C1.16361 73.3079 1.2573 73.4029 1.37042 73.4696C1.48354 73.5363 1.61216 73.5722 1.74348 73.5738H20.4757C20.6071 73.5722 20.7357 73.5363 20.8488 73.4696C20.9619 73.4029 21.0556 73.3079 21.1205 73.1938L30.4949 56.9877C30.5602 56.8731 30.5945 56.7436 30.5945 56.6119C30.5945 56.4801 30.5602 56.3506 30.4949 56.236L21.1205 40.0382C21.0563 39.9235 20.9627 39.828 20.8495 39.7613C20.7362 39.6945 20.6072 39.659 20.4757 39.6582Z" fill="#18181E"/>
<path d="M-7.15145 58.1028C-7.21675 57.9898 -7.25113 57.8616 -7.25113 57.7311C-7.25113 57.6006 -7.21675 57.4724 -7.15145 57.3594L2.21468 41.145C2.28002 41.0319 2.37402 40.938 2.48721 40.8728C2.6004 40.8075 2.7288 40.7732 2.85948 40.7733H21.6L21.1619 40.0299C21.0965 39.9168 21.0025 39.8229 20.8894 39.7577C20.7762 39.6924 20.6478 39.6581 20.5171 39.6582H1.76001C1.62933 39.6581 1.50093 39.6924 1.38774 39.7577C1.27455 39.8229 1.18055 39.9168 1.11521 40.0299L-8.27572 56.236C-8.34095 56.3506 -8.37524 56.4801 -8.37524 56.6119C-8.37524 56.7436 -8.34095 56.8731 -8.27572 56.9877L1.09868 73.1938C1.16361 73.3079 1.2573 73.4029 1.37042 73.4696C1.48354 73.5363 1.61216 73.5722 1.74348 73.5738H1.76001L-7.15145 58.1028Z" fill="#18181E"/>
<path d="M52.3438 58.0367H33.6115C33.4802 58.0383 33.3516 58.0742 33.2384 58.1409C33.1253 58.2075 33.0316 58.3026 32.9667 58.4167L23.6006 74.6228C23.5353 74.7373 23.501 74.8668 23.501 74.9986C23.501 75.1304 23.5353 75.2599 23.6006 75.3744L32.9667 91.5806C33.032 91.6936 33.126 91.7875 33.2392 91.8528C33.3524 91.918 33.4808 91.9523 33.6115 91.9523H52.3438C52.4757 91.953 52.6055 91.919 52.7201 91.8537C52.8347 91.7885 52.9301 91.6943 52.9968 91.5806L62.363 75.3744C62.4282 75.2599 62.4625 75.1304 62.4625 74.9986C62.4625 74.8668 62.4282 74.7373 62.363 74.6228L53.0134 58.4167C52.9457 58.2995 52.848 58.2025 52.7302 58.1357C52.6125 58.069 52.4791 58.0348 52.3438 58.0367Z" fill="#18181E"/>
<path d="M24.7166 76.4895C24.6513 76.3764 24.6169 76.2483 24.6169 76.1178C24.6169 75.9873 24.6513 75.8591 24.7166 75.7461L34.0827 59.5317C34.1494 59.4179 34.2448 59.3237 34.3594 59.2585C34.4741 59.1933 34.6038 59.1593 34.7358 59.16H53.4267L52.9968 58.4166C52.9306 58.3019 52.8354 58.2065 52.7209 58.1398C52.6063 58.0732 52.4763 58.0376 52.3438 58.0366H33.6115C33.4802 58.0382 33.3516 58.0741 33.2384 58.1408C33.1253 58.2074 33.0316 58.3025 32.9667 58.4166L23.6006 74.6227C23.5353 74.7372 23.501 74.8667 23.501 74.9985C23.501 75.1303 23.5353 75.2598 23.6006 75.3744L32.9667 91.5805C33.032 91.6936 33.126 91.7875 33.2392 91.8527C33.3524 91.918 33.4808 91.9523 33.6115 91.9522L24.7166 76.4895Z" fill="#18181E"/>
<path d="M84.2118 76.4234H65.4795C65.3488 76.4233 65.2204 76.4576 65.1072 76.5229C64.994 76.5881 64.9 76.682 64.8347 76.7951L55.4934 93.0095C55.4281 93.1225 55.3937 93.2507 55.3937 93.3812C55.3937 93.5117 55.4281 93.6399 55.4934 93.7529L64.8595 109.967C64.9248 110.08 65.0188 110.174 65.132 110.239C65.2452 110.305 65.3736 110.339 65.5043 110.339H84.2366C84.3686 110.34 84.4987 110.307 84.6135 110.242C84.7283 110.176 84.8236 110.082 84.8896 109.967L94.231 93.7281C94.2963 93.6151 94.3306 93.4869 94.3306 93.3564C94.3306 93.2259 94.2963 93.0977 94.231 92.9847L84.8648 76.7951C84.7988 76.6808 84.7035 76.5861 84.5887 76.5208C84.4739 76.4555 84.3438 76.4218 84.2118 76.4234Z" fill="#18181E"/>
<path d="M56.5846 94.8762C56.5193 94.7632 56.4849 94.635 56.4849 94.5045C56.4849 94.374 56.5193 94.2458 56.5846 94.1328L65.959 77.9184C66.0243 77.8054 66.1183 77.7115 66.2315 77.6462C66.3447 77.581 66.4731 77.5467 66.6038 77.5468H85.2947L84.8648 76.7951C84.7988 76.6808 84.7035 76.5861 84.5887 76.5208C84.4739 76.4555 84.3438 76.4218 84.2118 76.4234H65.4795C65.3488 76.4233 65.2204 76.4576 65.1072 76.5229C64.994 76.5881 64.9 76.682 64.8347 76.7951L55.4934 93.0095C55.4281 93.1225 55.3937 93.2507 55.3937 93.3812C55.3937 93.5117 55.4281 93.6399 55.4934 93.7529L64.8595 109.967C64.9248 110.08 65.0188 110.174 65.132 110.239C65.2452 110.305 65.3736 110.339 65.5043 110.339L56.5846 94.8762Z" fill="#18181E"/>
<path d="M116.088 94.8103H97.3475C97.2168 94.8102 97.0884 94.8445 96.9752 94.9098C96.862 94.975 96.768 95.0689 96.7027 95.182L87.3366 111.396C87.2713 111.509 87.2369 111.638 87.2369 111.768C87.2369 111.899 87.2713 112.027 87.3366 112.14L96.7027 128.354C96.768 128.467 96.862 128.561 96.9752 128.626C97.0884 128.692 97.2168 128.726 97.3475 128.726H116.088C116.219 128.726 116.347 128.692 116.46 128.626C116.573 128.561 116.667 128.467 116.733 128.354L126.099 112.14C126.164 112.027 126.199 111.899 126.199 111.768C126.199 111.638 126.164 111.509 126.099 111.396L116.733 95.182C116.667 95.0689 116.573 94.975 116.46 94.9098C116.347 94.8445 116.219 94.8102 116.088 94.8103Z" fill="#18181E"/>
<path d="M88.4608 113.263C88.3923 113.15 88.356 113.02 88.356 112.887C88.356 112.755 88.3923 112.625 88.4608 112.511L97.827 96.3054C97.8923 96.1923 97.9863 96.0984 98.0995 96.0331C98.2127 95.9679 98.3411 95.9336 98.4718 95.9337H117.163L116.733 95.182C116.667 95.0689 116.573 94.975 116.46 94.9098C116.347 94.8445 116.219 94.8102 116.088 94.8103H97.3475C97.2168 94.8102 97.0884 94.8445 96.9752 94.9098C96.862 94.975 96.768 95.0689 96.7027 95.182L87.3366 111.396C87.2713 111.509 87.2369 111.638 87.2369 111.768C87.2369 111.899 87.2713 112.027 87.3366 112.14L96.7027 128.354C96.768 128.467 96.862 128.561 96.9752 128.626C97.0884 128.692 97.2168 128.726 97.3475 128.726H97.3971L88.4608 113.263Z" fill="#18181E"/>
<path d="M147.956 113.197H129.224C129.092 113.195 128.962 113.229 128.847 113.294C128.732 113.36 128.637 113.454 128.571 113.569L119.205 129.783C119.139 129.896 119.105 130.024 119.105 130.155C119.105 130.285 119.139 130.413 119.205 130.526L128.571 146.741C128.637 146.855 128.732 146.95 128.847 147.015C128.962 147.08 129.092 147.114 129.224 147.112H147.956C148.087 147.112 148.215 147.078 148.328 147.013C148.441 146.948 148.535 146.854 148.601 146.741L158 130.526C158.065 130.413 158.1 130.285 158.1 130.155C158.1 130.024 158.065 129.896 158 129.783L148.601 113.552C148.533 113.442 148.439 113.351 148.325 113.289C148.212 113.227 148.085 113.195 147.956 113.197Z" fill="#18181E"/>
<path d="M120.329 131.65C120.264 131.535 120.229 131.406 120.229 131.274C120.229 131.142 120.264 131.013 120.329 130.898L129.695 114.692C129.76 114.578 129.854 114.483 129.967 114.416C130.08 114.349 130.208 114.314 130.34 114.312H149.031L148.601 113.569C148.535 113.455 148.441 113.362 148.328 113.296C148.215 113.231 148.087 113.197 147.956 113.197H129.224C129.092 113.195 128.962 113.229 128.847 113.294C128.732 113.36 128.637 113.454 128.571 113.569L119.205 129.783C119.139 129.896 119.105 130.024 119.105 130.155C119.105 130.285 119.139 130.413 119.205 130.526L128.571 146.741C128.637 146.855 128.732 146.95 128.847 147.015C128.962 147.08 129.092 147.114 129.224 147.112H129.265L120.329 131.65Z" fill="#18181E"/>
<path d="M179.824 131.584H161.092C160.96 131.583 160.83 131.617 160.715 131.682C160.601 131.748 160.505 131.842 160.439 131.955L151.073 148.162C151.007 148.276 150.973 148.406 150.973 148.537C150.973 148.669 151.007 148.799 151.073 148.913L160.48 165.119C160.546 165.234 160.641 165.329 160.756 165.396C160.871 165.463 161.001 165.498 161.133 165.499H179.824C179.955 165.498 180.084 165.462 180.197 165.395C180.31 165.329 180.404 165.233 180.469 165.119L189.835 148.913C189.904 148.8 189.94 148.67 189.94 148.537C189.94 148.405 189.904 148.275 189.835 148.162L180.469 131.955C180.403 131.842 180.309 131.748 180.196 131.683C180.083 131.618 179.955 131.584 179.824 131.584Z" fill="#18181E"/>
<path d="M152.213 150.028C152.148 149.915 152.114 149.787 152.114 149.657C152.114 149.526 152.148 149.398 152.213 149.285L161.579 133.071C161.645 132.957 161.739 132.864 161.852 132.798C161.965 132.733 162.094 132.699 162.224 132.699H180.899L180.469 131.955C180.403 131.842 180.309 131.748 180.196 131.683C180.083 131.618 179.955 131.584 179.824 131.584H161.092C160.96 131.583 160.83 131.617 160.715 131.682C160.601 131.748 160.505 131.842 160.439 131.955L151.073 148.162C151.007 148.276 150.973 148.406 150.973 148.537C150.973 148.669 151.007 148.799 151.073 148.913L160.48 165.119C160.546 165.234 160.641 165.329 160.756 165.396C160.871 165.463 161.001 165.498 161.133 165.499L152.213 150.028Z" fill="#18181E"/>
<path d="M211.733 149.962H192.96C192.828 149.964 192.7 150 192.587 150.066C192.474 150.133 192.38 150.228 192.315 150.342L182.949 166.548C182.88 166.662 182.844 166.792 182.844 166.924C182.844 167.057 182.88 167.187 182.949 167.3L192.315 183.506C192.38 183.619 192.474 183.713 192.587 183.778C192.701 183.843 192.829 183.878 192.96 183.878H211.733C211.864 183.878 211.992 183.843 212.106 183.778C212.219 183.713 212.313 183.619 212.378 183.506L221.753 167.3C221.818 167.185 221.852 167.056 221.852 166.924C221.852 166.792 221.818 166.663 221.753 166.548L212.378 150.342C212.313 150.228 212.22 150.133 212.106 150.066C211.993 150 211.865 149.964 211.733 149.962Z" fill="#18181E"/>
<path d="M184.065 168.415C183.999 168.302 183.965 168.174 183.965 168.043C183.965 167.913 183.999 167.785 184.065 167.672L193.431 151.457C193.497 151.343 193.592 151.248 193.707 151.183C193.822 151.118 193.952 151.084 194.084 151.086H212.775L212.337 150.342C212.272 150.228 212.178 150.133 212.065 150.066C211.952 150 211.823 149.964 211.692 149.962H192.96C192.828 149.964 192.7 150 192.587 150.066C192.474 150.133 192.38 150.228 192.315 150.342L182.949 166.548C182.88 166.662 182.844 166.792 182.844 166.924C182.844 167.057 182.88 167.187 182.949 167.3L192.315 183.506C192.38 183.619 192.474 183.713 192.587 183.778C192.701 183.843 192.829 183.878 192.96 183.878L184.065 168.415Z" fill="#18181E"/>
<path d="M20.4758 76.4233H1.76004C1.62936 76.4233 1.50096 76.4576 1.38777 76.5228C1.27458 76.5881 1.18058 76.682 1.11524 76.795L-8.27569 93.0094C-8.34099 93.1224 -8.37537 93.2506 -8.37537 93.3811C-8.37537 93.5116 -8.34099 93.6398 -8.27569 93.7528L1.09871 109.967C1.16405 110.08 1.25805 110.174 1.37124 110.239C1.48443 110.305 1.61283 110.339 1.74351 110.339H20.4758C20.6065 110.339 20.7349 110.305 20.848 110.239C20.9612 110.174 21.0552 110.08 21.1206 109.967L30.495 93.728C30.5603 93.615 30.5947 93.4868 30.5947 93.3563C30.5947 93.2258 30.5603 93.0976 30.495 92.9846L21.1206 76.795C21.0552 76.682 20.9612 76.5881 20.848 76.5228C20.7349 76.4576 20.6065 76.4233 20.4758 76.4233Z" fill="#18181E"/>
<path d="M-7.15142 94.8762C-7.21672 94.7632 -7.2511 94.635 -7.2511 94.5045C-7.2511 94.374 -7.21672 94.2458 -7.15142 94.1328L2.21471 77.9184C2.28005 77.8053 2.37405 77.7114 2.48724 77.6462C2.60043 77.5809 2.72883 77.5466 2.85951 77.5467H21.6L21.1619 76.795C21.0966 76.682 21.0026 76.5881 20.8894 76.5228C20.7762 76.4576 20.6478 76.4233 20.5171 76.4233H1.76004C1.62936 76.4233 1.50096 76.4576 1.38777 76.5228C1.27458 76.5881 1.18058 76.682 1.11524 76.795L-8.27569 93.0094C-8.34099 93.1224 -8.37537 93.2506 -8.37537 93.3811C-8.37537 93.5116 -8.34099 93.6398 -8.27569 93.7528L1.09871 109.967C1.16405 110.08 1.25805 110.174 1.37124 110.239C1.48443 110.305 1.61283 110.339 1.74351 110.339H1.76004L-7.15142 94.8762Z" fill="#18181E"/>
<path d="M52.3437 94.8101H33.6115C33.4808 94.81 33.3524 94.8443 33.2392 94.9096C33.126 94.9748 33.032 95.0687 32.9667 95.1818L23.6005 111.396C23.5352 111.509 23.5009 111.637 23.5009 111.768C23.5009 111.898 23.5352 112.027 23.6005 112.14L32.9667 128.354C33.032 128.467 33.126 128.561 33.2392 128.626C33.3524 128.691 33.4808 128.726 33.6115 128.726H52.3437C52.4756 128.726 52.6054 128.692 52.72 128.627C52.8347 128.562 52.9301 128.468 52.9968 128.354L62.3629 112.14C62.4282 112.027 62.4626 111.898 62.4626 111.768C62.4626 111.637 62.4282 111.509 62.3629 111.396L53.0133 95.1818C52.9453 95.0656 52.8472 94.9698 52.7294 94.9044C52.6116 94.839 52.4784 94.8064 52.3437 94.8101Z" fill="#18181E"/>
<path d="M24.7165 113.263C24.6513 113.149 24.617 113.019 24.617 112.887C24.617 112.756 24.6513 112.626 24.7165 112.512L34.0827 96.3054C34.1493 96.1916 34.2448 96.0974 34.3594 96.0322C34.474 95.967 34.6038 95.933 34.7357 95.9337H53.4267L52.9968 95.182C52.9301 95.0683 52.8347 94.9741 52.7201 94.9088C52.6054 94.8436 52.4757 94.8096 52.3437 94.8103H33.6115C33.4808 94.8102 33.3524 94.8445 33.2392 94.9098C33.126 94.975 33.032 95.0689 32.9667 95.182L23.6005 111.396C23.5352 111.509 23.5009 111.638 23.5009 111.768C23.5009 111.899 23.5352 112.027 23.6005 112.14L32.9667 128.354C33.032 128.467 33.126 128.561 33.2392 128.626C33.3524 128.692 33.4808 128.726 33.6115 128.726L24.7165 113.263Z" fill="#18181E"/>
<path d="M84.2118 113.197H65.4795C65.3488 113.197 65.2204 113.231 65.1072 113.296C64.994 113.362 64.9 113.456 64.8347 113.569L55.4934 129.783C55.4281 129.896 55.3937 130.024 55.3937 130.155C55.3937 130.285 55.4281 130.413 55.4934 130.526L64.8595 146.741C64.9248 146.854 65.0188 146.948 65.132 147.013C65.2452 147.078 65.3736 147.113 65.5043 147.113H84.2366C84.3686 147.114 84.4987 147.08 84.6135 147.015C84.7283 146.95 84.8236 146.855 84.8896 146.741L94.2558 130.526C94.3211 130.413 94.3554 130.285 94.3554 130.155C94.3554 130.024 94.3211 129.896 94.2558 129.783L84.8648 113.552C84.7967 113.441 84.7005 113.35 84.5859 113.287C84.4712 113.225 84.3422 113.194 84.2118 113.197Z" fill="#18181E"/>
<path d="M56.5846 131.65C56.5193 131.535 56.485 131.406 56.485 131.274C56.485 131.142 56.5193 131.013 56.5846 130.898L65.959 114.692C66.0239 114.578 66.1176 114.483 66.2307 114.416C66.3438 114.349 66.4724 114.314 66.6038 114.312H85.2947L84.8648 113.569C84.7988 113.454 84.7035 113.36 84.5887 113.294C84.4739 113.229 84.3438 113.195 84.2118 113.197H65.4795C65.3488 113.197 65.2204 113.231 65.1072 113.296C64.994 113.362 64.9 113.455 64.8347 113.569L55.4934 129.783C55.4281 129.896 55.3937 130.024 55.3937 130.155C55.3937 130.285 55.4281 130.413 55.4934 130.526L64.8595 146.741C64.9248 146.854 65.0188 146.948 65.132 147.013C65.2452 147.078 65.3736 147.112 65.5043 147.112L56.5846 131.65Z" fill="#18181E"/>
<path d="M116.088 131.584H97.3475C97.2168 131.584 97.0884 131.618 96.9752 131.683C96.862 131.748 96.7681 131.842 96.7027 131.955L87.3366 148.162C87.2714 148.276 87.2371 148.406 87.2371 148.537C87.2371 148.669 87.2714 148.799 87.3366 148.913L96.7027 165.119C96.7677 165.233 96.8613 165.328 96.9745 165.395C97.0876 165.462 97.2162 165.498 97.3475 165.499H116.088C116.219 165.498 116.348 165.462 116.461 165.395C116.574 165.328 116.668 165.233 116.733 165.119L126.099 148.913C126.164 148.799 126.199 148.669 126.199 148.537C126.199 148.406 126.164 148.276 126.099 148.162L116.733 131.955C116.668 131.842 116.574 131.748 116.46 131.683C116.347 131.618 116.219 131.584 116.088 131.584Z" fill="#18181E"/>
<path d="M88.4609 150.028C88.3921 149.916 88.3558 149.788 88.3558 149.657C88.3558 149.525 88.3921 149.397 88.4609 149.285L97.827 133.071C97.8923 132.957 97.9863 132.864 98.0995 132.798C98.2127 132.733 98.3411 132.699 98.4718 132.699H117.163L116.733 131.955C116.668 131.842 116.574 131.748 116.46 131.683C116.347 131.618 116.219 131.584 116.088 131.584H97.3475C97.2168 131.584 97.0884 131.618 96.9752 131.683C96.862 131.748 96.7681 131.842 96.7027 131.955L87.3366 148.162C87.2714 148.276 87.2371 148.406 87.2371 148.537C87.2371 148.669 87.2714 148.799 87.3366 148.913L96.7027 165.119C96.7677 165.233 96.8613 165.328 96.9745 165.395C97.0876 165.462 97.2162 165.498 97.3475 165.499H97.3971L88.4609 150.028Z" fill="#18181E"/>
<path d="M147.956 149.962H129.224C129.091 149.962 128.961 149.998 128.846 150.064C128.731 150.131 128.636 150.227 128.571 150.342L119.205 166.548C119.139 166.663 119.105 166.792 119.105 166.924C119.105 167.056 119.139 167.186 119.205 167.3L128.571 183.506C128.637 183.62 128.732 183.715 128.847 183.78C128.962 183.846 129.092 183.879 129.224 183.878H147.956C148.087 183.878 148.215 183.844 148.328 183.778C148.441 183.713 148.535 183.619 148.601 183.506L158 167.3C158.065 167.186 158.099 167.056 158.099 166.924C158.099 166.792 158.065 166.663 158 166.548L148.634 150.342C148.566 150.223 148.467 150.125 148.348 150.058C148.228 149.991 148.093 149.958 147.956 149.962Z" fill="#18181E"/>
<path d="M120.329 168.415C120.263 168.302 120.229 168.174 120.229 168.043C120.229 167.913 120.263 167.785 120.329 167.672L129.695 151.457C129.76 151.344 129.854 151.25 129.967 151.185C130.081 151.12 130.209 151.085 130.34 151.086H149.031L148.601 150.342C148.536 150.228 148.442 150.133 148.329 150.066C148.216 150 148.087 149.964 147.956 149.962H129.224C129.091 149.962 128.961 149.998 128.846 150.064C128.731 150.131 128.636 150.227 128.571 150.342L119.205 166.548C119.139 166.663 119.105 166.792 119.105 166.924C119.105 167.056 119.139 167.185 119.205 167.3L128.571 183.506C128.637 183.62 128.732 183.715 128.847 183.78C128.962 183.846 129.092 183.879 129.224 183.878H129.265L120.329 168.415Z" fill="#18181E"/>
<path d="M179.824 168.349H161.092C160.96 168.348 160.83 168.382 160.715 168.447C160.601 168.513 160.505 168.607 160.439 168.721L151.073 184.935C151.007 185.048 150.973 185.176 150.973 185.307C150.973 185.437 151.007 185.565 151.073 185.678L160.48 201.934C160.547 202.048 160.642 202.142 160.757 202.207C160.871 202.272 161.001 202.306 161.133 202.306H179.824C179.955 202.306 180.083 202.272 180.196 202.206C180.31 202.141 180.403 202.047 180.469 201.934L189.835 185.72C189.904 185.608 189.94 185.479 189.94 185.348C189.94 185.217 189.904 185.088 189.835 184.976L180.469 168.762C180.409 168.641 180.317 168.539 180.204 168.466C180.09 168.393 179.959 168.353 179.824 168.349Z" fill="#18181E"/>
<path d="M152.213 186.802C152.148 186.689 152.114 186.561 152.114 186.43C152.114 186.3 152.148 186.171 152.213 186.058L161.58 169.844C161.645 169.731 161.739 169.637 161.852 169.572C161.965 169.506 162.094 169.472 162.224 169.472H180.899L180.469 168.721C180.404 168.608 180.31 168.514 180.196 168.448C180.083 168.383 179.955 168.349 179.824 168.349H161.092C160.96 168.348 160.83 168.382 160.715 168.447C160.601 168.513 160.505 168.607 160.439 168.721L151.073 184.935C151.007 185.048 150.973 185.176 150.973 185.307C150.973 185.437 151.007 185.565 151.073 185.678L160.48 201.934C160.547 202.048 160.642 202.142 160.757 202.207C160.871 202.272 161.001 202.306 161.133 202.306L152.213 186.802Z" fill="#18181E"/>
<path d="M211.733 186.736H192.96C192.829 186.736 192.701 186.77 192.587 186.835C192.474 186.901 192.38 186.994 192.315 187.108L182.949 203.322C182.88 203.434 182.844 203.562 182.844 203.694C182.844 203.825 182.88 203.953 182.949 204.065L192.315 220.28C192.38 220.393 192.474 220.487 192.587 220.552C192.701 220.617 192.829 220.651 192.96 220.651H211.733C211.864 220.651 211.992 220.617 212.106 220.552C212.219 220.487 212.313 220.393 212.378 220.28L221.753 204.065C221.818 203.952 221.852 203.824 221.852 203.694C221.852 203.563 221.818 203.435 221.753 203.322L212.378 187.108C212.313 186.994 212.219 186.901 212.106 186.835C211.992 186.77 211.864 186.736 211.733 186.736Z" fill="#18181E"/>
<path d="M184.065 205.189C184 205.074 183.965 204.945 183.965 204.813C183.965 204.681 184 204.552 184.065 204.437L193.431 188.231C193.497 188.116 193.592 188.02 193.706 187.953C193.821 187.886 193.951 187.851 194.084 187.851H212.775L212.337 187.108C212.272 186.994 212.178 186.901 212.064 186.835C211.951 186.77 211.823 186.736 211.692 186.736H192.96C192.829 186.736 192.701 186.77 192.587 186.835C192.474 186.901 192.38 186.994 192.315 187.108L182.949 203.322C182.88 203.434 182.844 203.562 182.844 203.694C182.844 203.825 182.88 203.953 182.949 204.065L192.315 220.28C192.38 220.393 192.474 220.487 192.587 220.552C192.701 220.617 192.829 220.651 192.96 220.651L184.065 205.189Z" fill="#18181E"/>
<path d="M20.4758 113.197H1.76004C1.62936 113.197 1.50096 113.231 1.38777 113.296C1.27458 113.362 1.18058 113.455 1.11524 113.569L-8.27569 129.783C-8.34099 129.896 -8.37537 130.024 -8.37537 130.155C-8.37537 130.285 -8.34099 130.413 -8.27569 130.526L1.09871 146.741C1.16405 146.854 1.25805 146.948 1.37124 147.013C1.48443 147.078 1.61283 147.112 1.74351 147.112H20.4758C20.6065 147.112 20.7349 147.078 20.848 147.013C20.9612 146.948 21.0552 146.854 21.1206 146.741L30.495 130.526C30.5603 130.413 30.5947 130.285 30.5947 130.155C30.5947 130.024 30.5603 129.896 30.495 129.783L21.1206 113.552C21.0532 113.442 20.9583 113.351 20.8452 113.289C20.7322 113.227 20.6049 113.195 20.4758 113.197Z" fill="#18181E"/>
<path d="M-7.15142 131.65C-7.21665 131.535 -7.25095 131.406 -7.25095 131.274C-7.25095 131.142 -7.21665 131.013 -7.15142 130.898L2.21471 114.692C2.27964 114.578 2.37333 114.483 2.48645 114.416C2.59957 114.35 2.72819 114.314 2.85951 114.312H21.6L21.1619 113.569C21.0966 113.456 21.0026 113.362 20.8894 113.296C20.7762 113.231 20.6478 113.197 20.5171 113.197H1.76004C1.62936 113.197 1.50096 113.231 1.38777 113.296C1.27458 113.362 1.18058 113.456 1.11524 113.569L-8.27569 129.783C-8.34099 129.896 -8.37537 130.024 -8.37537 130.155C-8.37537 130.285 -8.34099 130.413 -8.27569 130.526L1.09871 146.741C1.16405 146.854 1.25805 146.948 1.37124 147.013C1.48443 147.078 1.61283 147.113 1.74351 147.113H1.76004L-7.15142 131.65Z" fill="#18181E"/>
<path d="M52.3438 131.584H33.6115C33.4808 131.583 33.3524 131.618 33.2392 131.683C33.126 131.748 33.032 131.842 32.9667 131.955L23.6006 148.161C23.5353 148.276 23.501 148.405 23.501 148.537C23.501 148.669 23.5353 148.798 23.6006 148.913L32.9667 165.119C33.0316 165.233 33.1253 165.328 33.2384 165.395C33.3516 165.462 33.4802 165.498 33.6115 165.499H52.3438C52.4763 165.498 52.6063 165.463 52.7209 165.396C52.8354 165.329 52.9306 165.234 52.9968 165.119L62.363 148.913C62.4282 148.798 62.4625 148.669 62.4625 148.537C62.4625 148.405 62.4282 148.276 62.363 148.161L53.0134 131.955C52.9453 131.839 52.8472 131.743 52.7295 131.678C52.6117 131.612 52.4785 131.58 52.3438 131.584Z" fill="#18181E"/>
<path d="M24.7166 150.028C24.6513 149.915 24.6169 149.787 24.6169 149.657C24.6169 149.526 24.6513 149.398 24.7166 149.285L34.0827 133.071C34.1494 132.957 34.2448 132.863 34.3594 132.797C34.4741 132.732 34.6038 132.698 34.7358 132.699H53.4267L52.9968 131.955C52.9301 131.842 52.8347 131.748 52.7201 131.682C52.6055 131.617 52.4757 131.583 52.3438 131.584H33.6115C33.4808 131.584 33.3524 131.618 33.2392 131.683C33.126 131.748 33.032 131.842 32.9667 131.955L23.6006 148.162C23.5353 148.276 23.501 148.406 23.501 148.537C23.501 148.669 23.5353 148.799 23.6006 148.913L32.9667 165.119C33.0316 165.233 33.1253 165.329 33.2384 165.395C33.3516 165.462 33.4802 165.498 33.6115 165.499L24.7166 150.028Z" fill="#18181E"/>
<path d="M84.2117 149.962H65.4795C65.3481 149.964 65.2195 150 65.1064 150.066C64.9933 150.133 64.8996 150.228 64.8347 150.342L55.4933 166.548C55.4281 166.663 55.3938 166.792 55.3938 166.924C55.3938 167.056 55.4281 167.186 55.4933 167.3L64.8595 183.506C64.9248 183.619 65.0188 183.713 65.132 183.778C65.2452 183.844 65.3736 183.878 65.5043 183.878H84.2365C84.3686 183.879 84.4987 183.846 84.6135 183.78C84.7283 183.715 84.8236 183.62 84.8896 183.506L94.2557 167.3C94.3209 167.186 94.3552 167.056 94.3552 166.924C94.3552 166.792 94.3209 166.663 94.2557 166.548L84.8896 150.342C84.8219 150.223 84.723 150.125 84.6036 150.058C84.4841 149.991 84.3486 149.958 84.2117 149.962Z" fill="#18181E"/>
<path d="M56.5845 168.415C56.5192 168.302 56.4848 168.174 56.4848 168.043C56.4848 167.913 56.5192 167.785 56.5845 167.672L65.9589 151.457C66.0243 151.344 66.1183 151.25 66.2314 151.185C66.3446 151.12 66.473 151.085 66.6037 151.086H85.2947L84.8648 150.342C84.7992 150.227 84.7042 150.131 84.5895 150.064C84.4748 149.998 84.3445 149.962 84.2117 149.962H65.4795C65.3481 149.964 65.2195 150 65.1064 150.066C64.9933 150.133 64.8996 150.228 64.8347 150.342L55.4933 166.548C55.4281 166.663 55.3938 166.792 55.3938 166.924C55.3938 167.056 55.4281 167.185 55.4933 167.3L64.8595 183.506C64.9248 183.619 65.0188 183.713 65.132 183.778C65.2452 183.843 65.3736 183.878 65.5043 183.878L56.5845 168.415Z" fill="#18181E"/>
<path d="M116.088 168.349H97.3475C97.2168 168.349 97.0884 168.383 96.9752 168.448C96.862 168.514 96.768 168.607 96.7027 168.721L87.3366 184.935C87.2713 185.048 87.2369 185.176 87.2369 185.307C87.2369 185.437 87.2713 185.565 87.3366 185.678L96.7027 201.934C96.768 202.047 96.862 202.141 96.9752 202.206C97.0884 202.272 97.2168 202.306 97.3475 202.306H116.088C116.219 202.306 116.347 202.272 116.46 202.206C116.573 202.141 116.667 202.047 116.733 201.934L126.099 185.72C126.164 185.607 126.199 185.478 126.199 185.348C126.199 185.217 126.164 185.089 126.099 184.976L116.733 168.762C116.673 168.641 116.581 168.539 116.468 168.466C116.354 168.393 116.223 168.353 116.088 168.349Z" fill="#18181E"/>
<path d="M88.4608 186.802C88.3921 186.69 88.3557 186.561 88.3557 186.43C88.3557 186.299 88.3921 186.17 88.4608 186.058L97.827 169.844C97.8923 169.731 97.9863 169.637 98.0995 169.572C98.2127 169.506 98.3411 169.472 98.4718 169.472H117.163L116.733 168.721C116.667 168.607 116.573 168.514 116.46 168.448C116.347 168.383 116.219 168.349 116.088 168.349H97.3475C97.2168 168.349 97.0884 168.383 96.9752 168.448C96.862 168.514 96.768 168.607 96.7027 168.721L87.3366 184.935C87.2713 185.048 87.2369 185.176 87.2369 185.307C87.2369 185.437 87.2713 185.565 87.3366 185.678L96.7027 201.934C96.768 202.047 96.862 202.141 96.9752 202.206C97.0884 202.272 97.2168 202.306 97.3475 202.306H97.3971L88.4608 186.802Z" fill="#18181E"/>
<path d="M147.956 186.736H129.224C129.092 186.734 128.962 186.768 128.847 186.833C128.732 186.898 128.637 186.993 128.571 187.107L119.205 203.322C119.139 203.435 119.105 203.563 119.105 203.693C119.105 203.824 119.139 203.952 119.205 204.065L128.571 220.279C128.637 220.394 128.732 220.488 128.847 220.554C128.962 220.619 129.092 220.653 129.224 220.651H147.956C148.087 220.651 148.215 220.617 148.328 220.552C148.441 220.486 148.535 220.393 148.601 220.279L158 204.065C158.065 203.952 158.1 203.824 158.1 203.693C158.1 203.563 158.065 203.435 158 203.322L148.634 187.107C148.566 186.989 148.467 186.892 148.347 186.827C148.228 186.761 148.092 186.73 147.956 186.736Z" fill="#18181E"/>
<path d="M120.329 205.188C120.264 205.074 120.229 204.944 120.229 204.813C120.229 204.681 120.264 204.551 120.329 204.437L129.695 188.231C129.76 188.117 129.854 188.022 129.967 187.955C130.08 187.888 130.208 187.852 130.34 187.851H149.031L148.601 187.107C148.535 186.994 148.441 186.9 148.328 186.835C148.215 186.77 148.087 186.736 147.956 186.736H129.224C129.092 186.734 128.962 186.768 128.847 186.833C128.732 186.898 128.637 186.993 128.571 187.107L119.205 203.322C119.139 203.435 119.105 203.563 119.105 203.693C119.105 203.824 119.139 203.952 119.205 204.065L128.571 220.279C128.637 220.394 128.732 220.488 128.847 220.554C128.962 220.619 129.092 220.653 129.224 220.651H129.265L120.329 205.188Z" fill="#18181E"/>
<path d="M20.4757 149.962H1.76001C1.62869 149.964 1.50008 150 1.38696 150.066C1.27383 150.133 1.18015 150.228 1.11521 150.342L-8.27572 166.548C-8.34095 166.663 -8.37524 166.792 -8.37524 166.924C-8.37524 167.056 -8.34095 167.185 -8.27572 167.3L1.09868 183.506C1.16402 183.619 1.25802 183.713 1.37121 183.778C1.4844 183.843 1.6128 183.878 1.74348 183.878H20.4757C20.6064 183.878 20.7348 183.843 20.848 183.778C20.9612 183.713 21.0552 183.619 21.1205 183.506L30.4949 167.3C30.5602 167.185 30.5945 167.056 30.5945 166.924C30.5945 166.792 30.5602 166.663 30.4949 166.548L21.1205 150.342C21.0556 150.228 20.9619 150.133 20.8488 150.066C20.7357 150 20.6071 149.964 20.4757 149.962Z" fill="#18181E"/>
<path d="M-7.15145 168.415C-7.21675 168.302 -7.25113 168.174 -7.25113 168.043C-7.25113 167.913 -7.21675 167.785 -7.15145 167.672L2.21468 151.457C2.28002 151.344 2.37402 151.25 2.48721 151.185C2.6004 151.12 2.7288 151.085 2.85948 151.086H21.6L21.1619 150.342C21.0969 150.228 21.0033 150.133 20.8901 150.066C20.777 150 20.6484 149.964 20.5171 149.962H1.76001C1.62869 149.964 1.50008 150 1.38696 150.066C1.27383 150.133 1.18015 150.228 1.11521 150.342L-8.27572 166.548C-8.34095 166.663 -8.37524 166.792 -8.37524 166.924C-8.37524 167.056 -8.34095 167.185 -8.27572 167.3L1.09868 183.506C1.16402 183.619 1.25802 183.713 1.37121 183.778C1.4844 183.843 1.6128 183.878 1.74348 183.878H1.76001L-7.15145 168.415Z" fill="#18181E"/>
<path d="M52.3437 168.349H33.6115C33.4808 168.349 33.3524 168.383 33.2392 168.448C33.126 168.514 33.032 168.608 32.9667 168.721L23.6005 184.935C23.5352 185.048 23.5009 185.176 23.5009 185.307C23.5009 185.437 23.5352 185.565 23.6005 185.678L32.9667 201.934C33.032 202.047 33.126 202.141 33.2392 202.206C33.3524 202.272 33.4808 202.306 33.6115 202.306H52.3437C52.4784 202.309 52.6116 202.277 52.7294 202.211C52.8472 202.146 52.9453 202.05 53.0133 201.934L62.3795 185.72C62.4448 185.607 62.4791 185.478 62.4791 185.348C62.4791 185.217 62.4448 185.089 62.3795 184.976L53.0133 168.721C52.9453 168.604 52.8472 168.509 52.7294 168.443C52.6116 168.378 52.4784 168.345 52.3437 168.349Z" fill="#18181E"/>
<path d="M24.7165 186.802C24.6512 186.689 24.6169 186.561 24.6169 186.43C24.6169 186.3 24.6512 186.171 24.7165 186.058L34.0827 169.844C34.1493 169.73 34.2448 169.636 34.3594 169.571C34.474 169.506 34.6038 169.472 34.7357 169.472H53.4267L52.9968 168.721C52.9301 168.607 52.8347 168.513 52.7201 168.447C52.6054 168.382 52.4757 168.348 52.3437 168.349H33.6115C33.4808 168.349 33.3524 168.383 33.2392 168.448C33.126 168.514 33.032 168.608 32.9667 168.721L23.6005 184.935C23.5352 185.048 23.5009 185.176 23.5009 185.307C23.5009 185.437 23.5352 185.565 23.6005 185.678L32.9667 201.934C33.032 202.047 33.126 202.141 33.2392 202.206C33.3524 202.272 33.4808 202.306 33.6115 202.306L24.7165 186.802Z" fill="#18181E"/>
<path d="M84.2118 186.736H65.4795C65.3488 186.736 65.2204 186.77 65.1072 186.835C64.994 186.9 64.9 186.994 64.8347 187.107L55.4934 203.322C55.4281 203.435 55.3937 203.563 55.3937 203.693C55.3937 203.824 55.4281 203.952 55.4934 204.065L64.8595 220.279C64.9248 220.393 65.0188 220.486 65.132 220.552C65.2452 220.617 65.3736 220.651 65.5043 220.651H84.2366C84.3686 220.653 84.4987 220.619 84.6135 220.554C84.7283 220.488 84.8236 220.394 84.8896 220.279L94.2558 204.065C94.3211 203.952 94.3554 203.824 94.3554 203.693C94.3554 203.563 94.3211 203.435 94.2558 203.322L84.8896 187.107C84.8216 186.989 84.7223 186.892 84.6028 186.827C84.4833 186.761 84.348 186.73 84.2118 186.736Z" fill="#18181E"/>
<path d="M56.5846 205.188C56.5193 205.074 56.485 204.944 56.485 204.813C56.485 204.681 56.5193 204.551 56.5846 204.437L65.959 188.231C66.0239 188.117 66.1176 188.022 66.2307 187.955C66.3438 187.888 66.4724 187.852 66.6038 187.851H85.2947L84.8648 187.107C84.7988 186.993 84.7035 186.898 84.5887 186.833C84.4739 186.768 84.3438 186.734 84.2118 186.736H65.4795C65.3488 186.736 65.2204 186.77 65.1072 186.835C64.994 186.9 64.9 186.994 64.8347 187.107L55.4934 203.322C55.4281 203.435 55.3937 203.563 55.3937 203.693C55.3937 203.824 55.4281 203.952 55.4934 204.065L64.8595 220.279C64.9248 220.393 65.0188 220.486 65.132 220.552C65.2452 220.617 65.3736 220.651 65.5043 220.651L56.5846 205.188Z" fill="#18181E"/>
<path d="M20.4758 186.736H1.76004C1.62936 186.736 1.50096 186.77 1.38777 186.835C1.27458 186.901 1.18058 186.994 1.11524 187.108L-8.27569 203.322C-8.34099 203.435 -8.37537 203.563 -8.37537 203.694C-8.37537 203.824 -8.34099 203.952 -8.27569 204.065L1.09871 220.28C1.16405 220.393 1.25805 220.487 1.37124 220.552C1.48443 220.617 1.61283 220.651 1.74351 220.651H20.4758C20.6065 220.651 20.7349 220.617 20.848 220.552C20.9612 220.487 21.0552 220.393 21.1206 220.28L30.495 204.065C30.5603 203.952 30.5947 203.824 30.5947 203.694C30.5947 203.563 30.5603 203.435 30.495 203.322L21.1206 187.108C21.0552 186.994 20.9612 186.901 20.848 186.835C20.7349 186.77 20.6065 186.736 20.4758 186.736Z" fill="#18181E"/>
<path d="M-7.15142 205.189C-7.21665 205.074 -7.25095 204.945 -7.25095 204.813C-7.25095 204.681 -7.21665 204.552 -7.15142 204.437L2.21471 188.231C2.27964 188.117 2.37333 188.022 2.48645 187.955C2.59957 187.888 2.72819 187.853 2.85951 187.851H21.6L21.1619 187.108C21.0966 186.994 21.0026 186.901 20.8894 186.835C20.7762 186.77 20.6478 186.736 20.5171 186.736H1.76004C1.62936 186.736 1.50096 186.77 1.38777 186.835C1.27458 186.901 1.18058 186.994 1.11524 187.108L-8.27569 203.322C-8.34099 203.435 -8.37537 203.563 -8.37537 203.694C-8.37537 203.824 -8.34099 203.952 -8.27569 204.065L1.09871 220.28C1.16405 220.393 1.25805 220.487 1.37124 220.552C1.48443 220.617 1.61283 220.651 1.74351 220.651H1.76004L-7.15142 205.189Z" fill="#18181E"/>
</g>
</g>
<path d="M69.9301 118.962C73.0747 118.962 75.6239 116.427 75.6239 113.3C75.6239 110.173 73.0747 107.638 69.9301 107.638C66.7855 107.638 64.2363 110.173 64.2363 113.3C64.2363 116.427 66.7855 118.962 69.9301 118.962Z" fill="url(#paint1_linear_27_1053)"/>
<path fill-rule="evenodd" clip-rule="evenodd" d="M54.66 91.032C51.6411 91.032 48.8515 91.9744 46.5587 93.5856V81H40.5974V104.993C40.5974 105.001 40.5974 105.008 40.5974 105.016C40.5974 105.024 40.5974 105.031 40.5974 105.039V105.122C40.6585 112.798 46.9255 119 54.66 119C57.9158 119 60.9117 117.898 63.2962 116.051C62.937 115.208 62.746 114.273 62.746 113.3C62.746 109.781 65.2986 106.855 68.6691 106.262C68.7073 105.852 68.7226 105.434 68.7226 105.008C68.7226 97.2944 62.425 91.032 54.66 91.032ZM54.66 113.072C50.189 113.072 46.5663 109.47 46.5587 105.031V105.008C46.5663 100.562 50.189 96.96 54.66 96.96C59.1309 96.96 62.7612 100.57 62.7612 105.016C62.7612 109.462 59.1309 113.072 54.66 113.072Z" fill="white"/>
<path d="M93.9173 91.2039C94.8648 91.3796 95.6436 91.8506 96.2538 92.6171C96.864 93.3836 97.1691 94.2619 97.1691 95.2519C97.1691 96.1462 96.9443 96.9366 96.4947 97.6233C96.0611 98.294 95.4268 98.8209 94.5918 99.2042C93.7567 99.5874 92.7691 99.779 91.629 99.779H84.3787V83.0599H91.3159C92.456 83.0599 93.4356 83.2436 94.2545 83.6109C95.0896 83.9781 95.7158 84.4891 96.1334 85.1438C96.5669 85.7986 96.7837 86.5411 96.7837 87.3715C96.7837 88.3455 96.5188 89.1599 95.9888 89.8147C95.475 90.4694 94.7845 90.9324 93.9173 91.2039ZM87.7509 89.9584H90.8341C91.637 89.9584 92.2553 89.7827 92.6888 89.4314C93.1224 89.0641 93.3392 88.5451 93.3392 87.8745C93.3392 87.2038 93.1224 86.6848 92.6888 86.3175C92.2553 85.9503 91.637 85.7666 90.8341 85.7666H87.7509V89.9584ZM91.1472 97.0484C91.9662 97.0484 92.6005 96.8568 93.0502 96.4735C93.5158 96.0903 93.7487 95.5474 93.7487 94.8447C93.7487 94.1262 93.5078 93.5673 93.0261 93.168C92.5443 92.7529 91.894 92.5453 91.075 92.5453H87.7509V97.0484H91.1472Z" fill="white"/>
<path d="M101.567 84.9283C100.973 84.9283 100.475 84.7446 100.074 84.3774C99.6881 83.9941 99.4954 83.523 99.4954 82.9641C99.4954 82.4052 99.6881 81.9421 100.074 81.5749C100.475 81.1916 100.973 81 101.567 81C102.161 81 102.651 81.1916 103.036 81.5749C103.438 81.9421 103.638 82.4052 103.638 82.9641C103.638 83.523 103.438 83.9941 103.036 84.3774C102.651 84.7446 102.161 84.9283 101.567 84.9283ZM103.229 86.5092V99.779H99.8568V86.5092H103.229Z" fill="white"/>
<path d="M111.788 86.2936C112.783 86.2936 113.659 86.4932 114.413 86.8924C115.168 87.2756 115.762 87.7787 116.196 88.4014V86.5092H119.592V99.8748C119.592 101.104 119.343 102.198 118.845 103.156C118.348 104.13 117.601 104.897 116.605 105.456C115.61 106.031 114.405 106.318 112.992 106.318C111.097 106.318 109.54 105.879 108.319 105.001C107.115 104.122 106.432 102.925 106.272 101.408H109.62C109.797 102.015 110.174 102.494 110.752 102.845C111.346 103.212 112.061 103.396 112.896 103.396C113.875 103.396 114.67 103.1 115.28 102.51C115.891 101.935 116.196 101.057 116.196 99.8748V97.8149C115.762 98.4377 115.16 98.9567 114.389 99.3718C113.634 99.787 112.767 99.9946 111.788 99.9946C110.664 99.9946 109.636 99.7072 108.705 99.1323C107.773 98.5574 107.035 97.751 106.489 96.7131C105.959 95.6591 105.694 94.4535 105.694 93.0962C105.694 91.7548 105.959 90.5652 106.489 89.5272C107.035 88.4893 107.765 87.6908 108.68 87.1319C109.612 86.573 110.648 86.2936 111.788 86.2936ZM116.196 93.1441C116.196 92.3297 116.035 91.6351 115.714 91.0602C115.393 90.4694 114.959 90.0222 114.413 89.7188C113.867 89.3995 113.281 89.2398 112.655 89.2398C112.029 89.2398 111.451 89.3915 110.921 89.6949C110.391 89.9983 109.957 90.4454 109.62 91.0362C109.299 91.6111 109.138 92.2978 109.138 93.0962C109.138 93.8946 109.299 94.5972 109.62 95.204C109.957 95.7949 110.391 96.25 110.921 96.5694C111.467 96.8887 112.045 97.0484 112.655 97.0484C113.281 97.0484 113.867 96.8967 114.413 96.5933C114.959 96.2739 115.393 95.8268 115.714 95.2519C116.035 94.6611 116.196 93.9585 116.196 93.1441Z" fill="white"/>
<path d="M122.019 93.0962C122.019 91.7548 122.284 90.5652 122.813 89.5272C123.359 88.4893 124.098 87.6908 125.029 87.1319C125.961 86.573 126.997 86.2936 128.137 86.2936C129.004 86.2936 129.831 86.4852 130.618 86.8684C131.405 87.2357 132.031 87.7308 132.497 88.3535V82.0539H135.917V99.779H132.497V97.8149C132.079 98.4696 131.493 98.9966 130.738 99.3958C129.983 99.795 129.108 99.9946 128.113 99.9946C126.989 99.9946 125.961 99.7072 125.029 99.1323C124.098 98.5574 123.359 97.751 122.813 96.7131C122.284 95.6591 122.019 94.4535 122.019 93.0962ZM132.521 93.1441C132.521 92.3297 132.36 91.6351 132.039 91.0602C131.718 90.4694 131.284 90.0222 130.738 89.7188C130.192 89.3995 129.606 89.2398 128.98 89.2398C128.354 89.2398 127.775 89.3915 127.246 89.6949C126.716 89.9983 126.282 90.4454 125.945 91.0362C125.624 91.6111 125.463 92.2978 125.463 93.0962C125.463 93.8946 125.624 94.5972 125.945 95.204C126.282 95.7949 126.716 96.25 127.246 96.5694C127.792 96.8887 128.37 97.0484 128.98 97.0484C129.606 97.0484 130.192 96.8967 130.738 96.5933C131.284 96.2739 131.718 95.8268 132.039 95.2519C132.36 94.6611 132.521 93.9585 132.521 93.1441Z" fill="white"/>
<path d="M145.136 99.9946C143.851 99.9946 142.695 99.7152 141.668 99.1563C140.64 98.5814 139.829 97.775 139.235 96.737C138.657 95.6991 138.368 94.5014 138.368 93.1441C138.368 91.7868 138.665 90.5891 139.259 89.5512C139.869 88.5132 140.696 87.7148 141.74 87.1559C142.784 86.581 143.948 86.2936 145.233 86.2936C146.517 86.2936 147.681 86.581 148.725 87.1559C149.769 87.7148 150.588 88.5132 151.182 89.5512C151.792 90.5891 152.097 91.7868 152.097 93.1441C152.097 94.5014 151.784 95.6991 151.158 96.737C150.548 97.775 149.713 98.5814 148.653 99.1563C147.609 99.7152 146.437 99.9946 145.136 99.9946ZM145.136 97.0724C145.746 97.0724 146.316 96.9286 146.846 96.6412C147.392 96.3378 147.826 95.8907 148.147 95.2999C148.468 94.709 148.629 93.9904 148.629 93.1441C148.629 91.8826 148.292 90.9165 147.617 90.2458C146.959 89.5592 146.148 89.2158 145.184 89.2158C144.221 89.2158 143.41 89.5592 142.751 90.2458C142.109 90.9165 141.788 91.8826 141.788 93.1441C141.788 94.4056 142.101 95.3797 142.727 96.0663C143.37 96.737 144.173 97.0724 145.136 97.0724Z" fill="white"/>
<path d="M158.497 89.2637V95.6831C158.497 96.1302 158.602 96.4576 158.811 96.6652C159.035 96.8568 159.405 96.9526 159.919 96.9526H161.484V99.779H159.365C156.522 99.779 155.101 98.4057 155.101 95.6591V89.2637H153.511V86.5092H155.101V83.2276H158.497V86.5092H161.484V89.2637H158.497Z" fill="white"/>
<path d="M86.5968 113.098C87.2375 113.098 87.7912 113.218 88.2577 113.459C88.7298 113.693 89.0895 114.031 89.3368 114.473C89.5897 114.914 89.7161 115.434 89.7161 116.032C89.7161 116.63 89.5897 117.15 89.3368 117.592C89.0895 118.028 88.7298 118.363 88.2577 118.598C87.7912 118.827 87.2375 118.941 86.5968 118.941H84.7674V113.098H86.5968ZM86.5968 118.313C87.3556 118.313 87.9345 118.114 88.3335 117.717C88.7326 117.315 88.9321 116.753 88.9321 116.032C88.9321 115.306 88.7298 114.738 88.3251 114.33C87.926 113.922 87.35 113.718 86.5968 113.718H85.5346V118.313H86.5968Z" fill="white"/>
<path d="M98.4927 113.718V115.672H100.634V116.301H98.4927V118.313H100.887V118.941H97.7255V113.09H100.887V113.718H98.4927Z" fill="white"/>
<path d="M110.908 119C110.521 119 110.172 118.933 109.863 118.799C109.56 118.659 109.321 118.469 109.146 118.229C108.972 117.983 108.882 117.701 108.877 117.382H109.694C109.723 117.656 109.835 117.888 110.032 118.078C110.234 118.262 110.526 118.354 110.908 118.354C111.274 118.354 111.56 118.265 111.768 118.086C111.982 117.902 112.089 117.667 112.089 117.382C112.089 117.158 112.027 116.977 111.903 116.837C111.78 116.697 111.625 116.591 111.44 116.518C111.254 116.446 111.004 116.368 110.689 116.284C110.301 116.183 109.989 116.083 109.753 115.982C109.523 115.881 109.323 115.725 109.155 115.512C108.992 115.294 108.91 115.004 108.91 114.641C108.91 114.322 108.992 114.04 109.155 113.794C109.318 113.548 109.545 113.358 109.838 113.224C110.136 113.09 110.476 113.023 110.858 113.023C111.409 113.023 111.858 113.159 112.207 113.433C112.561 113.707 112.76 114.071 112.805 114.523H111.962C111.934 114.3 111.816 114.104 111.608 113.936C111.4 113.763 111.125 113.676 110.782 113.676C110.462 113.676 110.2 113.76 109.998 113.928C109.796 114.09 109.694 114.319 109.694 114.615C109.694 114.828 109.753 115.001 109.871 115.135C109.995 115.269 110.144 115.373 110.318 115.445C110.498 115.512 110.748 115.591 111.069 115.68C111.456 115.786 111.768 115.893 112.004 115.999C112.24 116.099 112.443 116.259 112.611 116.477C112.78 116.689 112.864 116.98 112.864 117.348C112.864 117.633 112.788 117.902 112.637 118.153C112.485 118.405 112.26 118.609 111.962 118.765C111.664 118.922 111.313 119 110.908 119Z" fill="white"/>
<path d="M121.758 113.098V118.941H120.991V113.098H121.758Z" fill="white"/>
<path d="M134.514 114.791C134.351 114.451 134.115 114.188 133.806 114.003C133.497 113.813 133.137 113.718 132.727 113.718C132.317 113.718 131.946 113.813 131.614 114.003C131.288 114.188 131.03 114.456 130.838 114.808C130.653 115.155 130.56 115.557 130.56 116.015C130.56 116.474 130.653 116.876 130.838 117.223C131.03 117.569 131.288 117.837 131.614 118.028C131.946 118.212 132.317 118.304 132.727 118.304C133.3 118.304 133.772 118.134 134.143 117.793C134.514 117.452 134.731 116.991 134.792 116.41H132.449V115.789H135.61V116.376C135.565 116.857 135.413 117.298 135.155 117.701C134.896 118.097 134.556 118.413 134.135 118.648C133.713 118.877 133.244 118.992 132.727 118.992C132.182 118.992 131.684 118.866 131.235 118.614C130.785 118.357 130.428 118.002 130.164 117.55C129.905 117.097 129.776 116.586 129.776 116.015C129.776 115.445 129.905 114.934 130.164 114.481C130.428 114.023 130.785 113.668 131.235 113.417C131.684 113.159 132.182 113.031 132.727 113.031C133.351 113.031 133.902 113.185 134.379 113.492C134.863 113.799 135.214 114.233 135.433 114.791H134.514Z" fill="white"/>
<path d="M148.242 118.941H147.475L144.389 114.288V118.941H143.622V113.09H144.389L147.475 117.734V113.09H148.242V118.941Z" fill="white"/>
<path d="M158.41 119C158.023 119 157.674 118.933 157.365 118.799C157.061 118.659 156.823 118.469 156.648 118.229C156.474 117.983 156.384 117.701 156.379 117.382H157.196C157.224 117.656 157.337 117.888 157.534 118.078C157.736 118.262 158.028 118.354 158.41 118.354C158.776 118.354 159.062 118.265 159.27 118.086C159.484 117.902 159.591 117.667 159.591 117.382C159.591 117.158 159.529 116.977 159.405 116.837C159.282 116.697 159.127 116.591 158.941 116.518C158.756 116.446 158.506 116.368 158.191 116.284C157.803 116.183 157.491 116.083 157.255 115.982C157.025 115.881 156.825 115.725 156.657 115.512C156.494 115.294 156.412 115.004 156.412 114.641C156.412 114.322 156.494 114.04 156.657 113.794C156.82 113.548 157.047 113.358 157.34 113.224C157.638 113.09 157.978 113.023 158.36 113.023C158.911 113.023 159.36 113.159 159.709 113.433C160.063 113.707 160.262 114.071 160.307 114.523H159.464C159.436 114.3 159.318 114.104 159.11 113.936C158.902 113.763 158.627 113.676 158.284 113.676C157.964 113.676 157.702 113.76 157.5 113.928C157.298 114.09 157.196 114.319 157.196 114.615C157.196 114.828 157.255 115.001 157.373 115.135C157.497 115.269 157.646 115.373 157.82 115.445C158 115.512 158.25 115.591 158.571 115.68C158.958 115.786 159.27 115.893 159.506 115.999C159.742 116.099 159.945 116.259 160.113 116.477C160.282 116.689 160.366 116.98 160.366 117.348C160.366 117.633 160.29 117.902 160.139 118.153C159.987 118.405 159.762 118.609 159.464 118.765C159.166 118.922 158.815 119 158.41 119Z" fill="white"/>
</g>
<defs>
<filter id="filter0_f_27_1053" x="-239.747" y="-281.609" width="1057.2" height="906.124" filterUnits="userSpaceOnUse" color-interpolation-filters="sRGB">
<feFlood flood-opacity="0" result="BackgroundImageFix"/>
<feBlend mode="normal" in="SourceGraphic" in2="BackgroundImageFix" result="shape"/>
<feGaussianBlur stdDeviation="60" result="effect1_foregroundBlur_27_1053"/>
</filter>
<radialGradient id="paint0_radial_27_1053" cx="0" cy="0" r="1" gradientUnits="userSpaceOnUse" gradientTransform="translate(614 668.5) rotate(-125.166) scale(931.512 894.995)">
<stop stop-color="#D9D9D9"/>
<stop offset="0.850625" stop-color="#D9D9D9" stop-opacity="0"/>
</radialGradient>
<linearGradient id="paint1_linear_27_1053" x1="73.5849" y1="117.636" x2="61.9891" y2="103.739" gradientUnits="userSpaceOnUse">
<stop offset="4.52862e-07" stop-color="#8F00FF"/>
<stop offset="0.1399" stop-color="#9C1DFF" stop-opacity="0.8601"/>
<stop offset="0.4446" stop-color="#BD69FF" stop-opacity="0.5554"/>
<stop offset="0.8881" stop-color="#F1E0FF" stop-opacity="0.1119"/>
<stop offset="1" stop-color="white" stop-opacity="0"/>
</linearGradient>
<clipPath id="clip0_27_1053">
<rect width="200" height="200" rx="100" fill="white"/>
</clipPath>
<clipPath id="clip1_27_1053">
<rect width="620" height="413" fill="white" transform="translate(-28 -12)"/>
</clipPath>
</defs>
</svg>
