<svg width="200" height="200" viewBox="0 0 200 200" fill="none" xmlns="http://www.w3.org/2000/svg">
<g clip-path="url(#clip0_1216_858)">
<mask id="mask0_1216_858" style="mask-type:luminance" maskUnits="userSpaceOnUse" x="0" y="0" width="200" height="200">
<path d="M200 100C200 44.7715 155.228 0 100 0C44.7715 0 0 44.7715 0 100C0 155.228 44.7715 200 100 200C155.228 200 200 155.228 200 100Z" fill="white"/>
</mask>
<g mask="url(#mask0_1216_858)">
<path d="M200 100C200 44.7715 155.228 0 100 0C44.7715 0 0 44.7715 0 100C0 155.228 44.7715 200 100 200C155.228 200 200 155.228 200 100Z" fill="#18181E"/>
<path fill-rule="evenodd" clip-rule="evenodd" d="M117.81 102.836L122.436 106.446C122.465 106.468 122.493 106.492 122.52 106.517C122.548 106.542 122.574 106.568 122.599 106.595C122.625 106.622 122.649 106.65 122.672 106.678C122.695 106.707 122.717 106.737 122.738 106.767C122.758 106.798 122.778 106.829 122.796 106.861C122.815 106.893 122.832 106.926 122.848 106.959C122.864 106.992 122.878 107.026 122.891 107.061C122.904 107.095 122.916 107.13 122.927 107.166C122.937 107.201 122.946 107.237 122.954 107.273C122.962 107.309 122.968 107.345 122.973 107.382C122.978 107.418 122.981 107.455 122.984 107.492C122.986 107.529 122.986 107.566 122.985 107.602C122.985 107.639 122.982 107.676 122.979 107.713C122.975 107.75 122.97 107.786 122.963 107.822C122.957 107.859 122.949 107.895 122.94 107.931C122.931 107.966 122.92 108.002 122.908 108.036C122.896 108.071 122.882 108.106 122.868 108.14C122.853 108.173 122.837 108.207 122.82 108.239C122.803 108.272 122.784 108.304 122.764 108.335C122.745 108.366 122.724 108.397 122.701 108.426C122.679 108.456 122.656 108.484 122.632 108.512C122.607 108.54 122.582 108.567 122.556 108.592C122.529 108.618 122.502 108.643 122.474 108.667C122.445 108.69 122.416 108.713 122.386 108.734C122.356 108.756 122.325 108.776 122.293 108.795C122.262 108.814 122.229 108.832 122.196 108.848C122.163 108.865 122.13 108.88 122.096 108.894C122.061 108.908 122.027 108.921 121.991 108.932C121.956 108.943 121.921 108.953 121.885 108.962C121.849 108.97 121.813 108.977 121.776 108.983C121.74 108.989 121.703 108.993 121.666 108.996C121.629 108.998 121.592 109 121.555 109H112.303C112.266 109 112.23 108.998 112.193 108.996C112.156 108.993 112.119 108.989 112.083 108.983C112.046 108.977 112.01 108.97 111.974 108.962C111.938 108.953 111.903 108.943 111.867 108.932C111.832 108.921 111.797 108.908 111.763 108.894C111.729 108.88 111.695 108.865 111.662 108.848C111.629 108.832 111.597 108.814 111.565 108.795C111.534 108.776 111.503 108.756 111.473 108.734C111.443 108.713 111.414 108.69 111.385 108.667C111.357 108.643 111.329 108.618 111.303 108.592C111.277 108.567 111.251 108.54 111.227 108.512C111.203 108.484 111.179 108.456 111.157 108.426C111.135 108.397 111.114 108.366 111.095 108.335C111.075 108.304 111.056 108.272 111.039 108.239C111.022 108.207 111.006 108.173 110.991 108.14C110.976 108.106 110.963 108.071 110.951 108.036C110.939 108.002 110.928 107.966 110.919 107.931C110.91 107.895 110.902 107.859 110.895 107.822C110.889 107.786 110.884 107.75 110.88 107.713C110.876 107.676 110.874 107.639 110.873 107.602C110.873 107.566 110.873 107.529 110.875 107.492C110.877 107.455 110.881 107.418 110.886 107.382C110.891 107.345 110.897 107.309 110.905 107.273C110.912 107.237 110.921 107.201 110.932 107.166C110.942 107.13 110.954 107.095 110.968 107.061C110.981 107.026 110.995 106.992 111.011 106.959C111.027 106.926 111.044 106.893 111.062 106.861C111.081 106.829 111.1 106.798 111.121 106.767C111.142 106.737 111.164 106.707 111.187 106.678C111.21 106.65 111.234 106.622 111.259 106.595C111.285 106.568 111.311 106.542 111.338 106.517C111.366 106.492 111.394 106.468 111.423 106.446L116.049 102.836C116.064 102.824 116.08 102.812 116.096 102.801C116.112 102.79 116.129 102.778 116.145 102.768C116.162 102.757 116.178 102.746 116.195 102.736C116.212 102.726 116.23 102.716 116.247 102.707C116.264 102.697 116.282 102.688 116.3 102.68C116.317 102.671 116.335 102.663 116.353 102.655C116.371 102.647 116.39 102.639 116.408 102.632C116.427 102.625 116.445 102.618 116.464 102.612C116.482 102.605 116.501 102.599 116.52 102.593C116.539 102.588 116.558 102.582 116.577 102.578C116.596 102.573 116.616 102.568 116.635 102.564C116.654 102.56 116.674 102.557 116.693 102.553C116.713 102.55 116.732 102.547 116.752 102.545C116.772 102.542 116.791 102.54 116.811 102.539C116.831 102.537 116.85 102.536 116.87 102.535C116.89 102.534 116.91 102.534 116.929 102.534C116.949 102.534 116.969 102.534 116.989 102.535C117.008 102.536 117.028 102.537 117.048 102.539C117.068 102.54 117.087 102.542 117.107 102.545C117.126 102.547 117.146 102.55 117.165 102.553C117.185 102.557 117.204 102.56 117.224 102.564C117.243 102.568 117.262 102.573 117.281 102.578C117.301 102.582 117.32 102.588 117.339 102.593C117.358 102.599 117.376 102.605 117.395 102.612C117.414 102.618 117.432 102.625 117.451 102.632C117.469 102.639 117.487 102.647 117.505 102.655C117.524 102.663 117.541 102.671 117.559 102.68C117.577 102.688 117.594 102.697 117.612 102.707C117.629 102.716 117.646 102.726 117.663 102.736C117.68 102.746 117.697 102.757 117.714 102.768C117.73 102.778 117.746 102.79 117.762 102.801C117.779 102.812 117.794 102.824 117.81 102.836Z" fill="#94BC37"/>
<path fill-rule="evenodd" clip-rule="evenodd" d="M116.049 97.163L111.423 93.5538C111.394 93.5311 111.366 93.5073 111.338 93.4824C111.311 93.4575 111.285 93.4316 111.259 93.4046C111.234 93.3777 111.21 93.3498 111.187 93.321C111.164 93.2922 111.142 93.2626 111.121 93.2321C111.1 93.2016 111.081 93.1703 111.062 93.1383C111.044 93.1063 111.027 93.0736 111.011 93.0403C110.995 93.007 110.981 92.9731 110.968 92.9386C110.954 92.9041 110.942 92.8692 110.932 92.8338C110.921 92.7985 110.912 92.7627 110.905 92.7266C110.897 92.6906 110.891 92.6542 110.886 92.6177C110.881 92.5811 110.877 92.5444 110.875 92.5075C110.873 92.4707 110.873 92.4338 110.873 92.3969C110.874 92.36 110.876 92.3232 110.88 92.2865C110.884 92.2498 110.889 92.2133 110.895 92.177C110.902 92.1406 110.91 92.1046 110.919 92.0689C110.928 92.0332 110.939 91.9979 110.951 91.963C110.963 91.9281 110.976 91.8937 110.991 91.8599C111.006 91.826 111.022 91.7928 111.039 91.7602C111.056 91.7276 111.075 91.6957 111.095 91.6645C111.114 91.6333 111.135 91.6029 111.157 91.5733C111.179 91.5438 111.203 91.5151 111.227 91.4873C111.251 91.4596 111.277 91.4328 111.303 91.407C111.329 91.3812 111.357 91.3564 111.385 91.3327C111.414 91.3091 111.443 91.2865 111.473 91.2651C111.503 91.2436 111.534 91.2234 111.565 91.2044C111.597 91.1853 111.629 91.1675 111.662 91.151C111.695 91.1345 111.729 91.1192 111.763 91.1053C111.797 91.0914 111.832 91.0788 111.867 91.0675C111.903 91.0563 111.938 91.0464 111.974 91.0379C112.01 91.0294 112.046 91.0223 112.083 91.0166C112.119 91.0109 112.156 91.0066 112.193 91.0038C112.23 91.0009 112.266 90.9995 112.303 90.9995H121.555C121.592 90.9995 121.629 91.0009 121.666 91.0038C121.703 91.0066 121.74 91.0109 121.776 91.0166C121.813 91.0223 121.849 91.0294 121.885 91.0379C121.921 91.0464 121.956 91.0563 121.991 91.0675C122.027 91.0788 122.061 91.0914 122.096 91.1053C122.13 91.1192 122.163 91.1345 122.196 91.151C122.229 91.1675 122.262 91.1853 122.293 91.2044C122.325 91.2234 122.356 91.2436 122.386 91.2651C122.416 91.2865 122.445 91.3091 122.474 91.3327C122.502 91.3564 122.529 91.3812 122.556 91.407C122.582 91.4328 122.607 91.4596 122.632 91.4873C122.656 91.5151 122.679 91.5438 122.702 91.5733C122.724 91.6029 122.745 91.6333 122.764 91.6645C122.784 91.6957 122.803 91.7276 122.82 91.7602C122.837 91.7928 122.853 91.826 122.868 91.8599C122.882 91.8937 122.896 91.9281 122.908 91.963C122.92 91.9979 122.931 92.0332 122.94 92.0689C122.949 92.1046 122.957 92.1406 122.964 92.177C122.97 92.2133 122.975 92.2498 122.979 92.2865C122.982 92.3232 122.985 92.36 122.985 92.3969C122.986 92.4338 122.986 92.4707 122.984 92.5075C122.981 92.5444 122.978 92.5811 122.973 92.6177C122.968 92.6542 122.962 92.6906 122.954 92.7266C122.946 92.7627 122.937 92.7985 122.927 92.8338C122.916 92.8692 122.904 92.9041 122.891 92.9386C122.878 92.9731 122.864 93.007 122.848 93.0403C122.832 93.0736 122.815 93.1063 122.796 93.1383C122.778 93.1703 122.758 93.2016 122.738 93.2321C122.717 93.2626 122.695 93.2922 122.672 93.321C122.649 93.3498 122.625 93.3777 122.599 93.4046C122.574 93.4316 122.548 93.4575 122.521 93.4824C122.493 93.5073 122.465 93.5311 122.436 93.5538L117.81 97.163C117.794 97.1751 117.779 97.1869 117.762 97.1984C117.746 97.2099 117.73 97.2211 117.714 97.2319C117.697 97.2427 117.68 97.2532 117.663 97.2633C117.646 97.2735 117.629 97.2832 117.612 97.2926C117.594 97.3021 117.577 97.3111 117.559 97.3198C117.541 97.3285 117.524 97.3368 117.505 97.3448C117.487 97.3527 117.469 97.3603 117.451 97.3675C117.432 97.3747 117.414 97.3815 117.395 97.3879C117.376 97.3943 117.358 97.4004 117.339 97.406C117.32 97.4117 117.301 97.417 117.281 97.4218C117.262 97.4267 117.243 97.4311 117.224 97.4352C117.204 97.4392 117.185 97.4429 117.165 97.4461C117.146 97.4494 117.126 97.4523 117.107 97.4547C117.087 97.4571 117.068 97.4592 117.048 97.4608C117.028 97.4625 117.008 97.4637 116.989 97.4645C116.969 97.4653 116.949 97.4657 116.929 97.4657C116.91 97.4657 116.89 97.4653 116.87 97.4645C116.85 97.4637 116.831 97.4625 116.811 97.4608C116.791 97.4592 116.772 97.4571 116.752 97.4547C116.732 97.4523 116.713 97.4494 116.693 97.4461C116.674 97.4429 116.654 97.4392 116.635 97.4352C116.616 97.4311 116.596 97.4267 116.577 97.4218C116.558 97.417 116.539 97.4117 116.52 97.406C116.501 97.4004 116.482 97.3943 116.464 97.3879C116.445 97.3815 116.427 97.3747 116.408 97.3675C116.39 97.3603 116.371 97.3527 116.353 97.3448C116.335 97.3368 116.317 97.3285 116.3 97.3198C116.282 97.3111 116.264 97.3021 116.247 97.2926C116.23 97.2832 116.212 97.2735 116.195 97.2633C116.178 97.2532 116.162 97.2427 116.145 97.2319C116.129 97.2211 116.112 97.2099 116.096 97.1984C116.08 97.1869 116.064 97.1751 116.049 97.163Z" fill="#94BC37"/>
<path fill-rule="evenodd" clip-rule="evenodd" d="M114.086 100.893L110.493 105.521C110.47 105.551 110.446 105.579 110.422 105.606C110.397 105.634 110.371 105.66 110.344 105.685C110.317 105.711 110.289 105.735 110.26 105.758C110.231 105.781 110.202 105.803 110.171 105.824C110.141 105.845 110.109 105.865 110.077 105.883C110.045 105.902 110.013 105.919 109.979 105.935C109.946 105.951 109.912 105.965 109.877 105.979C109.843 105.992 109.808 106.004 109.772 106.015C109.737 106.025 109.701 106.034 109.665 106.042C109.629 106.05 109.592 106.056 109.556 106.061C109.519 106.066 109.482 106.07 109.445 106.072C109.409 106.074 109.372 106.075 109.335 106.074C109.298 106.073 109.261 106.071 109.224 106.068C109.187 106.064 109.15 106.059 109.114 106.053C109.077 106.046 109.041 106.038 109.006 106.029C108.97 106.02 108.934 106.009 108.899 105.998C108.864 105.986 108.83 105.972 108.796 105.958C108.762 105.943 108.728 105.927 108.696 105.91C108.663 105.893 108.631 105.874 108.6 105.854C108.568 105.835 108.538 105.814 108.508 105.792C108.479 105.77 108.45 105.746 108.422 105.722C108.394 105.698 108.367 105.673 108.341 105.646C108.315 105.62 108.29 105.592 108.267 105.564C108.243 105.536 108.22 105.507 108.199 105.477C108.177 105.446 108.157 105.416 108.138 105.384C108.119 105.352 108.101 105.32 108.084 105.287C108.068 105.254 108.052 105.22 108.038 105.186C108.024 105.152 108.012 105.117 108 105.082C107.989 105.047 107.979 105.011 107.971 104.975C107.962 104.939 107.955 104.903 107.949 104.867C107.944 104.83 107.939 104.793 107.936 104.757C107.934 104.72 107.932 104.683 107.932 104.646V95.3895C107.932 95.3525 107.934 95.3156 107.936 95.2788C107.939 95.2419 107.944 95.2053 107.949 95.1688C107.955 95.1323 107.962 95.096 107.971 95.0601C107.979 95.0241 107.989 94.9885 108 94.9533C108.012 94.9182 108.024 94.8835 108.038 94.8493C108.052 94.815 108.068 94.7814 108.084 94.7484C108.101 94.7154 108.119 94.6831 108.138 94.6514C108.157 94.6198 108.177 94.5889 108.199 94.5589C108.22 94.5288 108.243 94.4996 108.267 94.4713C108.29 94.443 108.315 94.4156 108.341 94.3893C108.367 94.3629 108.394 94.3375 108.422 94.3132C108.45 94.2889 108.479 94.2658 108.508 94.2437C108.538 94.2216 108.568 94.2007 108.6 94.181C108.631 94.1613 108.663 94.1429 108.696 94.1256C108.728 94.1084 108.762 94.0925 108.796 94.0778C108.83 94.0632 108.864 94.0499 108.899 94.0379C108.934 94.026 108.97 94.0154 109.006 94.0061C109.041 93.9969 109.077 93.9891 109.114 93.9827C109.15 93.9763 109.187 93.9712 109.224 93.9677C109.261 93.9641 109.298 93.9619 109.335 93.9612C109.372 93.9605 109.409 93.9612 109.445 93.9633C109.482 93.9655 109.519 93.9691 109.556 93.974C109.592 93.979 109.629 93.9854 109.665 93.9933C109.701 94.0011 109.737 94.0103 109.772 94.0209C109.808 94.0315 109.843 94.0434 109.877 94.0567C109.912 94.07 109.946 94.0846 109.979 94.1006C110.013 94.1165 110.045 94.1337 110.077 94.1522C110.109 94.1706 110.141 94.1903 110.171 94.2112C110.202 94.2321 110.231 94.2542 110.26 94.2774C110.289 94.3005 110.317 94.3248 110.344 94.3502C110.371 94.3755 110.397 94.4019 110.422 94.4292C110.446 94.4566 110.47 94.4849 110.493 94.5141L114.086 99.1423C114.098 99.1578 114.11 99.1736 114.122 99.1896C114.133 99.2056 114.144 99.2218 114.155 99.2383C114.165 99.2547 114.176 99.2714 114.186 99.2883C114.196 99.3051 114.206 99.3222 114.215 99.3395C114.224 99.3568 114.233 99.3742 114.242 99.3919C114.25 99.4096 114.259 99.4274 114.267 99.4453C114.274 99.4633 114.282 99.4815 114.289 99.4997C114.296 99.5181 114.303 99.5365 114.309 99.5551C114.316 99.5736 114.322 99.5924 114.327 99.6112C114.333 99.63 114.338 99.6489 114.343 99.668C114.348 99.687 114.352 99.7061 114.356 99.7253C114.36 99.7445 114.364 99.7638 114.367 99.7832C114.37 99.8026 114.373 99.822 114.376 99.8415C114.378 99.861 114.38 99.8805 114.382 99.9C114.383 99.9196 114.384 99.9392 114.385 99.9588C114.386 99.9785 114.386 99.9981 114.386 100.018C114.386 100.037 114.386 100.057 114.385 100.077C114.384 100.096 114.383 100.116 114.382 100.135C114.38 100.155 114.378 100.174 114.376 100.194C114.373 100.213 114.37 100.233 114.367 100.252C114.364 100.272 114.36 100.291 114.356 100.31C114.352 100.329 114.348 100.348 114.343 100.367C114.338 100.386 114.333 100.405 114.327 100.424C114.322 100.443 114.316 100.462 114.309 100.48C114.303 100.499 114.296 100.517 114.289 100.536C114.282 100.554 114.274 100.572 114.267 100.59C114.259 100.608 114.25 100.626 114.242 100.644C114.233 100.661 114.224 100.679 114.215 100.696C114.206 100.713 114.196 100.73 114.186 100.747C114.176 100.764 114.165 100.781 114.155 100.797C114.144 100.814 114.133 100.83 114.122 100.846C114.11 100.862 114.098 100.878 114.086 100.893Z" fill="#94BC37"/>
<path fill-rule="evenodd" clip-rule="evenodd" d="M119.801 99.0935L123.395 94.4652C123.417 94.436 123.441 94.4078 123.466 94.3804C123.491 94.3531 123.517 94.3267 123.544 94.3013C123.571 94.276 123.598 94.2517 123.627 94.2285C123.656 94.2053 123.686 94.1833 123.716 94.1624C123.747 94.1415 123.778 94.1218 123.81 94.1034C123.842 94.0849 123.875 94.0677 123.908 94.0517C123.941 94.0358 123.975 94.0212 124.01 94.0079C124.044 93.9946 124.079 93.9826 124.115 93.9721C124.15 93.9615 124.186 93.9523 124.222 93.9444C124.259 93.9366 124.295 93.9302 124.332 93.9252C124.368 93.9202 124.405 93.9167 124.442 93.9145C124.479 93.9124 124.516 93.9117 124.553 93.9124C124.59 93.9131 124.627 93.9153 124.664 93.9188C124.7 93.9224 124.737 93.9274 124.773 93.9339C124.81 93.9403 124.846 93.9481 124.882 93.9573C124.918 93.9665 124.953 93.9771 124.988 93.9891C125.023 94.0011 125.058 94.0144 125.092 94.029C125.126 94.0436 125.159 94.0596 125.192 94.0768C125.224 94.094 125.256 94.1125 125.288 94.1322C125.319 94.1519 125.349 94.1728 125.379 94.1949C125.409 94.2169 125.438 94.2401 125.466 94.2644C125.493 94.2887 125.52 94.3141 125.546 94.3404C125.572 94.3668 125.597 94.3942 125.621 94.4225C125.644 94.4508 125.667 94.48 125.689 94.51C125.71 94.5401 125.73 94.5709 125.75 94.6026C125.769 94.6342 125.787 94.6666 125.803 94.6996C125.82 94.7326 125.835 94.7662 125.849 94.8004C125.863 94.8346 125.876 94.8693 125.887 94.9045C125.898 94.9397 125.908 94.9753 125.917 95.0112C125.925 95.0472 125.932 95.0834 125.938 95.1199C125.944 95.1564 125.948 95.1931 125.951 95.23C125.954 95.2668 125.955 95.3037 125.955 95.3407V104.597C125.955 104.634 125.954 104.671 125.951 104.708C125.948 104.745 125.944 104.781 125.938 104.818C125.932 104.854 125.925 104.891 125.917 104.927C125.908 104.963 125.898 104.998 125.887 105.033C125.876 105.068 125.863 105.103 125.849 105.137C125.835 105.172 125.82 105.205 125.803 105.238C125.787 105.271 125.769 105.304 125.75 105.335C125.73 105.367 125.71 105.398 125.689 105.428C125.667 105.458 125.644 105.487 125.621 105.515C125.597 105.544 125.572 105.571 125.546 105.597C125.52 105.624 125.493 105.649 125.466 105.673C125.438 105.698 125.409 105.721 125.379 105.743C125.349 105.765 125.319 105.786 125.288 105.806C125.256 105.825 125.224 105.844 125.192 105.861C125.159 105.878 125.126 105.894 125.092 105.909C125.058 105.923 125.023 105.937 124.988 105.949C124.953 105.961 124.918 105.971 124.882 105.98C124.846 105.99 124.81 105.997 124.773 106.004C124.737 106.01 124.7 106.015 124.664 106.019C124.627 106.023 124.59 106.025 124.553 106.025C124.516 106.026 124.479 106.025 124.442 106.023C124.405 106.021 124.368 106.018 124.332 106.013C124.295 106.008 124.259 106.001 124.222 105.993C124.186 105.985 124.15 105.976 124.115 105.966C124.079 105.955 124.044 105.943 124.01 105.93C123.975 105.917 123.941 105.902 123.908 105.886C123.875 105.87 123.842 105.853 123.81 105.834C123.778 105.816 123.747 105.796 123.716 105.775C123.686 105.754 123.656 105.732 123.627 105.709C123.598 105.686 123.571 105.662 123.544 105.636C123.517 105.611 123.491 105.585 123.466 105.557C123.441 105.53 123.417 105.502 123.395 105.472L119.801 100.844C119.789 100.829 119.777 100.813 119.766 100.797C119.754 100.781 119.743 100.765 119.733 100.748C119.722 100.732 119.712 100.715 119.702 100.698C119.691 100.681 119.682 100.664 119.672 100.647C119.663 100.63 119.654 100.612 119.646 100.595C119.637 100.577 119.629 100.559 119.621 100.541C119.613 100.523 119.605 100.505 119.598 100.487C119.591 100.469 119.584 100.45 119.578 100.431C119.572 100.413 119.566 100.394 119.56 100.375C119.555 100.357 119.549 100.338 119.545 100.319C119.54 100.3 119.535 100.28 119.531 100.261C119.527 100.242 119.524 100.223 119.52 100.203C119.517 100.184 119.514 100.165 119.512 100.145C119.509 100.126 119.507 100.106 119.506 100.087C119.504 100.067 119.503 100.047 119.502 100.028C119.501 100.008 119.501 99.9885 119.501 99.9689C119.501 99.9492 119.501 99.9296 119.502 99.91C119.503 99.8904 119.504 99.8708 119.506 99.8513C119.507 99.8317 119.509 99.8122 119.512 99.7927C119.514 99.7732 119.517 99.7538 119.52 99.7344C119.524 99.715 119.527 99.6957 119.531 99.6765C119.535 99.6573 119.54 99.6382 119.545 99.6191C119.549 99.6001 119.555 99.5812 119.56 99.5623C119.566 99.5435 119.572 99.5248 119.578 99.5063C119.584 99.4877 119.591 99.4693 119.598 99.451C119.605 99.4326 119.613 99.4145 119.621 99.3965C119.629 99.3785 119.637 99.3607 119.646 99.3431C119.654 99.3254 119.663 99.3079 119.672 99.2907C119.682 99.2734 119.691 99.2563 119.702 99.2394C119.712 99.2225 119.722 99.2059 119.733 99.1894C119.743 99.173 119.754 99.1567 119.766 99.1407C119.777 99.1247 119.789 99.109 119.801 99.0935Z" fill="#94BC37"/>
<path d="M35.4804 93.8042C36.5652 93.8042 37.5942 93.9952 38.5676 94.3773L38.8363 94.4861L38.2625 96.0531L37.9865 95.9588C37.047 95.6444 36.1971 95.4873 35.4368 95.4873C34.8363 95.4873 34.2807 95.5852 33.7698 95.7811C33.2589 95.9769 32.8352 96.2393 32.4986 96.5682C32.162 96.8971 31.9005 97.2743 31.7141 97.6999C31.5277 98.1255 31.4344 98.5705 31.4344 99.0347C31.4344 99.5136 31.5349 99.9694 31.7359 100.402C31.9369 100.835 32.2177 101.215 32.5785 101.541C32.9393 101.868 33.3933 102.126 33.9405 102.317C34.4877 102.508 35.0858 102.604 35.7347 102.604C36.5289 102.604 37.323 102.464 38.1172 102.183L38.386 102.089L38.9816 103.54L38.7128 103.656C37.662 104.106 36.553 104.331 35.386 104.331C34.4805 104.331 33.6584 104.193 32.9199 103.917C32.1814 103.641 31.5725 103.263 31.093 102.782C30.6136 102.301 30.2444 101.741 29.9853 101.102C29.7262 100.464 29.5967 99.7771 29.5967 99.042C29.5967 98.2972 29.7299 97.6056 29.9962 96.9672C30.2625 96.3288 30.6427 95.775 31.1366 95.3059C31.6306 94.8368 32.2504 94.4692 32.9962 94.2032C33.7419 93.9372 34.57 93.8042 35.4804 93.8042ZM72.5736 93.8768H70.5688V95.8427H72.5736V93.8768ZM84.1396 93.8768H82.1348V95.8427H84.1396V93.8768ZM80.0309 104.055C79.3191 104.239 78.7234 104.331 78.244 104.331C77.784 104.331 77.3881 104.285 77.0564 104.193C76.7247 104.101 76.4644 103.984 76.2755 103.841C76.0866 103.698 75.9377 103.514 75.8288 103.29C75.7198 103.065 75.6484 102.846 75.6145 102.633C75.5806 102.42 75.5636 102.171 75.5636 101.886V98.5487H74.4523V97.018H75.5636V94.965H77.3505V97.018H79.9873V98.5487H77.3505V101.762C77.3505 101.883 77.3711 101.999 77.4123 102.111C77.4535 102.222 77.5201 102.333 77.6121 102.444C77.7041 102.556 77.8421 102.644 78.0261 102.709C78.2101 102.774 78.428 102.807 78.6799 102.807C78.8106 102.807 79.1641 102.759 79.7404 102.662L80.0237 102.611L80.3069 103.982L80.0309 104.055ZM56.6348 97.3299C55.9035 97.0252 55.2231 96.8729 54.5936 96.8729C54.2546 96.8729 53.912 96.9104 53.5658 96.9853C53.2195 97.0603 52.8648 97.1909 52.5016 97.3771C52.1384 97.5633 51.8176 97.7942 51.5391 98.0699C51.2607 98.3456 51.0331 98.7035 50.8564 99.1436C50.6796 99.5837 50.5912 100.077 50.5912 100.624C50.5912 101.151 50.6663 101.627 50.8164 102.053C50.9665 102.478 51.1663 102.83 51.4156 103.108C51.665 103.386 51.9592 103.62 52.2982 103.808C52.6372 103.997 52.9859 104.131 53.3442 104.211C53.7026 104.291 54.0755 104.331 54.4629 104.331C55.0779 104.331 55.6905 104.222 56.3006 104.004V104.069C56.3006 104.326 56.2849 104.559 56.2534 104.77C56.2219 104.98 56.1529 105.199 56.0464 105.426C55.9399 105.653 55.797 105.843 55.6178 105.996C55.4386 106.148 55.1929 106.274 54.8805 106.373C54.5682 106.472 54.1989 106.521 53.7728 106.521C53.1578 106.521 52.5331 106.418 51.8987 106.21L51.6009 106.101L51.0561 107.508L51.3248 107.624C52.1578 107.948 53.0343 108.11 53.9544 108.11C54.4241 108.11 54.8539 108.07 55.2437 107.991C55.6335 107.911 55.9689 107.802 56.2497 107.664C56.5306 107.526 56.7788 107.358 56.9943 107.16C57.2098 106.962 57.3853 106.754 57.5209 106.536C57.6565 106.318 57.7679 106.081 57.8551 105.825C57.9422 105.569 58.0028 105.321 58.0367 105.081C58.0706 104.842 58.0875 104.594 58.0875 104.338V97.018H56.7437L56.6348 97.3299ZM60.8742 97.018H62.1236L62.3705 97.5113C63.3681 97.0857 64.2955 96.8729 65.1526 96.8729C65.6175 96.8729 66.0194 96.9358 66.3584 97.0615C66.6974 97.1873 66.9637 97.3444 67.1574 97.5331C67.3511 97.7217 67.5049 97.9599 67.6187 98.2476C67.7325 98.5354 67.8064 98.8099 67.8403 99.071C67.8741 99.3322 67.8911 99.6272 67.8911 99.9561V104.186H66.1042V99.9778C66.1042 99.8424 66.0981 99.7252 66.086 99.626C66.0739 99.5268 66.0388 99.4035 65.9807 99.256C65.9226 99.1085 65.8427 98.9876 65.741 98.8933C65.6393 98.799 65.4855 98.7168 65.2797 98.6466C65.0739 98.5765 64.8306 98.5415 64.5497 98.5415C63.9831 98.5415 63.3536 98.6745 62.6611 98.9405V104.186H60.8742V97.018ZM98.2261 97.018H96.9771V104.186H98.764V98.9405C99.4563 98.6745 100.086 98.5415 100.652 98.5415C100.933 98.5415 101.177 98.5765 101.382 98.6466C101.588 98.7168 101.742 98.799 101.843 98.8933C101.945 98.9876 102.025 99.1085 102.083 99.256C102.141 99.4035 102.177 99.5268 102.188 99.626C102.201 99.7252 102.207 99.8424 102.207 99.9778V104.186H103.994V99.9561C103.994 99.6272 103.977 99.3322 103.943 99.071C103.909 98.8099 103.835 98.5354 103.721 98.2476C103.608 97.9599 103.454 97.7217 103.26 97.5331C103.066 97.3444 102.8 97.1873 102.461 97.0615C102.122 96.9358 101.72 96.8729 101.255 96.8729C100.398 96.8729 99.4708 97.0857 98.4733 97.5113L98.2261 97.018ZM44.5431 96.8801C45.744 96.8801 46.7113 97.1957 47.445 97.8269C48.1787 98.458 48.5455 99.3394 48.5455 100.471C48.5455 101.661 48.1714 102.602 47.4232 103.293C46.675 103.985 45.669 104.331 44.4051 104.331C43.2041 104.331 42.244 104.005 41.5249 103.355C40.8058 102.704 40.4462 101.811 40.4462 100.674C40.4462 99.5087 40.8131 98.585 41.5467 97.9031C42.2804 97.2211 43.2792 96.8801 44.5431 96.8801ZM90.551 96.8801C91.7518 96.8801 92.7192 97.1957 93.4531 97.8269C94.1866 98.458 94.5534 99.3394 94.5534 100.471C94.5534 101.661 94.1793 102.602 93.4313 103.293C92.6829 103.985 91.6769 104.331 90.4131 104.331C89.212 104.331 88.2519 104.005 87.5328 103.355C86.8138 102.704 86.4543 101.811 86.4543 100.674C86.4543 99.5087 86.821 98.585 87.5546 97.9031C88.2881 97.2211 89.2869 96.8801 90.551 96.8801ZM72.4647 97.018H70.6777V104.186H72.4647V97.018ZM84.0306 97.018H82.2437V104.186H84.0306V97.018ZM53.05 98.9949C53.4592 98.62 54.0028 98.4326 54.6807 98.4326C55.1311 98.4326 55.6711 98.5245 56.3006 98.7083V102.495C55.8164 102.669 55.3321 102.756 54.8478 102.756C54.073 102.756 53.4774 102.545 53.0609 102.122C52.6445 101.698 52.4362 101.158 52.4362 100.5C52.4362 99.8715 52.6408 99.3697 53.05 98.9949ZM44.4269 98.4907C44.054 98.4907 43.7029 98.5608 43.3736 98.7011C43.0443 98.8413 42.767 99.0686 42.5419 99.383C42.3167 99.6973 42.2041 100.067 42.2041 100.493C42.2041 101.122 42.422 101.65 42.8579 102.078C43.2937 102.506 43.8603 102.72 44.5576 102.72C45.192 102.72 45.7222 102.534 46.1484 102.161C46.5745 101.789 46.7876 101.296 46.7876 100.682C46.7876 100.328 46.7174 100.008 46.577 99.7203C46.4365 99.4326 46.2525 99.2016 46.0249 99.0275C45.7973 98.8534 45.5455 98.7204 45.2695 98.6285C44.9934 98.5366 44.7126 98.4907 44.4269 98.4907ZM90.4349 98.4907C90.0618 98.4907 89.7107 98.5608 89.3815 98.7011C89.0523 98.8413 88.775 99.0686 88.5496 99.383C88.3245 99.6973 88.212 100.067 88.212 100.493C88.212 101.122 88.43 101.65 88.866 102.078C89.3016 102.506 89.868 102.72 90.5653 102.72C91.1997 102.72 91.7301 102.534 92.1565 102.161C92.5826 101.789 92.7956 101.296 92.7956 100.682C92.7956 100.328 92.7255 100.008 92.5851 99.7203C92.4443 99.4326 92.2603 99.2016 92.0329 99.0275C91.8052 98.8534 91.5533 98.7204 91.2771 98.6285C91.0013 98.5366 90.7206 98.4907 90.4349 98.4907Z" fill="white"/>
<path d="M130.58 93.9336H132.41V102.567H137.64V104.242H130.58V93.9336ZM159.329 93.9336H161.334V95.8996H159.329V93.9336ZM155.199 97.3867C154.468 97.082 153.787 96.9297 153.158 96.9297C152.819 96.9297 152.476 96.9672 152.13 97.0422C151.784 97.1171 151.429 97.2477 151.066 97.4339C150.702 97.6201 150.382 97.8511 150.103 98.1268C149.825 98.4024 149.597 98.7603 149.42 99.2004C149.244 99.6405 149.155 100.134 149.155 100.68C149.155 101.208 149.23 101.684 149.38 102.11C149.531 102.535 149.73 102.887 149.98 103.165C150.229 103.443 150.523 103.676 150.862 103.865C151.201 104.054 151.55 104.188 151.908 104.268C152.267 104.348 152.639 104.387 153.027 104.387C153.642 104.387 154.254 104.279 154.865 104.061V104.126C154.865 104.383 154.849 104.616 154.817 104.826C154.786 105.037 154.717 105.256 154.61 105.483C154.504 105.71 154.361 105.9 154.182 106.052C154.003 106.205 153.757 106.33 153.445 106.43C153.132 106.529 152.763 106.578 152.337 106.578C151.722 106.578 151.097 106.474 150.463 106.266L150.165 106.158L149.62 107.565L149.889 107.681C150.722 108.005 151.598 108.167 152.518 108.167C152.988 108.167 153.418 108.127 153.808 108.047C154.198 107.968 154.533 107.859 154.814 107.721C155.095 107.583 155.343 107.415 155.558 107.217C155.774 107.018 155.949 106.81 156.085 106.593C156.221 106.375 156.332 106.138 156.419 105.882C156.506 105.626 156.567 105.378 156.601 105.138C156.635 104.899 156.652 104.651 156.652 104.395V97.0748H155.308L155.199 97.3867ZM143.107 96.937C144.308 96.937 145.275 97.2525 146.009 97.8837C146.743 98.5149 147.11 99.3963 147.11 100.528C147.11 101.718 146.735 102.658 145.987 103.35C145.239 104.042 144.233 104.387 142.969 104.387C141.768 104.387 140.808 104.062 140.089 103.412C139.37 102.761 139.01 101.868 139.01 100.731C139.01 99.5656 139.377 98.6418 140.111 97.9599C140.844 97.2779 141.843 96.937 143.107 96.937ZM163.881 99.2911C163.726 99.7385 163.649 100.245 163.649 100.811C163.649 101.348 163.725 101.827 163.877 102.247C164.03 102.668 164.233 103.01 164.488 103.274C164.742 103.537 165.048 103.755 165.406 103.927C165.765 104.098 166.132 104.218 166.507 104.286C166.882 104.354 167.285 104.387 167.716 104.387C168.554 104.387 169.336 104.247 170.063 103.967L170.331 103.865L169.845 102.494L169.561 102.588C169.14 102.738 168.695 102.813 168.225 102.813C166.341 102.813 165.399 102.071 165.399 100.586C165.399 100.199 165.473 99.8678 165.621 99.5921C165.768 99.3165 165.973 99.1073 166.235 98.9647C166.496 98.822 166.776 98.7192 167.074 98.6563C167.371 98.5934 167.702 98.562 168.065 98.562C168.622 98.562 169.15 98.6491 169.649 98.8232L169.932 98.9174L170.404 97.5029L170.15 97.394C169.457 97.0941 168.702 96.9442 167.883 96.9442C167.428 96.9442 167.001 96.9841 166.601 97.0639C166.202 97.1437 165.819 97.2792 165.454 97.4702C165.088 97.6612 164.773 97.9006 164.509 98.1884C164.245 98.4761 164.036 98.8437 163.881 99.2911ZM159.438 97.0748H161.225V104.242H159.438V97.0748ZM151.614 99.0517C152.023 98.6769 152.567 98.4894 153.245 98.4894C153.695 98.4894 154.235 98.5813 154.865 98.7651V102.552C154.38 102.726 153.896 102.813 153.412 102.813C152.637 102.813 152.041 102.602 151.625 102.178C151.208 101.755 151 101.215 151 100.557C151 99.9283 151.205 99.4265 151.614 99.0517ZM142.991 98.5475C142.618 98.5475 142.267 98.6176 141.938 98.7579C141.608 98.8981 141.331 99.1254 141.106 99.4398C140.881 99.7542 140.768 100.124 140.768 100.55C140.768 101.178 140.986 101.707 141.422 102.135C141.858 102.563 142.424 102.777 143.122 102.777C143.756 102.777 144.286 102.591 144.712 102.218C145.139 101.846 145.352 101.353 145.352 100.738C145.352 100.385 145.281 100.065 145.141 99.7771C145.001 99.4894 144.817 99.2584 144.589 99.0843C144.361 98.9102 144.11 98.7772 143.833 98.6853C143.557 98.5934 143.277 98.5475 142.991 98.5475Z" fill="white"/>
<mask id="mask1_1216_858" style="mask-type:luminance" maskUnits="userSpaceOnUse" x="-28" y="-12" width="620" height="413">
<path d="M592 -12H-28V401H592V-12Z" fill="white"/>
</mask>
<g mask="url(#mask1_1216_858)">
<g opacity="0.2">
<mask id="mask2_1216_858" style="mask-type:alpha" maskUnits="userSpaceOnUse" x="-206" y="-93" width="798" height="494">
<g opacity="0.2">
<path d="M592 -93H-206V401H592V-93Z" fill="url(#paint0_radial_1216_858)"/>
</g>
</mask>
<g mask="url(#mask2_1216_858)">
<g filter="url(#filter0_f_1216_858)">
<path d="M21.5913 213.516C48.9191 186.21 48.9191 141.938 21.5913 114.633C-5.73653 87.3268 -50.0438 87.3268 -77.3716 114.633C-104.699 141.938 -104.699 186.21 -77.3716 213.516C-50.0438 240.822 -5.73652 240.822 21.5913 213.516Z" fill="#F7F5FA"/>
<path d="M60.2879 224.814C109.066 224.814 148.609 185.303 148.609 136.564C148.609 87.8252 109.066 48.3145 60.2879 48.3145C11.5095 48.3145 -28.0332 87.8252 -28.0332 136.564C-28.0332 185.303 11.5095 224.814 60.2879 224.814Z" fill="#F7F5FA"/>
<path d="M64.3141 119.598C129.254 119.598 181.899 66.9964 181.899 2.10831C181.899 -62.7797 129.254 -115.382 64.3141 -115.382C-0.62635 -115.382 -53.271 -62.7797 -53.271 2.10831C-53.271 66.9964 -0.62635 119.598 64.3141 119.598Z" fill="#F7F5FA"/>
<path d="M151.916 117.087C216.856 117.087 269.501 64.4852 269.501 -0.402885C269.501 -65.291 216.856 -117.893 151.916 -117.893C86.9752 -117.893 34.3306 -65.291 34.3306 -0.402885C34.3306 64.4852 86.9752 117.087 151.916 117.087Z" fill="#F7F5FA"/>
<path d="M0.420971 159.948C27.0062 159.948 48.5578 138.414 48.5578 111.85C48.5578 85.2866 27.0062 63.7524 0.420971 63.7524C-26.1642 63.7524 -47.7158 85.2866 -47.7158 111.85C-47.7158 138.414 -26.1642 159.948 0.420971 159.948Z" fill="#F7F5FA"/>
</g>
<path d="M211.733 -33.8892H192.96C192.828 -33.8876 192.7 -33.8517 192.587 -33.7851C192.474 -33.7184 192.38 -33.6233 192.315 -33.5093L182.949 -17.3031C182.88 -17.1897 182.844 -17.0598 182.844 -16.9273C182.844 -16.7948 182.88 -16.6649 182.949 -16.5515L192.315 -0.345314C192.38 -0.232233 192.474 -0.138341 192.587 -0.0730896C192.701 -0.00783842 192.829 0.0264701 192.96 0.0263863H211.733C211.864 0.0264701 211.992 -0.00783842 212.106 -0.0730896C212.219 -0.138341 212.313 -0.232233 212.378 -0.345314L221.711 -16.5515C221.776 -16.666 221.811 -16.7955 221.811 -16.9273C221.811 -17.0591 221.776 -17.1886 221.711 -17.3031L212.337 -33.4762C212.28 -33.5907 212.194 -33.6887 212.089 -33.7609C211.983 -33.8332 211.861 -33.8774 211.733 -33.8892Z" fill="#18181E"/>
<path d="M184.065 -15.4364C183.999 -15.5494 183.965 -15.6776 183.965 -15.8081C183.965 -15.9386 183.999 -16.0668 184.065 -16.1798L193.431 -32.3942C193.497 -32.5085 193.592 -32.6031 193.707 -32.6685C193.822 -32.7338 193.952 -32.7674 194.084 -32.7659H212.775L212.337 -33.5093C212.272 -33.6233 212.178 -33.7184 212.065 -33.7851C211.952 -33.8517 211.823 -33.8876 211.692 -33.8892H192.96C192.828 -33.8876 192.7 -33.8517 192.587 -33.7851C192.474 -33.7184 192.38 -33.6233 192.315 -33.5093L182.949 -17.3031C182.88 -17.1897 182.844 -17.0598 182.844 -16.9273C182.844 -16.7948 182.88 -16.6649 182.949 -16.5515L192.315 -0.345314C192.38 -0.232233 192.474 -0.138341 192.587 -0.0730896C192.701 -0.00783842 192.829 0.0264701 192.96 0.0263863L184.065 -15.4364Z" fill="#18181E"/>
<path d="M147.956 -33.8892H129.224C129.091 -33.8891 128.961 -33.8539 128.846 -33.7871C128.731 -33.7204 128.636 -33.6245 128.571 -33.5093L119.205 -17.3031C119.139 -17.1886 119.105 -17.0591 119.105 -16.9273C119.105 -16.7955 119.139 -16.666 119.205 -16.5515L128.571 -0.345318C128.637 -0.231014 128.732 -0.136335 128.847 -0.0710106C128.962 -0.0056862 129.092 0.0279322 129.224 0.0263863H147.956C148.087 0.02647 148.215 -0.00784227 148.328 -0.0730934C148.441 -0.138344 148.535 -0.232236 148.601 -0.345318L158 -16.5515C158.065 -16.666 158.099 -16.7955 158.099 -16.9273C158.099 -17.0591 158.065 -17.1886 158 -17.3031L148.601 -33.4762C148.54 -33.5964 148.448 -33.6982 148.335 -33.7708C148.221 -33.8435 148.091 -33.8844 147.956 -33.8892Z" fill="#18181E"/>
<path d="M120.329 -15.4364C120.263 -15.5494 120.229 -15.6776 120.229 -15.8081C120.229 -15.9386 120.263 -16.0668 120.329 -16.1798L129.695 -32.3942C129.76 -32.5072 129.854 -32.6011 129.967 -32.6664C130.081 -32.7316 130.209 -32.7659 130.34 -32.7659H149.031L148.601 -33.5093C148.536 -33.6233 148.442 -33.7184 148.329 -33.7851C148.216 -33.8517 148.087 -33.8876 147.956 -33.8892H129.224C129.091 -33.8891 128.961 -33.8539 128.846 -33.7871C128.731 -33.7204 128.636 -33.6245 128.571 -33.5093L119.205 -17.3031C119.139 -17.1886 119.105 -17.0591 119.105 -16.9273C119.105 -16.7955 119.139 -16.666 119.205 -16.5515L128.571 -0.345318C128.637 -0.231014 128.732 -0.136335 128.847 -0.0710106C128.962 -0.0056862 129.092 0.0279322 129.224 0.0263863H129.265L120.329 -15.4364Z" fill="#18181E"/>
<path d="M179.824 -15.5024H161.092C160.96 -15.5031 160.83 -15.4691 160.715 -15.4039C160.601 -15.3386 160.505 -15.2444 160.439 -15.1307L151.073 1.08366C151.007 1.19668 150.973 1.32487 150.973 1.45537C150.973 1.58586 151.007 1.71405 151.073 1.82706L160.48 18.0415C160.547 18.1552 160.642 18.2494 160.757 18.3147C160.871 18.3799 161.001 18.4139 161.133 18.4132H179.824C179.955 18.4133 180.083 18.3789 180.196 18.3137C180.309 18.2484 180.403 18.1546 180.469 18.0415L189.835 1.82706C189.904 1.71524 189.94 1.58659 189.94 1.45537C189.94 1.32414 189.904 1.19549 189.835 1.08366L180.469 -15.1307C180.403 -15.2438 180.309 -15.3377 180.196 -15.4029C180.083 -15.4682 179.955 -15.5025 179.824 -15.5024Z" fill="#18181E"/>
<path d="M152.213 2.95042C152.148 2.83741 152.114 2.70922 152.114 2.57872C152.114 2.44823 152.148 2.32004 152.213 2.20702L161.563 -14.0073C161.628 -14.1204 161.722 -14.2143 161.835 -14.2795C161.949 -14.3448 162.077 -14.3791 162.208 -14.379H180.899L180.469 -15.1307C180.403 -15.2438 180.309 -15.3377 180.196 -15.4029C180.083 -15.4682 179.955 -15.5025 179.824 -15.5024H161.092C160.96 -15.5031 160.83 -15.4691 160.715 -15.4039C160.601 -15.3386 160.505 -15.2444 160.439 -15.1307L151.073 1.08366C151.007 1.19668 150.973 1.32487 150.973 1.45537C150.973 1.58586 151.007 1.71405 151.073 1.82706L160.48 18.0415C160.547 18.1552 160.642 18.2494 160.757 18.3147C160.871 18.3799 161.001 18.4139 161.133 18.4132L152.213 2.95042Z" fill="#18181E"/>
<path d="M211.733 2.86816H192.96C192.829 2.86808 192.701 2.90239 192.587 2.96764C192.474 3.03289 192.38 3.12678 192.315 3.23986L182.949 19.4708C182.88 19.5826 182.844 19.7112 182.844 19.8425C182.844 19.9737 182.88 20.1023 182.949 20.2142L192.315 36.4285C192.38 36.5416 192.474 36.6355 192.587 36.7008C192.701 36.766 192.829 36.8003 192.96 36.8002H211.733C211.864 36.8003 211.992 36.766 212.106 36.7008C212.219 36.6355 212.313 36.5416 212.378 36.4285L221.711 20.2142C221.777 20.1012 221.811 19.973 221.811 19.8425C221.811 19.712 221.777 19.5838 221.711 19.4708L212.337 3.25638C212.277 3.14607 212.191 3.05263 212.085 2.98476C211.98 2.91688 211.859 2.87677 211.733 2.86816Z" fill="#18181E"/>
<path d="M184.065 21.3375C184 21.223 183.965 21.0935 183.965 20.9617C183.965 20.8299 184 20.7004 184.065 20.5859L193.431 4.37974C193.497 4.26544 193.592 4.17076 193.707 4.10544C193.822 4.04011 193.952 4.0065 194.084 4.00804H212.775L212.337 3.25638C212.277 3.14607 212.191 3.05263 212.085 2.98476C211.98 2.91688 211.859 2.87677 211.733 2.86816H192.96C192.829 2.86808 192.701 2.90239 192.587 2.96764C192.474 3.03289 192.38 3.12678 192.315 3.23986L182.949 19.4708C182.88 19.5826 182.844 19.7112 182.844 19.8425C182.844 19.9737 182.88 20.1023 182.949 20.2142L192.315 36.4285C192.38 36.5416 192.474 36.6355 192.587 36.7008C192.701 36.766 192.829 36.8003 192.96 36.8002L184.065 21.3375Z" fill="#18181E"/>
<path d="M84.2115 -33.8892H65.4793C65.3479 -33.8876 65.2193 -33.8517 65.1062 -33.7851C64.9931 -33.7184 64.8994 -33.6233 64.8345 -33.5093L55.4931 -17.3031C55.4279 -17.1886 55.3936 -17.0591 55.3936 -16.9273C55.3936 -16.7955 55.4279 -16.666 55.4931 -16.5515L64.8345 -0.345318C64.8998 -0.232236 64.9938 -0.138344 65.107 -0.0730934C65.2202 -0.00784227 65.3486 0.02647 65.4793 0.0263863H84.2115C84.3436 0.0279322 84.4737 -0.0056862 84.5885 -0.0710106C84.7033 -0.136335 84.7986 -0.231014 84.8646 -0.345318L94.2307 -16.5515C94.296 -16.666 94.3302 -16.7955 94.3302 -16.9273C94.3302 -17.0591 94.296 -17.1886 94.2307 -17.3031L84.8646 -33.4762C84.8033 -33.5976 84.7102 -33.7002 84.5952 -33.7729C84.4802 -33.8457 84.3476 -33.8858 84.2115 -33.8892Z" fill="#18181E"/>
<path d="M56.5843 -15.4364C56.519 -15.5494 56.4846 -15.6776 56.4846 -15.8081C56.4846 -15.9386 56.519 -16.0668 56.5843 -16.1798L65.9587 -32.3942C66.0241 -32.5072 66.1181 -32.6011 66.2312 -32.6664C66.3444 -32.7316 66.4728 -32.7659 66.6035 -32.7659H85.2945L84.8646 -33.5093C84.799 -33.6245 84.704 -33.7204 84.5893 -33.7871C84.4746 -33.8539 84.3443 -33.8891 84.2115 -33.8892H65.4793C65.3479 -33.8876 65.2193 -33.8517 65.1062 -33.7851C64.9931 -33.7184 64.8994 -33.6233 64.8345 -33.5093L55.4931 -17.3031C55.4279 -17.1886 55.3936 -17.0591 55.3936 -16.9273C55.3936 -16.7955 55.4279 -16.666 55.4931 -16.5515L64.8345 -0.345314C64.8998 -0.232233 64.9938 -0.138341 65.107 -0.0730896C65.2202 -0.00783842 65.3486 0.0264701 65.4793 0.0263863L56.5843 -15.4364Z" fill="#18181E"/>
<path d="M116.088 -15.5024H97.3474C97.2167 -15.5025 97.0883 -15.4682 96.9751 -15.4029C96.8619 -15.3377 96.7679 -15.2438 96.7026 -15.1307L87.3365 1.08364C87.2712 1.19665 87.2368 1.32485 87.2368 1.45534C87.2368 1.58584 87.2712 1.71403 87.3365 1.82704L96.7026 18.0415C96.7679 18.1545 96.8619 18.2484 96.9751 18.3137C97.0883 18.3789 97.2167 18.4132 97.3474 18.4132H116.088C116.219 18.4132 116.347 18.3789 116.46 18.3137C116.573 18.2484 116.667 18.1545 116.733 18.0415L126.099 1.82704C126.164 1.71403 126.199 1.58584 126.199 1.45534C126.199 1.32485 126.164 1.19665 126.099 1.08364L116.733 -15.1307C116.667 -15.2438 116.573 -15.3377 116.46 -15.4029C116.347 -15.4682 116.219 -15.5025 116.088 -15.5024Z" fill="#18181E"/>
<path d="M88.4607 2.9504C88.392 2.83858 88.3556 2.70992 88.3556 2.5787C88.3556 2.44748 88.392 2.31883 88.4607 2.207L97.8269 -14.0073C97.8922 -14.1204 97.9862 -14.2143 98.0994 -14.2796C98.2126 -14.3448 98.341 -14.3791 98.4717 -14.379H117.163L116.733 -15.1307C116.667 -15.2438 116.573 -15.3377 116.46 -15.4029C116.347 -15.4682 116.219 -15.5025 116.088 -15.5024H97.3474C97.2167 -15.5025 97.0883 -15.4682 96.9751 -15.4029C96.8619 -15.3377 96.7679 -15.2438 96.7026 -15.1307L87.3365 1.08364C87.2712 1.19665 87.2368 1.32485 87.2368 1.45534C87.2368 1.58584 87.2712 1.71403 87.3365 1.82704L96.7026 18.0415C96.7679 18.1545 96.8619 18.2484 96.9751 18.3137C97.0883 18.3789 97.2167 18.4132 97.3474 18.4132H97.397L88.4607 2.9504Z" fill="#18181E"/>
<path d="M147.956 2.86822H129.224C129.092 2.86667 128.962 2.90028 128.847 2.96561C128.732 3.03093 128.637 3.12561 128.571 3.23992L119.205 19.4708C119.139 19.5838 119.105 19.712 119.105 19.8425C119.105 19.973 119.139 20.1012 119.205 20.2142L128.571 36.4286C128.637 36.5429 128.732 36.6376 128.847 36.7029C128.962 36.7682 129.092 36.8018 129.224 36.8003H147.956C148.087 36.8004 148.215 36.7661 148.328 36.7008C148.441 36.6356 148.535 36.5417 148.601 36.4286L158 20.2142C158.065 20.1012 158.1 19.973 158.1 19.8425C158.1 19.712 158.065 19.5838 158 19.4708L148.601 3.25643C148.538 3.14028 148.445 3.04306 148.331 2.97482C148.218 2.90658 148.088 2.86978 147.956 2.86822Z" fill="#18181E"/>
<path d="M120.329 21.3372C120.264 21.2227 120.229 21.0932 120.229 20.9614C120.229 20.8296 120.264 20.7001 120.329 20.5856L129.695 4.37939C129.76 4.26631 129.854 4.17242 129.967 4.10717C130.081 4.04192 130.209 4.00761 130.34 4.00769H149.031L148.601 3.25603C148.535 3.14295 148.441 3.04906 148.328 2.98381C148.215 2.91856 148.087 2.88425 147.956 2.88433H129.224C129.092 2.88279 128.962 2.9164 128.847 2.98173C128.732 3.04705 128.637 3.14173 128.571 3.25603L119.205 19.4704C119.139 19.5835 119.105 19.7117 119.105 19.8422C119.105 19.9726 119.139 20.1008 119.205 20.2139L128.571 36.4282C128.637 36.5425 128.732 36.6372 128.847 36.7025C128.962 36.7679 129.092 36.8015 129.224 36.7999H129.265L120.329 21.3372Z" fill="#18181E"/>
<path d="M179.824 21.2715H161.092C160.96 21.2708 160.83 21.3048 160.715 21.37C160.601 21.4353 160.505 21.5295 160.439 21.6432L151.073 37.8576C151.007 37.9706 150.973 38.0988 150.973 38.2293C150.973 38.3598 151.007 38.488 151.073 38.601L160.48 54.8154C160.547 54.9291 160.642 55.0233 160.757 55.0885C160.871 55.1538 161.001 55.1878 161.133 55.1871H179.824C179.955 55.1871 180.083 55.1528 180.196 55.0876C180.309 55.0223 180.403 54.9284 180.469 54.8154L189.835 38.601C189.904 38.4892 189.94 38.3605 189.94 38.2293C189.94 38.0981 189.904 37.9694 189.835 37.8576L180.469 21.6432C180.403 21.5301 180.309 21.4362 180.196 21.371C180.083 21.3057 179.955 21.2714 179.824 21.2715Z" fill="#18181E"/>
<path d="M152.213 39.7243C152.148 39.6098 152.114 39.4803 152.114 39.3485C152.114 39.2167 152.148 39.0872 152.213 38.9727L161.579 22.7666C161.644 22.6525 161.738 22.5574 161.851 22.4907C161.964 22.4241 162.093 22.3882 162.224 22.3866H180.899L180.469 21.6432C180.403 21.5301 180.309 21.4362 180.196 21.371C180.083 21.3057 179.955 21.2714 179.824 21.2715H161.092C160.96 21.2708 160.83 21.3048 160.715 21.37C160.601 21.4353 160.505 21.5295 160.439 21.6432L151.073 37.8576C151.007 37.9706 150.973 38.0988 150.973 38.2293C150.973 38.3598 151.007 38.488 151.073 38.601L160.48 54.8154C160.547 54.9291 160.642 55.0233 160.757 55.0885C160.871 55.1538 161.001 55.1878 161.133 55.1871L152.213 39.7243Z" fill="#18181E"/>
<path d="M211.733 39.6582H192.96C192.829 39.6581 192.701 39.6924 192.587 39.7577C192.474 39.8229 192.38 39.9168 192.315 40.0299L182.949 56.236C182.88 56.3494 182.844 56.4794 182.844 56.6119C182.844 56.7443 182.88 56.8743 182.949 56.9877L192.315 73.1938C192.38 73.3079 192.474 73.4029 192.587 73.4696C192.7 73.5363 192.828 73.5722 192.96 73.5738H211.733C211.865 73.5722 211.993 73.5363 212.106 73.4696C212.22 73.4029 212.313 73.3079 212.378 73.1938L221.753 56.9877C221.818 56.8731 221.852 56.7436 221.852 56.6119C221.852 56.4801 221.818 56.3506 221.753 56.236L212.337 40.0382C212.276 39.9294 212.189 39.8376 212.084 39.7712C211.978 39.7048 211.858 39.666 211.733 39.6582Z" fill="#18181E"/>
<path d="M184.065 58.1028C183.999 57.9898 183.965 57.8616 183.965 57.7311C183.965 57.6006 183.999 57.4724 184.065 57.3594L193.431 41.145C193.497 41.0307 193.592 40.936 193.707 40.8707C193.822 40.8054 193.952 40.7718 194.084 40.7733H212.775L212.337 40.0299C212.271 39.9168 212.177 39.8229 212.064 39.7577C211.951 39.6924 211.823 39.6581 211.692 39.6582H192.96C192.829 39.6581 192.701 39.6924 192.587 39.7577C192.474 39.8229 192.38 39.9168 192.315 40.0299L182.949 56.236C182.88 56.3494 182.844 56.4794 182.844 56.6119C182.844 56.7443 182.88 56.8743 182.949 56.9877L192.315 73.1938C192.38 73.3079 192.474 73.4029 192.587 73.4696C192.7 73.5363 192.828 73.5722 192.96 73.5738L184.065 58.1028Z" fill="#18181E"/>
<path d="M20.4755 -33.8892H1.75976C1.62844 -33.8876 1.49983 -33.8517 1.38671 -33.7851C1.27358 -33.7184 1.1799 -33.6233 1.11496 -33.5093L-8.27597 -17.3031C-8.3412 -17.1886 -8.37549 -17.0591 -8.37549 -16.9273C-8.37549 -16.7955 -8.3412 -16.666 -8.27597 -16.5515L1.09843 -0.345314C1.16377 -0.232233 1.25777 -0.138341 1.37096 -0.0730896C1.48415 -0.00783842 1.61255 0.0264701 1.74323 0.0263863H20.4755C20.6062 0.0264701 20.7346 -0.00783842 20.8478 -0.0730896C20.961 -0.138341 21.055 -0.232233 21.1203 -0.345314L30.4947 -16.5515C30.56 -16.666 30.5943 -16.7955 30.5943 -16.9273C30.5943 -17.0591 30.56 -17.1886 30.4947 -17.3031L21.1203 -33.4762C21.0597 -33.5964 20.9679 -33.6982 20.8545 -33.7708C20.7411 -33.8435 20.6102 -33.8844 20.4755 -33.8892Z" fill="#18181E"/>
<path d="M-7.1517 -15.4364C-7.217 -15.5494 -7.25138 -15.6776 -7.25138 -15.8081C-7.25138 -15.9386 -7.217 -16.0668 -7.1517 -16.1798L2.21443 -32.3942C2.27977 -32.5072 2.37377 -32.6011 2.48696 -32.6664C2.60015 -32.7316 2.72855 -32.7659 2.85923 -32.7659H21.5998L21.1617 -33.5093C21.0967 -33.6233 21.0031 -33.7184 20.8899 -33.7851C20.7768 -33.8517 20.6482 -33.8876 20.5169 -33.8892H1.75976C1.62844 -33.8876 1.49983 -33.8517 1.38671 -33.7851C1.27358 -33.7184 1.1799 -33.6233 1.11496 -33.5093L-8.27597 -17.3031C-8.3412 -17.1886 -8.37549 -17.0591 -8.37549 -16.9273C-8.37549 -16.7955 -8.3412 -16.666 -8.27597 -16.5515L1.09843 -0.345314C1.16377 -0.232233 1.25777 -0.138341 1.37096 -0.0730896C1.48415 -0.00783842 1.61255 0.0264701 1.74323 0.0263863H1.75976L-7.1517 -15.4364Z" fill="#18181E"/>
<path d="M52.3438 -15.5022H33.6116C33.4809 -15.5022 33.3525 -15.4679 33.2393 -15.4027C33.1261 -15.3374 33.0321 -15.2435 32.9668 -15.1305L23.6006 1.08394C23.5353 1.19695 23.501 1.32515 23.501 1.45564C23.501 1.58614 23.5353 1.71433 23.6006 1.82734L32.9668 18.0417C33.0321 18.1548 33.1261 18.2487 33.2393 18.3139C33.3525 18.3792 33.4809 18.4135 33.6116 18.4134H52.3438C52.4757 18.4141 52.6055 18.3801 52.7201 18.3149C52.8348 18.2496 52.9302 18.1554 52.9969 18.0417L62.363 1.82734C62.4283 1.71433 62.4627 1.58614 62.4627 1.45564C62.4627 1.32515 62.4283 1.19695 62.363 1.08394L53.0134 -15.1305C52.9454 -15.2467 52.8473 -15.3425 52.7295 -15.4079C52.6117 -15.4732 52.4785 -15.5058 52.3438 -15.5022Z" fill="#18181E"/>
<path d="M24.7166 2.95042C24.6513 2.83741 24.617 2.70922 24.617 2.57872C24.617 2.44823 24.6513 2.32003 24.7166 2.20702L34.0828 -14.0073C34.1494 -14.1211 34.2449 -14.2153 34.3595 -14.2805C34.4741 -14.3457 34.6039 -14.3797 34.7358 -14.379H53.4268L53.0134 -15.1307C52.9468 -15.2444 52.8513 -15.3386 52.7367 -15.4039C52.6221 -15.4691 52.4923 -15.5031 52.3604 -15.5024H33.6116C33.4809 -15.5025 33.3525 -15.4682 33.2393 -15.4029C33.1261 -15.3377 33.0321 -15.2438 32.9668 -15.1307L23.6006 1.08366C23.5353 1.19667 23.501 1.32487 23.501 1.45536C23.501 1.58586 23.5353 1.71405 23.6006 1.82706L32.9668 18.0415C33.0321 18.1546 33.1261 18.2484 33.2393 18.3137C33.3525 18.3789 33.4809 18.4133 33.6116 18.4132L24.7166 2.95042Z" fill="#18181E"/>
<path d="M84.2117 2.86816H65.4794C65.3487 2.86808 65.2203 2.90239 65.1071 2.96764C64.9939 3.03289 64.8999 3.12678 64.8346 3.23986L55.4933 19.4708C55.428 19.5838 55.3936 19.712 55.3936 19.8425C55.3936 19.973 55.428 20.1012 55.4933 20.2142L64.8346 36.4285C64.8999 36.5416 64.9939 36.6355 65.1071 36.7008C65.2203 36.766 65.3487 36.8003 65.4794 36.8002H84.2117C84.3437 36.8018 84.4738 36.7682 84.5886 36.7029C84.7034 36.6375 84.7987 36.5429 84.8647 36.4285L94.2309 20.2142C94.2962 20.1012 94.3305 19.973 94.3305 19.8425C94.3305 19.712 94.2962 19.5838 94.2309 19.4708L84.8647 3.25638C84.8008 3.139 84.7064 3.041 84.5915 2.97268C84.4766 2.90436 84.3454 2.86826 84.2117 2.86816Z" fill="#18181E"/>
<path d="M56.5845 21.3372C56.5192 21.2227 56.4849 21.0932 56.4849 20.9614C56.4849 20.8296 56.5192 20.7001 56.5845 20.5856L65.9589 4.37939C66.0242 4.26631 66.1182 4.17242 66.2314 4.10717C66.3446 4.04192 66.473 4.00761 66.6037 4.00769H85.2946L84.8647 3.25603C84.7987 3.14173 84.7034 3.04705 84.5886 2.98173C84.4738 2.9164 84.3437 2.88279 84.2117 2.88433H65.4794C65.3487 2.88425 65.2203 2.91856 65.1071 2.98381C64.9939 3.04906 64.8999 3.14295 64.8346 3.25603L55.4933 19.4704C55.428 19.5835 55.3936 19.7117 55.3936 19.8422C55.3936 19.9726 55.428 20.1008 55.4933 20.2139L64.8346 36.4282C64.8999 36.5413 64.9939 36.6352 65.1071 36.7005C65.2203 36.7657 65.3487 36.8 65.4794 36.7999L56.5845 21.3372Z" fill="#18181E"/>
<path d="M116.088 21.2715H97.3474C97.2167 21.2714 97.0883 21.3057 96.9751 21.371C96.8619 21.4362 96.7679 21.5301 96.7026 21.6432L87.3365 37.8576C87.2712 37.9706 87.2368 38.0988 87.2368 38.2293C87.2368 38.3598 87.2712 38.488 87.3365 38.601L96.7026 54.8153C96.7679 54.9284 96.8619 55.0223 96.9751 55.0876C97.0883 55.1528 97.2167 55.1871 97.3474 55.187H116.088C116.219 55.1871 116.347 55.1528 116.46 55.0876C116.573 55.0223 116.667 54.9284 116.733 54.8153L126.099 38.601C126.164 38.488 126.199 38.3598 126.199 38.2293C126.199 38.0988 126.164 37.9706 126.099 37.8576L116.733 21.6432C116.667 21.5301 116.573 21.4362 116.46 21.371C116.347 21.3057 116.219 21.2714 116.088 21.2715Z" fill="#18181E"/>
<path d="M88.4607 39.7243C88.3922 39.6109 88.3559 39.481 88.3559 39.3485C88.3559 39.216 88.3922 39.0861 88.4607 38.9727L97.8269 22.7665C97.8918 22.6525 97.9855 22.5574 98.0986 22.4907C98.2117 22.4241 98.3403 22.3882 98.4717 22.3866H117.163L116.733 21.6432C116.667 21.5301 116.573 21.4362 116.46 21.371C116.347 21.3057 116.219 21.2714 116.088 21.2715H97.3474C97.2167 21.2714 97.0883 21.3057 96.9751 21.371C96.8619 21.4362 96.7679 21.5301 96.7026 21.6432L87.3365 37.8576C87.2712 37.9706 87.2368 38.0988 87.2368 38.2293C87.2368 38.3598 87.2712 38.488 87.3365 38.601L96.7026 54.8153C96.7679 54.9284 96.8619 55.0223 96.9751 55.0876C97.0883 55.1528 97.2167 55.1871 97.3474 55.187H97.397L88.4607 39.7243Z" fill="#18181E"/>
<path d="M147.956 39.6583H129.224C129.092 39.6567 128.962 39.6903 128.847 39.7556C128.732 39.821 128.637 39.9157 128.571 40.03L119.205 56.2361C119.139 56.3506 119.105 56.4801 119.105 56.6119C119.105 56.7437 119.139 56.8732 119.205 56.9877L128.571 73.1939C128.636 73.3091 128.731 73.405 128.846 73.4717C128.961 73.5385 129.091 73.5737 129.224 73.5738H147.956C148.087 73.5722 148.216 73.5363 148.329 73.4697C148.442 73.403 148.536 73.3079 148.601 73.1939L158 56.9877C158.065 56.8732 158.099 56.7437 158.099 56.6119C158.099 56.4801 158.065 56.3506 158 56.2361L148.601 40.0382C148.536 39.9236 148.443 39.828 148.33 39.7613C148.216 39.6946 148.087 39.659 147.956 39.6583Z" fill="#18181E"/>
<path d="M120.329 58.1028C120.263 57.9898 120.229 57.8616 120.229 57.7311C120.229 57.6006 120.263 57.4724 120.329 57.3594L129.695 41.1451C129.76 41.032 129.854 40.9381 129.967 40.8728C130.081 40.8076 130.209 40.7733 130.34 40.7734H149.031L148.601 40.03C148.535 39.9169 148.441 39.823 148.328 39.7577C148.215 39.6925 148.087 39.6582 147.956 39.6583H129.224C129.092 39.6567 128.962 39.6903 128.847 39.7556C128.732 39.821 128.637 39.9157 128.571 40.03L119.205 56.2361C119.139 56.3506 119.105 56.4801 119.105 56.6119C119.105 56.7437 119.139 56.8732 119.205 56.9877L128.571 73.1939C128.636 73.3091 128.731 73.405 128.846 73.4717C128.961 73.5385 129.091 73.5737 129.224 73.5738H129.265L120.329 58.1028Z" fill="#18181E"/>
<path d="M179.824 58.0366H161.092C160.959 58.0376 160.829 58.0732 160.715 58.1398C160.6 58.2065 160.505 58.3019 160.439 58.4166L151.073 74.6227C151.007 74.7372 150.973 74.8667 150.973 74.9985C150.973 75.1303 151.007 75.2598 151.073 75.3744L160.48 91.5805C160.547 91.6942 160.642 91.7884 160.757 91.8537C160.871 91.9189 161.001 91.9529 161.133 91.9522H179.824C179.955 91.9523 180.083 91.918 180.196 91.8527C180.309 91.7875 180.403 91.6936 180.469 91.5805L189.835 75.3744C189.904 75.261 189.94 75.131 189.94 74.9985C189.94 74.8661 189.904 74.7361 189.835 74.6227L180.469 58.4166C180.404 58.3025 180.31 58.2074 180.197 58.1408C180.084 58.0741 179.955 58.0382 179.824 58.0366Z" fill="#18181E"/>
<path d="M152.213 76.4895C152.148 76.3764 152.114 76.2483 152.114 76.1178C152.114 75.9873 152.148 75.8591 152.213 75.7461L161.563 59.5317C161.628 59.4186 161.722 59.3247 161.835 59.2595C161.949 59.1942 162.077 59.1599 162.208 59.16H180.899L180.469 58.4166C180.404 58.3025 180.31 58.2074 180.197 58.1408C180.084 58.0741 179.955 58.0382 179.824 58.0366H161.092C160.959 58.0376 160.829 58.0732 160.715 58.1398C160.6 58.2065 160.505 58.3019 160.439 58.4166L151.073 74.6227C151.007 74.7372 150.973 74.8667 150.973 74.9985C150.973 75.1303 151.007 75.2598 151.073 75.3744L160.48 91.5805C160.547 91.6942 160.642 91.7884 160.757 91.8537C160.871 91.9189 161.001 91.9529 161.133 91.9522L152.213 76.4895Z" fill="#18181E"/>
<path d="M211.733 76.4233H192.96C192.829 76.4233 192.701 76.4576 192.587 76.5228C192.474 76.5881 192.38 76.682 192.315 76.795L182.949 93.0094C182.88 93.1212 182.844 93.2499 182.844 93.3811C182.844 93.5123 182.88 93.641 182.949 93.7528L192.315 109.967C192.38 110.08 192.474 110.174 192.587 110.239C192.701 110.305 192.829 110.339 192.96 110.339H211.733C211.864 110.339 211.992 110.305 212.106 110.239C212.219 110.174 212.313 110.08 212.378 109.967L221.711 93.728C221.777 93.615 221.811 93.4868 221.811 93.3563C221.811 93.2258 221.777 93.0976 221.711 92.9846L212.337 76.795C212.275 76.6878 212.188 76.5977 212.082 76.5328C211.977 76.4678 211.857 76.4302 211.733 76.4233Z" fill="#18181E"/>
<path d="M184.065 94.8762C184 94.7632 183.965 94.635 183.965 94.5045C183.965 94.374 184 94.2458 184.065 94.1328L193.431 77.9184C193.497 77.8041 193.592 77.7094 193.707 77.6441C193.822 77.5788 193.952 77.5452 194.084 77.5467H212.775L212.337 76.795C212.272 76.682 212.178 76.5881 212.064 76.5228C211.951 76.4576 211.823 76.4233 211.692 76.4233H192.96C192.829 76.4233 192.701 76.4576 192.587 76.5228C192.474 76.5881 192.38 76.682 192.315 76.795L182.949 93.0094C182.88 93.1212 182.844 93.2499 182.844 93.3811C182.844 93.5123 182.88 93.641 182.949 93.7528L192.315 109.967C192.38 110.08 192.474 110.174 192.587 110.239C192.701 110.305 192.829 110.339 192.96 110.339L184.065 94.8762Z" fill="#18181E"/>
<path d="M20.4757 2.86816H1.75992C1.62924 2.86808 1.50084 2.90239 1.38765 2.96764C1.27446 3.03289 1.18046 3.12678 1.11512 3.23986L-8.27581 19.4708C-8.34111 19.5838 -8.37549 19.712 -8.37549 19.8425C-8.37549 19.973 -8.34111 20.1012 -8.27581 20.2142L1.09859 36.4285C1.16393 36.5416 1.25793 36.6355 1.37112 36.7008C1.48431 36.766 1.61271 36.8003 1.74339 36.8002H20.4757C20.6064 36.8003 20.7348 36.766 20.8479 36.7008C20.9611 36.6355 21.0551 36.5416 21.1205 36.4285L30.4949 20.2142C30.5602 20.1012 30.5946 19.973 30.5946 19.8425C30.5946 19.712 30.5602 19.5838 30.4949 19.4708L21.1205 3.25638C21.0573 3.14022 20.9642 3.04301 20.8508 2.97477C20.7375 2.90653 20.608 2.86973 20.4757 2.86816Z" fill="#18181E"/>
<path d="M-7.15154 21.3372C-7.21677 21.2226 -7.25107 21.0931 -7.25107 20.9613C-7.25107 20.8296 -7.21677 20.7 -7.15154 20.5855L2.21459 4.37934C2.27993 4.26626 2.37393 4.17237 2.48712 4.10712C2.60031 4.04187 2.72871 4.00756 2.85939 4.00764H21.5999L21.1618 3.25598C21.0965 3.1429 21.0025 3.04901 20.8893 2.98376C20.7761 2.91851 20.6477 2.8842 20.517 2.88428H1.75992C1.62924 2.8842 1.50084 2.91851 1.38765 2.98376C1.27446 3.04901 1.18046 3.1429 1.11512 3.25598L-8.27581 19.4704C-8.34111 19.5834 -8.37549 19.7116 -8.37549 19.8421C-8.37549 19.9726 -8.34111 20.1008 -8.27581 20.2138L1.09859 36.4282C1.16393 36.5413 1.25793 36.6352 1.37112 36.7004C1.48431 36.7657 1.61271 36.8 1.74339 36.7999H1.75992L-7.15154 21.3372Z" fill="#18181E"/>
<path d="M52.3438 21.2713H33.6116C33.4809 21.2712 33.3525 21.3055 33.2393 21.3708C33.1261 21.436 33.0321 21.5299 32.9668 21.643L23.6006 37.8574C23.5353 37.9704 23.501 38.0986 23.501 38.2291C23.501 38.3596 23.5353 38.4878 23.6006 38.6008L32.9668 54.8152C33.0321 54.9283 33.1261 55.0221 33.2393 55.0874C33.3525 55.1526 33.4809 55.187 33.6116 55.1869H52.3438C52.4757 55.1876 52.6055 55.1536 52.7201 55.0884C52.8348 55.0231 52.9302 54.9289 52.9969 54.8152L62.363 38.6008C62.4283 38.4878 62.4627 38.3596 62.4627 38.2291C62.4627 38.0986 62.4283 37.9704 62.363 37.8574L53.0134 21.643C52.9454 21.5268 52.8473 21.431 52.7295 21.3656C52.6117 21.3002 52.4785 21.2677 52.3438 21.2713Z" fill="#18181E"/>
<path d="M24.7166 39.7243C24.6514 39.6098 24.6171 39.4803 24.6171 39.3485C24.6171 39.2167 24.6514 39.0872 24.7166 38.9727L34.0828 22.7666C34.149 22.6518 34.2442 22.5564 34.3587 22.4898C34.4733 22.4231 34.6033 22.3876 34.7358 22.3866H53.4268L52.9969 21.6432C52.9302 21.5295 52.8348 21.4353 52.7202 21.37C52.6055 21.3048 52.4758 21.2708 52.3438 21.2715H33.6116C33.4809 21.2714 33.3525 21.3057 33.2393 21.371C33.1261 21.4362 33.0321 21.5301 32.9668 21.6432L23.6006 37.8576C23.5353 37.9706 23.501 38.0988 23.501 38.2293C23.501 38.3598 23.5353 38.488 23.6006 38.601L32.9668 54.8154C33.0321 54.9284 33.1261 55.0223 33.2393 55.0876C33.3525 55.1528 33.4809 55.1871 33.6116 55.1871L24.7166 39.7243Z" fill="#18181E"/>
<path d="M84.2115 39.6582H65.4793C65.3486 39.6581 65.2202 39.6924 65.107 39.7577C64.9938 39.8229 64.8998 39.9168 64.8345 40.0299L55.4931 56.236C55.4279 56.3506 55.3936 56.4801 55.3936 56.6119C55.3936 56.7436 55.4279 56.8732 55.4931 56.9877L64.8593 73.1938C64.9242 73.3079 65.0179 73.403 65.131 73.4696C65.2441 73.5363 65.3727 73.5722 65.5041 73.5738H84.2363C84.369 73.5736 84.4994 73.5384 84.6141 73.4717C84.7288 73.4049 84.8238 73.3091 84.8894 73.1938L94.2555 56.9877C94.3207 56.8732 94.355 56.7436 94.355 56.6119C94.355 56.4801 94.3207 56.3506 94.2555 56.236L84.8646 40.0382C84.7996 39.9223 84.7048 39.826 84.5899 39.7592C84.4751 39.6924 84.3444 39.6575 84.2115 39.6582Z" fill="#18181E"/>
<path d="M56.5843 58.1028C56.519 57.9898 56.4846 57.8616 56.4846 57.7311C56.4846 57.6006 56.519 57.4724 56.5843 57.3594L65.9587 41.1451C66.0241 41.032 66.1181 40.9381 66.2312 40.8728C66.3444 40.8076 66.4728 40.7733 66.6035 40.7734H85.2945L84.8646 40.03C84.7986 39.9157 84.7033 39.821 84.5885 39.7556C84.4737 39.6903 84.3436 39.6567 84.2115 39.6583H65.4793C65.3486 39.6582 65.2202 39.6925 65.107 39.7577C64.9938 39.823 64.8998 39.9169 64.8345 40.03L55.4931 56.2361C55.4279 56.3506 55.3936 56.4801 55.3936 56.6119C55.3936 56.7437 55.4279 56.8732 55.4931 56.9877L64.8593 73.1939C64.9242 73.3079 65.0179 73.403 65.131 73.4697C65.2441 73.5363 65.3727 73.5722 65.5041 73.5738L56.5843 58.1028Z" fill="#18181E"/>
<path d="M116.088 58.0366H97.3477C97.2164 58.0382 97.0878 58.0741 96.9747 58.1408C96.8615 58.2074 96.7679 58.3025 96.7029 58.4166L87.3368 74.6227C87.2716 74.7372 87.2373 74.8667 87.2373 74.9985C87.2373 75.1303 87.2716 75.2598 87.3368 75.3744L96.7029 91.5805C96.7683 91.6936 96.8622 91.7875 96.9754 91.8527C97.0886 91.918 97.217 91.9523 97.3477 91.9522H116.088C116.219 91.9523 116.347 91.918 116.46 91.8527C116.574 91.7875 116.668 91.6936 116.733 91.5805L126.099 75.3744C126.164 75.2598 126.199 75.1303 126.199 74.9985C126.199 74.8667 126.164 74.7372 126.099 74.6227L116.733 58.4166C116.668 58.3025 116.574 58.2074 116.461 58.1408C116.348 58.0741 116.219 58.0382 116.088 58.0366Z" fill="#18181E"/>
<path d="M88.4611 76.4895C88.3923 76.3776 88.356 76.249 88.356 76.1178C88.356 75.9865 88.3923 75.8579 88.4611 75.7461L97.8272 59.5317C97.8925 59.4186 97.9865 59.3247 98.0997 59.2595C98.2129 59.1942 98.3413 59.1599 98.472 59.16H117.163L116.733 58.4166C116.668 58.3025 116.574 58.2074 116.461 58.1408C116.348 58.0741 116.219 58.0382 116.088 58.0366H97.3477C97.2164 58.0382 97.0878 58.0741 96.9747 58.1408C96.8615 58.2074 96.7679 58.3025 96.7029 58.4166L87.3368 74.6227C87.2716 74.7372 87.2373 74.8667 87.2373 74.9985C87.2373 75.1303 87.2716 75.2598 87.3368 75.3744L96.7029 91.5805C96.7683 91.6936 96.8622 91.7875 96.9754 91.8527C97.0886 91.918 97.217 91.9523 97.3477 91.9522H97.3973L88.4611 76.4895Z" fill="#18181E"/>
<path d="M147.956 76.4234H129.224C129.092 76.4218 128.962 76.4555 128.847 76.5208C128.732 76.5861 128.637 76.6808 128.571 76.7951L119.205 93.0095C119.139 93.1225 119.105 93.2507 119.105 93.3812C119.105 93.5117 119.139 93.6399 119.205 93.7529L128.571 109.967C128.637 110.082 128.732 110.176 128.847 110.242C128.962 110.307 129.092 110.34 129.224 110.339H147.956C148.087 110.339 148.215 110.305 148.328 110.239C148.441 110.174 148.535 110.08 148.601 109.967L158 93.7281C158.065 93.6151 158.1 93.4869 158.1 93.3564C158.1 93.2259 158.065 93.0977 158 92.9847L148.601 76.7951C148.535 76.682 148.441 76.5881 148.328 76.5229C148.215 76.4576 148.087 76.4233 147.956 76.4234Z" fill="#18181E"/>
<path d="M120.329 94.8762C120.264 94.7632 120.229 94.635 120.229 94.5045C120.229 94.374 120.264 94.2458 120.329 94.1328L129.695 77.9184C129.76 77.8054 129.854 77.7115 129.967 77.6462C130.081 77.581 130.209 77.5467 130.34 77.5468H149.031L148.601 76.7951C148.535 76.682 148.441 76.5881 148.328 76.5229C148.215 76.4576 148.087 76.4233 147.956 76.4234H129.224C129.092 76.4218 128.962 76.4555 128.847 76.5208C128.732 76.5861 128.637 76.6808 128.571 76.7951L119.205 93.0095C119.139 93.1225 119.105 93.2507 119.105 93.3812C119.105 93.5117 119.139 93.6399 119.205 93.7529L128.571 109.967C128.637 110.082 128.732 110.176 128.847 110.242C128.962 110.307 129.092 110.34 129.224 110.339H129.265L120.329 94.8762Z" fill="#18181E"/>
<path d="M179.824 94.8101H161.092C160.96 94.8094 160.83 94.8434 160.715 94.9086C160.601 94.9739 160.505 95.0681 160.439 95.1818L151.073 111.396C151.007 111.509 150.973 111.638 150.973 111.768C150.973 111.899 151.007 112.027 151.073 112.14L160.48 128.354C160.547 128.468 160.642 128.562 160.757 128.627C160.871 128.693 161.001 128.727 161.133 128.726H179.824C179.955 128.726 180.083 128.692 180.196 128.626C180.309 128.561 180.403 128.467 180.469 128.354L189.835 112.14C189.904 112.028 189.94 111.899 189.94 111.768C189.94 111.637 189.904 111.508 189.835 111.396L180.469 95.1818C180.403 95.0687 180.309 94.9748 180.196 94.9096C180.083 94.8443 179.955 94.81 179.824 94.8101Z" fill="#18181E"/>
<path d="M152.213 113.263C152.148 113.149 152.114 113.019 152.114 112.887C152.114 112.756 152.148 112.626 152.213 112.512L161.579 96.3052C161.645 96.1921 161.739 96.0982 161.852 96.033C161.965 95.9677 162.094 95.9334 162.224 95.9335H180.899L180.469 95.1818C180.403 95.0687 180.309 94.9748 180.196 94.9096C180.083 94.8443 179.955 94.81 179.824 94.8101H161.092C160.96 94.8094 160.83 94.8434 160.715 94.9086C160.601 94.9739 160.505 95.0681 160.439 95.1818L151.073 111.396C151.007 111.509 150.973 111.638 150.973 111.768C150.973 111.899 151.007 112.027 151.073 112.14L160.48 128.354C160.547 128.468 160.642 128.562 160.757 128.627C160.871 128.693 161.001 128.727 161.133 128.726L152.213 113.263Z" fill="#18181E"/>
<path d="M211.733 113.197H192.96C192.829 113.197 192.701 113.231 192.587 113.296C192.474 113.362 192.38 113.456 192.315 113.569L182.949 129.783C182.88 129.895 182.844 130.024 182.844 130.155C182.844 130.286 182.88 130.415 182.949 130.526L192.315 146.741C192.38 146.854 192.474 146.948 192.587 147.013C192.701 147.078 192.829 147.113 192.96 147.113H211.733C211.864 147.113 211.992 147.078 212.106 147.013C212.219 146.948 212.313 146.854 212.378 146.741L221.753 130.526C221.818 130.413 221.852 130.285 221.852 130.155C221.852 130.024 221.818 129.896 221.753 129.783L212.337 113.552C212.273 113.448 212.185 113.361 212.08 113.299C211.974 113.237 211.855 113.202 211.733 113.197Z" fill="#18181E"/>
<path d="M184.065 131.65C184 131.535 183.965 131.406 183.965 131.274C183.965 131.142 184 131.013 184.065 130.898L193.431 114.692C193.497 114.577 193.592 114.481 193.706 114.414C193.821 114.347 193.951 114.312 194.084 114.312H212.775L212.337 113.569C212.272 113.456 212.178 113.362 212.064 113.296C211.951 113.231 211.823 113.197 211.692 113.197H192.96C192.829 113.197 192.701 113.231 192.587 113.296C192.474 113.362 192.38 113.456 192.315 113.569L182.949 129.783C182.88 129.895 182.844 130.024 182.844 130.155C182.844 130.286 182.88 130.415 182.949 130.526L192.315 146.741C192.38 146.854 192.474 146.948 192.587 147.013C192.701 147.078 192.829 147.113 192.96 147.113L184.065 131.65Z" fill="#18181E"/>
<path d="M20.4755 39.6582H1.75976C1.62908 39.6581 1.50068 39.6924 1.38749 39.7577C1.2743 39.8229 1.1803 39.9168 1.11496 40.0299L-8.27597 56.236C-8.3412 56.3506 -8.37549 56.4801 -8.37549 56.6119C-8.37549 56.7436 -8.3412 56.8731 -8.27597 56.9877L1.09843 73.1938C1.16336 73.3079 1.25705 73.4029 1.37017 73.4696C1.48329 73.5363 1.61191 73.5722 1.74323 73.5738H20.4755C20.6069 73.5722 20.7355 73.5363 20.8486 73.4696C20.9617 73.4029 21.0554 73.3079 21.1203 73.1938L30.4947 56.9877C30.56 56.8731 30.5943 56.7436 30.5943 56.6119C30.5943 56.4801 30.56 56.3506 30.4947 56.236L21.1203 40.0382C21.0561 39.9235 20.9625 39.828 20.8493 39.7613C20.736 39.6945 20.607 39.659 20.4755 39.6582Z" fill="#18181E"/>
<path d="M-7.1517 58.1028C-7.217 57.9898 -7.25138 57.8616 -7.25138 57.7311C-7.25138 57.6006 -7.217 57.4724 -7.1517 57.3594L2.21443 41.145C2.27977 41.0319 2.37377 40.938 2.48696 40.8728C2.60015 40.8075 2.72855 40.7732 2.85923 40.7733H21.5998L21.1617 40.0299C21.0963 39.9168 21.0023 39.8229 20.8892 39.7577C20.776 39.6924 20.6476 39.6581 20.5169 39.6582H1.75976C1.62908 39.6581 1.50068 39.6924 1.38749 39.7577C1.2743 39.8229 1.1803 39.9168 1.11496 40.0299L-8.27597 56.236C-8.3412 56.3506 -8.37549 56.4801 -8.37549 56.6119C-8.37549 56.7436 -8.3412 56.8731 -8.27597 56.9877L1.09843 73.1938C1.16336 73.3079 1.25705 73.4029 1.37017 73.4696C1.48329 73.5363 1.61191 73.5722 1.74323 73.5738H1.75976L-7.1517 58.1028Z" fill="#18181E"/>
<path d="M52.3438 58.0367H33.6115C33.4802 58.0383 33.3516 58.0742 33.2384 58.1409C33.1253 58.2075 33.0316 58.3026 32.9667 58.4167L23.6006 74.6228C23.5353 74.7373 23.501 74.8668 23.501 74.9986C23.501 75.1304 23.5353 75.2599 23.6006 75.3744L32.9667 91.5806C33.032 91.6936 33.126 91.7875 33.2392 91.8528C33.3524 91.918 33.4808 91.9523 33.6115 91.9523H52.3438C52.4757 91.953 52.6055 91.919 52.7201 91.8537C52.8347 91.7885 52.9301 91.6943 52.9968 91.5806L62.363 75.3744C62.4282 75.2599 62.4625 75.1304 62.4625 74.9986C62.4625 74.8668 62.4282 74.7373 62.363 74.6228L53.0134 58.4167C52.9457 58.2995 52.848 58.2025 52.7302 58.1357C52.6125 58.069 52.4791 58.0348 52.3438 58.0367Z" fill="#18181E"/>
<path d="M24.7166 76.4895C24.6513 76.3764 24.6169 76.2483 24.6169 76.1178C24.6169 75.9873 24.6513 75.8591 24.7166 75.7461L34.0827 59.5317C34.1494 59.4179 34.2448 59.3237 34.3594 59.2585C34.4741 59.1933 34.6038 59.1593 34.7358 59.16H53.4267L52.9968 58.4166C52.9306 58.3019 52.8354 58.2065 52.7209 58.1398C52.6063 58.0732 52.4763 58.0376 52.3438 58.0366H33.6115C33.4802 58.0382 33.3516 58.0741 33.2384 58.1408C33.1253 58.2074 33.0316 58.3025 32.9667 58.4166L23.6006 74.6227C23.5353 74.7372 23.501 74.8667 23.501 74.9985C23.501 75.1303 23.5353 75.2598 23.6006 75.3744L32.9667 91.5805C33.032 91.6936 33.126 91.7875 33.2392 91.8527C33.3524 91.918 33.4808 91.9523 33.6115 91.9522L24.7166 76.4895Z" fill="#18181E"/>
<path d="M84.2117 76.4234H65.4794C65.3487 76.4233 65.2203 76.4576 65.1071 76.5229C64.9939 76.5881 64.8999 76.682 64.8346 76.7951L55.4933 93.0095C55.428 93.1225 55.3936 93.2507 55.3936 93.3812C55.3936 93.5117 55.428 93.6399 55.4933 93.7529L64.8594 109.967C64.9247 110.08 65.0187 110.174 65.1319 110.239C65.2451 110.305 65.3735 110.339 65.5042 110.339H84.2365C84.3685 110.34 84.4986 110.307 84.6134 110.242C84.7282 110.176 84.8235 110.082 84.8895 109.967L94.2309 93.7281C94.2962 93.6151 94.3305 93.4869 94.3305 93.3564C94.3305 93.2259 94.2962 93.0977 94.2309 92.9847L84.8647 76.7951C84.7987 76.6808 84.7034 76.5861 84.5886 76.5208C84.4738 76.4555 84.3437 76.4218 84.2117 76.4234Z" fill="#18181E"/>
<path d="M56.5845 94.8762C56.5192 94.7632 56.4848 94.635 56.4848 94.5045C56.4848 94.374 56.5192 94.2458 56.5845 94.1328L65.9589 77.9184C66.0242 77.8054 66.1182 77.7115 66.2314 77.6462C66.3446 77.581 66.473 77.5467 66.6037 77.5468H85.2946L84.8647 76.7951C84.7987 76.6808 84.7034 76.5861 84.5886 76.5208C84.4738 76.4555 84.3437 76.4218 84.2117 76.4234H65.4794C65.3487 76.4233 65.2203 76.4576 65.1071 76.5229C64.9939 76.5881 64.8999 76.682 64.8346 76.7951L55.4933 93.0095C55.428 93.1225 55.3936 93.2507 55.3936 93.3812C55.3936 93.5117 55.428 93.6399 55.4933 93.7529L64.8594 109.967C64.9247 110.08 65.0187 110.174 65.1319 110.239C65.2451 110.305 65.3735 110.339 65.5042 110.339L56.5845 94.8762Z" fill="#18181E"/>
<path d="M116.088 94.8101H97.3474C97.2167 94.81 97.0883 94.8443 96.9751 94.9096C96.8619 94.9748 96.7679 95.0687 96.7026 95.1818L87.3365 111.396C87.2712 111.509 87.2368 111.638 87.2368 111.768C87.2368 111.899 87.2712 112.027 87.3365 112.14L96.7026 128.354C96.7679 128.467 96.8619 128.561 96.9751 128.626C97.0883 128.692 97.2167 128.726 97.3474 128.726H116.088C116.219 128.726 116.347 128.692 116.46 128.626C116.573 128.561 116.667 128.467 116.733 128.354L126.099 112.14C126.164 112.027 126.199 111.899 126.199 111.768C126.199 111.638 126.164 111.509 126.099 111.396L116.733 95.1818C116.667 95.0687 116.573 94.9748 116.46 94.9096C116.347 94.8443 116.219 94.81 116.088 94.8101Z" fill="#18181E"/>
<path d="M88.4607 113.263C88.3922 113.15 88.3559 113.02 88.3559 112.887C88.3559 112.755 88.3922 112.625 88.4607 112.511L97.8269 96.3052C97.8922 96.1921 97.9862 96.0982 98.0994 96.0329C98.2126 95.9677 98.341 95.9334 98.4717 95.9335H117.163L116.733 95.1818C116.667 95.0687 116.573 94.9748 116.46 94.9096C116.347 94.8443 116.219 94.81 116.088 94.8101H97.3474C97.2167 94.81 97.0883 94.8443 96.9751 94.9096C96.8619 94.9748 96.7679 95.0687 96.7026 95.1818L87.3365 111.396C87.2712 111.509 87.2368 111.638 87.2368 111.768C87.2368 111.899 87.2712 112.027 87.3365 112.14L96.7026 128.354C96.7679 128.467 96.8619 128.561 96.9751 128.626C97.0883 128.692 97.2167 128.726 97.3474 128.726H97.397L88.4607 113.263Z" fill="#18181E"/>
<path d="M147.956 113.197H129.224C129.092 113.195 128.962 113.229 128.847 113.294C128.732 113.36 128.637 113.454 128.571 113.569L119.205 129.783C119.139 129.896 119.105 130.024 119.105 130.155C119.105 130.285 119.139 130.413 119.205 130.526L128.571 146.741C128.637 146.855 128.732 146.95 128.847 147.015C128.962 147.08 129.092 147.114 129.224 147.112H147.956C148.087 147.112 148.215 147.078 148.328 147.013C148.441 146.948 148.535 146.854 148.601 146.741L158 130.526C158.065 130.413 158.1 130.285 158.1 130.155C158.1 130.024 158.065 129.896 158 129.783L148.601 113.552C148.533 113.442 148.439 113.351 148.325 113.289C148.212 113.227 148.085 113.195 147.956 113.197Z" fill="#18181E"/>
<path d="M120.329 131.65C120.264 131.535 120.229 131.406 120.229 131.274C120.229 131.142 120.264 131.013 120.329 130.898L129.695 114.692C129.76 114.578 129.854 114.483 129.967 114.416C130.08 114.349 130.208 114.314 130.34 114.312H149.031L148.601 113.569C148.535 113.455 148.441 113.362 148.328 113.296C148.215 113.231 148.087 113.197 147.956 113.197H129.224C129.092 113.195 128.962 113.229 128.847 113.294C128.732 113.36 128.637 113.454 128.571 113.569L119.205 129.783C119.139 129.896 119.105 130.024 119.105 130.155C119.105 130.285 119.139 130.413 119.205 130.526L128.571 146.741C128.637 146.855 128.732 146.95 128.847 147.015C128.962 147.08 129.092 147.114 129.224 147.112H129.265L120.329 131.65Z" fill="#18181E"/>
<path d="M179.824 131.584H161.092C160.96 131.583 160.83 131.617 160.715 131.682C160.601 131.748 160.505 131.842 160.439 131.955L151.073 148.162C151.007 148.276 150.973 148.406 150.973 148.537C150.973 148.669 151.007 148.799 151.073 148.913L160.48 165.119C160.546 165.234 160.641 165.329 160.756 165.396C160.871 165.463 161.001 165.498 161.133 165.499H179.824C179.955 165.498 180.084 165.462 180.197 165.395C180.31 165.329 180.404 165.233 180.469 165.119L189.835 148.913C189.904 148.8 189.94 148.67 189.94 148.537C189.94 148.405 189.904 148.275 189.835 148.162L180.469 131.955C180.403 131.842 180.309 131.748 180.196 131.683C180.083 131.618 179.955 131.584 179.824 131.584Z" fill="#18181E"/>
<path d="M152.213 150.028C152.148 149.915 152.114 149.787 152.114 149.657C152.114 149.526 152.148 149.398 152.213 149.285L161.579 133.071C161.645 132.957 161.739 132.864 161.852 132.798C161.965 132.733 162.094 132.699 162.224 132.699H180.899L180.469 131.955C180.403 131.842 180.309 131.748 180.196 131.683C180.083 131.618 179.955 131.584 179.824 131.584H161.092C160.96 131.583 160.83 131.617 160.715 131.682C160.601 131.748 160.505 131.842 160.439 131.955L151.073 148.162C151.007 148.276 150.973 148.406 150.973 148.537C150.973 148.669 151.007 148.799 151.073 148.913L160.48 165.119C160.546 165.234 160.641 165.329 160.756 165.396C160.871 165.463 161.001 165.498 161.133 165.499L152.213 150.028Z" fill="#18181E"/>
<path d="M211.733 149.962H192.96C192.828 149.964 192.7 150 192.587 150.066C192.474 150.133 192.38 150.228 192.315 150.342L182.949 166.548C182.88 166.662 182.844 166.792 182.844 166.924C182.844 167.057 182.88 167.187 182.949 167.3L192.315 183.506C192.38 183.619 192.474 183.713 192.587 183.778C192.701 183.843 192.829 183.878 192.96 183.878H211.733C211.864 183.878 211.992 183.843 212.106 183.778C212.219 183.713 212.313 183.619 212.378 183.506L221.753 167.3C221.818 167.185 221.852 167.056 221.852 166.924C221.852 166.792 221.818 166.663 221.753 166.548L212.378 150.342C212.313 150.228 212.22 150.133 212.106 150.066C211.993 150 211.865 149.964 211.733 149.962Z" fill="#18181E"/>
<path d="M184.065 168.415C183.999 168.302 183.965 168.174 183.965 168.043C183.965 167.913 183.999 167.785 184.065 167.672L193.431 151.457C193.497 151.343 193.592 151.248 193.707 151.183C193.822 151.118 193.952 151.084 194.084 151.086H212.775L212.337 150.342C212.272 150.228 212.178 150.133 212.065 150.066C211.952 150 211.823 149.964 211.692 149.962H192.96C192.828 149.964 192.7 150 192.587 150.066C192.474 150.133 192.38 150.228 192.315 150.342L182.949 166.548C182.88 166.662 182.844 166.792 182.844 166.924C182.844 167.057 182.88 167.187 182.949 167.3L192.315 183.506C192.38 183.619 192.474 183.713 192.587 183.778C192.701 183.843 192.829 183.878 192.96 183.878L184.065 168.415Z" fill="#18181E"/>
<path d="M20.4757 76.4233H1.75992C1.62924 76.4233 1.50084 76.4576 1.38765 76.5228C1.27446 76.5881 1.18046 76.682 1.11512 76.795L-8.27581 93.0094C-8.34111 93.1224 -8.37549 93.2506 -8.37549 93.3811C-8.37549 93.5116 -8.34111 93.6398 -8.27581 93.7528L1.09859 109.967C1.16393 110.08 1.25793 110.174 1.37112 110.239C1.48431 110.305 1.61271 110.339 1.74339 110.339H20.4757C20.6064 110.339 20.7348 110.305 20.8479 110.239C20.9611 110.174 21.0551 110.08 21.1205 109.967L30.4949 93.728C30.5602 93.615 30.5946 93.4868 30.5946 93.3563C30.5946 93.2258 30.5602 93.0976 30.4949 92.9846L21.1205 76.795C21.0551 76.682 20.9611 76.5881 20.8479 76.5228C20.7348 76.4576 20.6064 76.4233 20.4757 76.4233Z" fill="#18181E"/>
<path d="M-7.15154 94.8762C-7.21684 94.7632 -7.25122 94.635 -7.25122 94.5045C-7.25122 94.374 -7.21684 94.2458 -7.15154 94.1328L2.21459 77.9184C2.27993 77.8053 2.37393 77.7114 2.48712 77.6462C2.60031 77.5809 2.72871 77.5466 2.85939 77.5467H21.5999L21.1618 76.795C21.0965 76.682 21.0025 76.5881 20.8893 76.5228C20.7761 76.4576 20.6477 76.4233 20.517 76.4233H1.75992C1.62924 76.4233 1.50084 76.4576 1.38765 76.5228C1.27446 76.5881 1.18046 76.682 1.11512 76.795L-8.27581 93.0094C-8.34111 93.1224 -8.37549 93.2506 -8.37549 93.3811C-8.37549 93.5116 -8.34111 93.6398 -8.27581 93.7528L1.09859 109.967C1.16393 110.08 1.25793 110.174 1.37112 110.239C1.48431 110.305 1.61271 110.339 1.74339 110.339H1.75992L-7.15154 94.8762Z" fill="#18181E"/>
<path d="M52.3438 94.8099H33.6116C33.4809 94.8098 33.3525 94.8441 33.2393 94.9094C33.1261 94.9746 33.0321 95.0685 32.9668 95.1816L23.6006 111.396C23.5353 111.509 23.501 111.637 23.501 111.768C23.501 111.898 23.5353 112.027 23.6006 112.14L32.9668 128.354C33.0321 128.467 33.1261 128.561 33.2393 128.626C33.3525 128.691 33.4809 128.726 33.6116 128.726H52.3438C52.4757 128.726 52.6055 128.692 52.7201 128.627C52.8348 128.562 52.9302 128.468 52.9969 128.354L62.363 112.14C62.4283 112.027 62.4627 111.898 62.4627 111.768C62.4627 111.637 62.4283 111.509 62.363 111.396L53.0134 95.1816C52.9454 95.0654 52.8473 94.9696 52.7295 94.9042C52.6117 94.8388 52.4785 94.8062 52.3438 94.8099Z" fill="#18181E"/>
<path d="M24.7166 113.263C24.6514 113.149 24.6171 113.019 24.6171 112.887C24.6171 112.756 24.6514 112.626 24.7166 112.512L34.0828 96.3052C34.1494 96.1914 34.2449 96.0972 34.3595 96.032C34.4741 95.9668 34.6039 95.9328 34.7358 95.9335H53.4268L52.9969 95.1818C52.9302 95.0681 52.8348 94.9739 52.7202 94.9086C52.6055 94.8434 52.4758 94.8094 52.3438 94.8101H33.6116C33.4809 94.81 33.3525 94.8443 33.2393 94.9096C33.1261 94.9748 33.0321 95.0687 32.9668 95.1818L23.6006 111.396C23.5353 111.509 23.501 111.638 23.501 111.768C23.501 111.899 23.5353 112.027 23.6006 112.14L32.9668 128.354C33.0321 128.467 33.1261 128.561 33.2393 128.626C33.3525 128.692 33.4809 128.726 33.6116 128.726L24.7166 113.263Z" fill="#18181E"/>
<path d="M84.2117 113.197H65.4794C65.3487 113.197 65.2203 113.231 65.1071 113.296C64.9939 113.362 64.8999 113.456 64.8346 113.569L55.4933 129.783C55.428 129.896 55.3936 130.024 55.3936 130.155C55.3936 130.285 55.428 130.413 55.4933 130.526L64.8594 146.741C64.9247 146.854 65.0187 146.948 65.1319 147.013C65.2451 147.078 65.3735 147.113 65.5042 147.113H84.2365C84.3685 147.114 84.4986 147.08 84.6134 147.015C84.7282 146.95 84.8235 146.855 84.8895 146.741L94.2557 130.526C94.321 130.413 94.3553 130.285 94.3553 130.155C94.3553 130.024 94.321 129.896 94.2557 129.783L84.8647 113.552C84.7966 113.441 84.7004 113.35 84.5858 113.287C84.4711 113.225 84.3421 113.194 84.2117 113.197Z" fill="#18181E"/>
<path d="M56.5845 131.65C56.5192 131.535 56.4849 131.406 56.4849 131.274C56.4849 131.142 56.5192 131.013 56.5845 130.898L65.9589 114.692C66.0238 114.578 66.1175 114.483 66.2306 114.416C66.3437 114.349 66.4723 114.314 66.6037 114.312H85.2946L84.8647 113.569C84.7987 113.454 84.7034 113.36 84.5886 113.294C84.4738 113.229 84.3437 113.195 84.2117 113.197H65.4794C65.3487 113.197 65.2203 113.231 65.1071 113.296C64.9939 113.362 64.8999 113.455 64.8346 113.569L55.4933 129.783C55.428 129.896 55.3936 130.024 55.3936 130.155C55.3936 130.285 55.428 130.413 55.4933 130.526L64.8594 146.741C64.9247 146.854 65.0187 146.948 65.1319 147.013C65.2451 147.078 65.3735 147.112 65.5042 147.112L56.5845 131.65Z" fill="#18181E"/>
<path d="M116.088 131.584H97.3477C97.217 131.584 97.0886 131.618 96.9754 131.683C96.8622 131.748 96.7683 131.842 96.7029 131.955L87.3368 148.162C87.2716 148.276 87.2373 148.406 87.2373 148.537C87.2373 148.669 87.2716 148.799 87.3368 148.913L96.7029 165.119C96.7679 165.233 96.8615 165.328 96.9747 165.395C97.0878 165.462 97.2164 165.498 97.3477 165.499H116.088C116.219 165.498 116.348 165.462 116.461 165.395C116.574 165.328 116.668 165.233 116.733 165.119L126.099 148.913C126.164 148.799 126.199 148.669 126.199 148.537C126.199 148.406 126.164 148.276 126.099 148.162L116.733 131.955C116.668 131.842 116.574 131.748 116.46 131.683C116.347 131.618 116.219 131.584 116.088 131.584Z" fill="#18181E"/>
<path d="M88.4611 150.028C88.3923 149.916 88.356 149.788 88.356 149.657C88.356 149.525 88.3923 149.397 88.4611 149.285L97.8272 133.071C97.8925 132.957 97.9865 132.864 98.0997 132.798C98.2129 132.733 98.3413 132.699 98.472 132.699H117.163L116.733 131.955C116.668 131.842 116.574 131.748 116.46 131.683C116.347 131.618 116.219 131.584 116.088 131.584H97.3477C97.217 131.584 97.0886 131.618 96.9754 131.683C96.8622 131.748 96.7683 131.842 96.7029 131.955L87.3368 148.162C87.2716 148.276 87.2373 148.406 87.2373 148.537C87.2373 148.669 87.2716 148.799 87.3368 148.913L96.7029 165.119C96.7679 165.233 96.8615 165.328 96.9747 165.395C97.0878 165.462 97.2164 165.498 97.3477 165.499H97.3973L88.4611 150.028Z" fill="#18181E"/>
<path d="M147.956 149.962H129.224C129.091 149.962 128.961 149.998 128.846 150.064C128.731 150.131 128.636 150.227 128.571 150.342L119.205 166.548C119.139 166.663 119.105 166.792 119.105 166.924C119.105 167.056 119.139 167.186 119.205 167.3L128.571 183.506C128.637 183.62 128.732 183.715 128.847 183.78C128.962 183.846 129.092 183.879 129.224 183.878H147.956C148.087 183.878 148.215 183.844 148.328 183.778C148.441 183.713 148.535 183.619 148.601 183.506L158 167.3C158.065 167.186 158.099 167.056 158.099 166.924C158.099 166.792 158.065 166.663 158 166.548L148.634 150.342C148.566 150.223 148.467 150.125 148.348 150.058C148.228 149.991 148.093 149.958 147.956 149.962Z" fill="#18181E"/>
<path d="M120.329 168.415C120.263 168.302 120.229 168.174 120.229 168.043C120.229 167.913 120.263 167.785 120.329 167.672L129.695 151.457C129.76 151.344 129.854 151.25 129.967 151.185C130.081 151.12 130.209 151.085 130.34 151.086H149.031L148.601 150.342C148.536 150.228 148.442 150.133 148.329 150.066C148.216 150 148.087 149.964 147.956 149.962H129.224C129.091 149.962 128.961 149.998 128.846 150.064C128.731 150.131 128.636 150.227 128.571 150.342L119.205 166.548C119.139 166.663 119.105 166.792 119.105 166.924C119.105 167.056 119.139 167.185 119.205 167.3L128.571 183.506C128.637 183.62 128.732 183.715 128.847 183.78C128.962 183.846 129.092 183.879 129.224 183.878H129.265L120.329 168.415Z" fill="#18181E"/>
<path d="M179.824 168.349H161.092C160.96 168.348 160.83 168.382 160.715 168.447C160.601 168.513 160.505 168.607 160.439 168.721L151.073 184.935C151.007 185.048 150.973 185.176 150.973 185.307C150.973 185.437 151.007 185.565 151.073 185.678L160.48 201.934C160.547 202.048 160.642 202.142 160.757 202.207C160.871 202.272 161.001 202.306 161.133 202.306H179.824C179.955 202.306 180.083 202.272 180.196 202.206C180.309 202.141 180.403 202.047 180.469 201.934L189.835 185.72C189.904 185.608 189.94 185.479 189.94 185.348C189.94 185.217 189.904 185.088 189.835 184.976L180.469 168.762C180.409 168.641 180.317 168.539 180.204 168.466C180.09 168.393 179.959 168.353 179.824 168.349Z" fill="#18181E"/>
<path d="M152.213 186.802C152.148 186.689 152.114 186.561 152.114 186.43C152.114 186.3 152.148 186.171 152.213 186.058L161.579 169.844C161.645 169.731 161.739 169.637 161.852 169.572C161.965 169.506 162.094 169.472 162.224 169.472H180.899L180.469 168.721C180.403 168.608 180.309 168.514 180.196 168.448C180.083 168.383 179.955 168.349 179.824 168.349H161.092C160.96 168.348 160.83 168.382 160.715 168.447C160.601 168.513 160.505 168.607 160.439 168.721L151.073 184.935C151.007 185.048 150.973 185.176 150.973 185.307C150.973 185.437 151.007 185.565 151.073 185.678L160.48 201.934C160.547 202.048 160.642 202.142 160.757 202.207C160.871 202.272 161.001 202.306 161.133 202.306L152.213 186.802Z" fill="#18181E"/>
<path d="M211.733 186.736H192.96C192.829 186.736 192.701 186.77 192.587 186.835C192.474 186.901 192.38 186.994 192.315 187.108L182.949 203.322C182.88 203.434 182.844 203.562 182.844 203.694C182.844 203.825 182.88 203.953 182.949 204.065L192.315 220.28C192.38 220.393 192.474 220.487 192.587 220.552C192.701 220.617 192.829 220.651 192.96 220.651H211.733C211.864 220.651 211.992 220.617 212.106 220.552C212.219 220.487 212.313 220.393 212.378 220.28L221.753 204.065C221.818 203.952 221.852 203.824 221.852 203.694C221.852 203.563 221.818 203.435 221.753 203.322L212.378 187.108C212.313 186.994 212.219 186.901 212.106 186.835C211.992 186.77 211.864 186.736 211.733 186.736Z" fill="#18181E"/>
<path d="M184.065 205.189C184 205.074 183.965 204.945 183.965 204.813C183.965 204.681 184 204.552 184.065 204.437L193.431 188.231C193.497 188.116 193.592 188.02 193.706 187.953C193.821 187.886 193.951 187.851 194.084 187.851H212.775L212.337 187.108C212.272 186.994 212.178 186.901 212.064 186.835C211.951 186.77 211.823 186.736 211.692 186.736H192.96C192.829 186.736 192.701 186.77 192.587 186.835C192.474 186.901 192.38 186.994 192.315 187.108L182.949 203.322C182.88 203.434 182.844 203.562 182.844 203.694C182.844 203.825 182.88 203.953 182.949 204.065L192.315 220.28C192.38 220.393 192.474 220.487 192.587 220.552C192.701 220.617 192.829 220.651 192.96 220.651L184.065 205.189Z" fill="#18181E"/>
<path d="M20.4757 113.197H1.75992C1.62924 113.197 1.50084 113.231 1.38765 113.296C1.27446 113.362 1.18046 113.455 1.11512 113.569L-8.27581 129.783C-8.34111 129.896 -8.37549 130.024 -8.37549 130.155C-8.37549 130.285 -8.34111 130.413 -8.27581 130.526L1.09859 146.741C1.16393 146.854 1.25793 146.948 1.37112 147.013C1.48431 147.078 1.61271 147.112 1.74339 147.112H20.4757C20.6064 147.112 20.7348 147.078 20.8479 147.013C20.9611 146.948 21.0551 146.854 21.1205 146.741L30.4949 130.526C30.5602 130.413 30.5946 130.285 30.5946 130.155C30.5946 130.024 30.5602 129.896 30.4949 129.783L21.1205 113.552C21.0531 113.442 20.9582 113.351 20.8451 113.289C20.7321 113.227 20.6048 113.195 20.4757 113.197Z" fill="#18181E"/>
<path d="M-7.15154 131.65C-7.21677 131.535 -7.25107 131.406 -7.25107 131.274C-7.25107 131.142 -7.21677 131.013 -7.15154 130.898L2.21459 114.692C2.27952 114.578 2.37321 114.483 2.48633 114.416C2.59945 114.35 2.72807 114.314 2.85939 114.312H21.5999L21.1618 113.569C21.0965 113.456 21.0025 113.362 20.8893 113.296C20.7761 113.231 20.6477 113.197 20.517 113.197H1.75992C1.62924 113.197 1.50084 113.231 1.38765 113.296C1.27446 113.362 1.18046 113.456 1.11512 113.569L-8.27581 129.783C-8.34111 129.896 -8.37549 130.024 -8.37549 130.155C-8.37549 130.285 -8.34111 130.413 -8.27581 130.526L1.09859 146.741C1.16393 146.854 1.25793 146.948 1.37112 147.013C1.48431 147.078 1.61271 147.113 1.74339 147.113H1.75992L-7.15154 131.65Z" fill="#18181E"/>
<path d="M52.3438 131.584H33.6115C33.4808 131.583 33.3524 131.618 33.2392 131.683C33.126 131.748 33.032 131.842 32.9667 131.955L23.6006 148.161C23.5353 148.276 23.501 148.405 23.501 148.537C23.501 148.669 23.5353 148.798 23.6006 148.913L32.9667 165.119C33.0316 165.233 33.1253 165.328 33.2384 165.395C33.3516 165.462 33.4802 165.498 33.6115 165.499H52.3438C52.4763 165.498 52.6063 165.463 52.7209 165.396C52.8354 165.329 52.9306 165.234 52.9968 165.119L62.363 148.913C62.4282 148.798 62.4625 148.669 62.4625 148.537C62.4625 148.405 62.4282 148.276 62.363 148.161L53.0134 131.955C52.9453 131.839 52.8472 131.743 52.7295 131.678C52.6117 131.612 52.4785 131.58 52.3438 131.584Z" fill="#18181E"/>
<path d="M24.7166 150.028C24.6513 149.915 24.6169 149.787 24.6169 149.657C24.6169 149.526 24.6513 149.398 24.7166 149.285L34.0827 133.071C34.1494 132.957 34.2448 132.863 34.3594 132.797C34.4741 132.732 34.6038 132.698 34.7358 132.699H53.4267L52.9968 131.955C52.9301 131.842 52.8347 131.748 52.7201 131.682C52.6055 131.617 52.4757 131.583 52.3438 131.584H33.6115C33.4808 131.584 33.3524 131.618 33.2392 131.683C33.126 131.748 33.032 131.842 32.9667 131.955L23.6006 148.162C23.5353 148.276 23.501 148.406 23.501 148.537C23.501 148.669 23.5353 148.799 23.6006 148.913L32.9667 165.119C33.0316 165.233 33.1253 165.329 33.2384 165.395C33.3516 165.462 33.4802 165.498 33.6115 165.499L24.7166 150.028Z" fill="#18181E"/>
<path d="M84.2115 149.962H65.4793C65.3479 149.964 65.2193 150 65.1062 150.066C64.9931 150.133 64.8994 150.228 64.8345 150.342L55.4931 166.548C55.4279 166.663 55.3936 166.792 55.3936 166.924C55.3936 167.056 55.4279 167.186 55.4931 167.3L64.8593 183.506C64.9246 183.619 65.0186 183.713 65.1318 183.778C65.245 183.844 65.3734 183.878 65.5041 183.878H84.2363C84.3684 183.879 84.4985 183.846 84.6133 183.78C84.7281 183.715 84.8234 183.62 84.8894 183.506L94.2555 167.3C94.3207 167.186 94.355 167.056 94.355 166.924C94.355 166.792 94.3207 166.663 94.2555 166.548L84.8894 150.342C84.8217 150.223 84.7228 150.125 84.6034 150.058C84.4839 149.991 84.3484 149.958 84.2115 149.962Z" fill="#18181E"/>
<path d="M56.5843 168.415C56.519 168.302 56.4846 168.174 56.4846 168.043C56.4846 167.913 56.519 167.785 56.5843 167.672L65.9587 151.457C66.0241 151.344 66.1181 151.25 66.2312 151.185C66.3444 151.12 66.4728 151.085 66.6035 151.086H85.2945L84.8646 150.342C84.799 150.227 84.704 150.131 84.5893 150.064C84.4746 149.998 84.3443 149.962 84.2115 149.962H65.4793C65.3479 149.964 65.2193 150 65.1062 150.066C64.9931 150.133 64.8994 150.228 64.8345 150.342L55.4931 166.548C55.4279 166.663 55.3936 166.792 55.3936 166.924C55.3936 167.056 55.4279 167.185 55.4931 167.3L64.8593 183.506C64.9246 183.619 65.0186 183.713 65.1318 183.778C65.245 183.843 65.3734 183.878 65.5041 183.878L56.5843 168.415Z" fill="#18181E"/>
<path d="M116.088 168.349H97.3474C97.2167 168.349 97.0883 168.383 96.9751 168.448C96.8619 168.514 96.7679 168.607 96.7026 168.721L87.3365 184.935C87.2712 185.048 87.2368 185.176 87.2368 185.307C87.2368 185.437 87.2712 185.565 87.3365 185.678L96.7026 201.934C96.7679 202.047 96.8619 202.141 96.9751 202.206C97.0883 202.272 97.2167 202.306 97.3474 202.306H116.088C116.219 202.306 116.347 202.272 116.46 202.206C116.573 202.141 116.667 202.047 116.733 201.934L126.099 185.72C126.164 185.607 126.199 185.478 126.199 185.348C126.199 185.217 126.164 185.089 126.099 184.976L116.733 168.762C116.673 168.641 116.581 168.539 116.468 168.466C116.354 168.393 116.223 168.353 116.088 168.349Z" fill="#18181E"/>
<path d="M88.4607 186.802C88.392 186.69 88.3556 186.561 88.3556 186.43C88.3556 186.299 88.392 186.17 88.4607 186.058L97.8269 169.844C97.8922 169.731 97.9862 169.637 98.0994 169.572C98.2126 169.506 98.341 169.472 98.4717 169.472H117.163L116.733 168.721C116.667 168.607 116.573 168.514 116.46 168.448C116.347 168.383 116.219 168.349 116.088 168.349H97.3474C97.2167 168.349 97.0883 168.383 96.9751 168.448C96.8619 168.514 96.7679 168.607 96.7026 168.721L87.3365 184.935C87.2712 185.048 87.2368 185.176 87.2368 185.307C87.2368 185.437 87.2712 185.565 87.3365 185.678L96.7026 201.934C96.7679 202.047 96.8619 202.141 96.9751 202.206C97.0883 202.272 97.2167 202.306 97.3474 202.306H97.397L88.4607 186.802Z" fill="#18181E"/>
<path d="M147.956 186.736H129.224C129.092 186.734 128.962 186.768 128.847 186.833C128.732 186.898 128.637 186.993 128.571 187.107L119.205 203.322C119.139 203.435 119.105 203.563 119.105 203.693C119.105 203.824 119.139 203.952 119.205 204.065L128.571 220.279C128.637 220.394 128.732 220.488 128.847 220.554C128.962 220.619 129.092 220.653 129.224 220.651H147.956C148.087 220.651 148.215 220.617 148.328 220.552C148.441 220.486 148.535 220.393 148.601 220.279L158 204.065C158.065 203.952 158.1 203.824 158.1 203.693C158.1 203.563 158.065 203.435 158 203.322L148.634 187.107C148.566 186.989 148.467 186.892 148.347 186.827C148.228 186.761 148.092 186.73 147.956 186.736Z" fill="#18181E"/>
<path d="M120.329 205.188C120.264 205.074 120.229 204.944 120.229 204.813C120.229 204.681 120.264 204.551 120.329 204.437L129.695 188.231C129.76 188.117 129.854 188.022 129.967 187.955C130.08 187.888 130.208 187.852 130.34 187.851H149.031L148.601 187.107C148.535 186.994 148.441 186.9 148.328 186.835C148.215 186.77 148.087 186.736 147.956 186.736H129.224C129.092 186.734 128.962 186.768 128.847 186.833C128.732 186.898 128.637 186.993 128.571 187.107L119.205 203.322C119.139 203.435 119.105 203.563 119.105 203.693C119.105 203.824 119.139 203.952 119.205 204.065L128.571 220.279C128.637 220.394 128.732 220.488 128.847 220.554C128.962 220.619 129.092 220.653 129.224 220.651H129.265L120.329 205.188Z" fill="#18181E"/>
<path d="M20.4755 149.962H1.75976C1.62844 149.964 1.49983 150 1.38671 150.066C1.27358 150.133 1.1799 150.228 1.11496 150.342L-8.27597 166.548C-8.3412 166.663 -8.37549 166.792 -8.37549 166.924C-8.37549 167.056 -8.3412 167.185 -8.27597 167.3L1.09843 183.506C1.16377 183.619 1.25777 183.713 1.37096 183.778C1.48415 183.843 1.61255 183.878 1.74323 183.878H20.4755C20.6062 183.878 20.7346 183.843 20.8478 183.778C20.961 183.713 21.055 183.619 21.1203 183.506L30.4947 167.3C30.56 167.185 30.5943 167.056 30.5943 166.924C30.5943 166.792 30.56 166.663 30.4947 166.548L21.1203 150.342C21.0554 150.228 20.9617 150.133 20.8486 150.066C20.7355 150 20.6069 149.964 20.4755 149.962Z" fill="#18181E"/>
<path d="M-7.1517 168.415C-7.217 168.302 -7.25138 168.174 -7.25138 168.043C-7.25138 167.913 -7.217 167.785 -7.1517 167.672L2.21443 151.457C2.27977 151.344 2.37377 151.25 2.48696 151.185C2.60015 151.12 2.72855 151.085 2.85923 151.086H21.5998L21.1617 150.342C21.0967 150.228 21.0031 150.133 20.8899 150.066C20.7768 150 20.6482 149.964 20.5169 149.962H1.75976C1.62844 149.964 1.49983 150 1.38671 150.066C1.27358 150.133 1.1799 150.228 1.11496 150.342L-8.27597 166.548C-8.3412 166.663 -8.37549 166.792 -8.37549 166.924C-8.37549 167.056 -8.3412 167.185 -8.27597 167.3L1.09843 183.506C1.16377 183.619 1.25777 183.713 1.37096 183.778C1.48415 183.843 1.61255 183.878 1.74323 183.878H1.75976L-7.1517 168.415Z" fill="#18181E"/>
<path d="M52.3438 168.349H33.6116C33.4809 168.349 33.3525 168.383 33.2393 168.448C33.1261 168.514 33.0321 168.608 32.9668 168.721L23.6006 184.935C23.5353 185.048 23.501 185.176 23.501 185.307C23.501 185.437 23.5353 185.565 23.6006 185.678L32.9668 201.934C33.0321 202.047 33.1261 202.141 33.2393 202.206C33.3525 202.272 33.4809 202.306 33.6116 202.306H52.3438C52.4785 202.309 52.6117 202.277 52.7295 202.211C52.8473 202.146 52.9454 202.05 53.0134 201.934L62.3796 185.72C62.4449 185.607 62.4792 185.478 62.4792 185.348C62.4792 185.217 62.4449 185.089 62.3796 184.976L53.0134 168.721C52.9454 168.604 52.8473 168.509 52.7295 168.443C52.6117 168.378 52.4785 168.345 52.3438 168.349Z" fill="#18181E"/>
<path d="M24.7166 186.802C24.6513 186.689 24.617 186.561 24.617 186.43C24.617 186.3 24.6513 186.171 24.7166 186.058L34.0828 169.844C34.1494 169.73 34.2449 169.636 34.3595 169.571C34.4741 169.506 34.6039 169.472 34.7358 169.472H53.4268L52.9969 168.721C52.9302 168.607 52.8348 168.513 52.7202 168.447C52.6055 168.382 52.4758 168.348 52.3438 168.349H33.6116C33.4809 168.349 33.3525 168.383 33.2393 168.448C33.1261 168.514 33.0321 168.608 32.9668 168.721L23.6006 184.935C23.5353 185.048 23.501 185.176 23.501 185.307C23.501 185.437 23.5353 185.565 23.6006 185.678L32.9668 201.934C33.0321 202.047 33.1261 202.141 33.2393 202.206C33.3525 202.272 33.4809 202.306 33.6116 202.306L24.7166 186.802Z" fill="#18181E"/>
<path d="M84.2117 186.736H65.4794C65.3487 186.736 65.2203 186.77 65.1071 186.835C64.9939 186.9 64.8999 186.994 64.8346 187.107L55.4933 203.322C55.428 203.435 55.3936 203.563 55.3936 203.693C55.3936 203.824 55.428 203.952 55.4933 204.065L64.8594 220.279C64.9247 220.393 65.0187 220.486 65.1319 220.552C65.2451 220.617 65.3735 220.651 65.5042 220.651H84.2365C84.3685 220.653 84.4986 220.619 84.6134 220.554C84.7282 220.488 84.8235 220.394 84.8895 220.279L94.2557 204.065C94.321 203.952 94.3553 203.824 94.3553 203.693C94.3553 203.563 94.321 203.435 94.2557 203.322L84.8895 187.107C84.8215 186.989 84.7222 186.892 84.6027 186.827C84.4832 186.761 84.3479 186.73 84.2117 186.736Z" fill="#18181E"/>
<path d="M56.5845 205.188C56.5192 205.074 56.4849 204.944 56.4849 204.813C56.4849 204.681 56.5192 204.551 56.5845 204.437L65.9589 188.231C66.0238 188.117 66.1175 188.022 66.2306 187.955C66.3437 187.888 66.4723 187.852 66.6037 187.851H85.2946L84.8647 187.107C84.7987 186.993 84.7034 186.898 84.5886 186.833C84.4738 186.768 84.3437 186.734 84.2117 186.736H65.4794C65.3487 186.736 65.2203 186.77 65.1071 186.835C64.9939 186.9 64.8999 186.994 64.8346 187.107L55.4933 203.322C55.428 203.435 55.3936 203.563 55.3936 203.693C55.3936 203.824 55.428 203.952 55.4933 204.065L64.8594 220.279C64.9247 220.393 65.0187 220.486 65.1319 220.552C65.2451 220.617 65.3735 220.651 65.5042 220.651L56.5845 205.188Z" fill="#18181E"/>
<path d="M20.4757 186.736H1.75992C1.62924 186.736 1.50084 186.77 1.38765 186.835C1.27446 186.901 1.18046 186.994 1.11512 187.108L-8.27581 203.322C-8.34111 203.435 -8.37549 203.563 -8.37549 203.694C-8.37549 203.824 -8.34111 203.952 -8.27581 204.065L1.09859 220.28C1.16393 220.393 1.25793 220.487 1.37112 220.552C1.48431 220.617 1.61271 220.651 1.74339 220.651H20.4757C20.6064 220.651 20.7348 220.617 20.8479 220.552C20.9611 220.487 21.0551 220.393 21.1205 220.28L30.4949 204.065C30.5602 203.952 30.5946 203.824 30.5946 203.694C30.5946 203.563 30.5602 203.435 30.4949 203.322L21.1205 187.108C21.0551 186.994 20.9611 186.901 20.8479 186.835C20.7348 186.77 20.6064 186.736 20.4757 186.736Z" fill="#18181E"/>
<path d="M-7.15154 205.189C-7.21677 205.074 -7.25107 204.945 -7.25107 204.813C-7.25107 204.681 -7.21677 204.552 -7.15154 204.437L2.21459 188.231C2.27952 188.117 2.37321 188.022 2.48633 187.955C2.59945 187.888 2.72807 187.853 2.85939 187.851H21.5999L21.1618 187.108C21.0965 186.994 21.0025 186.901 20.8893 186.835C20.7761 186.77 20.6477 186.736 20.517 186.736H1.75992C1.62924 186.736 1.50084 186.77 1.38765 186.835C1.27446 186.901 1.18046 186.994 1.11512 187.108L-8.27581 203.322C-8.34111 203.435 -8.37549 203.563 -8.37549 203.694C-8.37549 203.824 -8.34111 203.952 -8.27581 204.065L1.09859 220.28C1.16393 220.393 1.25793 220.487 1.37112 220.552C1.48431 220.617 1.61271 220.651 1.74339 220.651H1.75992L-7.15154 205.189Z" fill="#18181E"/>
</g>
</g>
</g>
</g>
</g>
<defs>
<filter id="filter0_f_1216_858" x="-239.747" y="-237.893" width="629.248" height="764.626" filterUnits="userSpaceOnUse" color-interpolation-filters="sRGB">
<feFlood flood-opacity="0" result="BackgroundImageFix"/>
<feBlend mode="normal" in="SourceGraphic" in2="BackgroundImageFix" result="shape"/>
<feGaussianBlur stdDeviation="60" result="effect1_foregroundBlur_1216_858"/>
</filter>
<radialGradient id="paint0_radial_1216_858" cx="0" cy="0" r="1" gradientUnits="userSpaceOnUse" gradientTransform="translate(614 668.5) rotate(-125.166) scale(931.512 894.995)">
<stop stop-color="#D9D9D9"/>
<stop offset="0.850625" stop-color="#D9D9D9" stop-opacity="0"/>
</radialGradient>
<clipPath id="clip0_1216_858">
<rect width="200" height="200" fill="white"/>
</clipPath>
</defs>
</svg>
