<svg width="70" height="70" viewBox="0 0 70 70" fill="none" xmlns="http://www.w3.org/2000/svg">
<g clip-path="url(#clip0_6_50)">
<path fill-rule="evenodd" clip-rule="evenodd" d="M11.7043 67.903C11.7212 67.8277 11.7349 67.7515 11.7549 67.6771C12.8041 63.7615 13.8641 59.8489 14.8853 55.9258C15.0277 55.382 15.2828 55.063 15.7625 54.7875C20.5043 52.0692 30.7905 46.1038 35.5291 43.3846C37.0778 42.4961 38.0768 40.6488 37.8213 38.7097C37.8137 38.6512 37.7975 38.5936 37.7788 38.5022C37.6109 38.5885 37.4554 38.6599 37.3083 38.7435C35.804 39.6091 34.3001 40.4731 32.8007 41.345C32.6331 41.4431 32.5687 41.4225 32.4734 41.2507C31.7828 40.0231 31.0799 38.8039 30.381 37.5824C30.3514 37.5313 30.3254 37.4794 30.2997 37.4326L29.5065 36.0592C28.7741 36.4831 27.3097 37.3314 27.3097 37.3314C26.2552 37.9426 25.2015 38.5573 24.1477 39.172L24.1449 39.1737C24.1091 39.1458 24.0825 39.1337 24.0711 39.114L24.0379 39.0577C23.3604 37.9094 22.6841 36.7631 22.2476 35.4912C21.4287 33.1036 21.2384 30.6666 21.735 28.1926C22.5791 23.981 24.8747 20.7768 28.5774 18.6215C35.5383 14.5674 48.0829 7.33654 55.0547 3.30368C55.6036 2.98687 56.2634 2.63492 56.8138 2.32515L55.2118 8.30396C54.6311 10.4712 54.0484 12.6395 53.4724 14.808C53.4271 14.9771 53.3431 15.0793 53.1916 15.1667C50.9173 16.4727 43.0804 20.9944 40.8106 22.3084C38.3032 23.7581 35.8014 25.2177 33.2921 26.662C32.3049 27.2304 31.5565 28.0059 31.133 29.0713C30.8044 29.8944 30.7183 30.7493 30.8559 31.6574C30.9706 31.6017 31.0789 31.5575 31.1792 31.4996C32.7159 30.6128 34.2533 29.7228 35.7903 28.8344C36.0146 28.705 36.0146 28.705 36.1423 28.9239L36.1457 28.9297C36.8584 30.1591 37.5715 31.387 38.2847 32.615L38.2861 32.6174L39.1501 34.0861L39.4872 33.891C41.0976 32.9593 42.708 32.0277 44.3176 31.0944C44.4912 30.9929 44.5549 31.0283 44.6433 31.1949C45.0487 31.9537 45.508 32.6853 45.8757 33.4606C47.0036 35.8312 47.398 38.3378 47.0859 40.9428C46.7589 43.6718 45.7393 46.1238 43.9917 48.251C42.9407 49.529 41.695 50.5902 40.2599 51.4211C37.4014 53.0761 34.5464 54.737 31.6879 56.392C28.0337 58.5088 18.8108 63.833 15.1562 65.9514C14.0201 66.6097 11.7043 67.903 11.7043 67.903ZM33.6108 36.9996C33.4333 36.6877 33.2408 36.3817 33.0716 36.0637L32.1755 34.5145C33.0079 34.0322 33.8401 33.5495 34.6716 33.0656C34.8506 32.9622 34.9292 32.9916 35.0233 33.1681C35.221 33.5353 35.4414 33.892 35.6411 34.2332L36.4545 35.6461C35.6224 36.128 34.7903 36.6101 33.9584 37.0927C33.7818 37.1934 33.699 37.1546 33.6108 36.9996ZM16.8759 61.3708C16.8164 61.4065 16.7509 61.4338 16.6417 61.4877L16.6413 61.4892C17.0228 60.0651 17.3879 58.6964 17.7588 57.3309C17.775 57.2704 17.8326 57.2044 17.8897 57.1715C22.2121 54.665 32.1021 48.9493 36.4267 46.4468L36.4785 46.4168C37.1425 46.0324 37.8062 45.6482 38.3775 45.1255C39.8762 43.753 40.7079 42.0521 40.9108 40.0347C41.0137 39.0115 40.9128 38.0101 40.594 37.0335C40.5484 36.8932 40.5829 36.8326 40.7147 36.7565C41.5661 36.273 42.408 35.7753 43.2636 35.2763C43.5769 35.9073 43.7396 36.5661 43.8688 37.2325C44.2604 39.2596 44.0779 41.2442 43.3527 43.1748C42.4439 45.5916 40.8911 47.4701 38.6493 48.7665C33.6262 51.6721 23.0373 57.7926 18.0137 60.6997C17.632 60.92 17.2549 61.1482 16.8759 61.3708ZM27.9552 33.3643C27.088 33.8635 26.2246 34.367 25.3049 34.9004L25.3029 34.9015C25.1552 34.4164 24.9985 33.977 24.886 33.5278C24.377 31.5043 24.4303 29.4867 25.0741 27.506C25.9485 24.814 27.6191 22.7443 30.0789 21.3233C33.5858 19.2967 37.087 17.2603 40.5917 15.2297C42.2948 14.2429 49.5651 10.0482 51.2705 9.06524C51.4456 8.96418 51.6268 8.8714 51.851 8.74857C51.8251 8.87631 51.8133 8.9513 51.7938 9.02422C51.4549 10.2952 51.1176 11.5665 50.7694 12.835C50.742 12.9308 50.6608 13.0354 50.5742 13.0853C46.0885 15.686 36.0288 21.4827 31.5499 24.0951C30.0659 24.9595 28.9464 26.1892 28.275 27.7884C27.5477 29.5223 27.4899 31.2959 28.0159 33.0945C28.0483 33.203 28.0851 33.2893 27.9552 33.3643Z" fill="black"/>
</g>
<defs>
<clipPath id="clip0_6_50">
<rect width="70" height="70" fill="white"/>
</clipPath>
</defs>
</svg>
