<svg width="406" height="368" viewBox="0 0 406 368" fill="none" xmlns="http://www.w3.org/2000/svg">
<path fill-rule="evenodd" clip-rule="evenodd" d="M143.742 349.139C143.727 348.8 143.699 348.461 143.699 348.121C143.699 330.282 143.749 312.443 143.621 294.603C143.607 292.13 144.328 290.483 146.054 288.765C163.114 271.809 200.044 234.735 217.09 217.78C222.661 212.238 224.803 203.248 221.509 195.297C221.41 195.057 221.275 194.83 221.092 194.463C220.477 195.021 219.897 195.502 219.367 196.025C213.958 201.418 208.549 206.803 203.169 212.217C202.568 212.825 202.271 212.811 201.67 212.189C197.336 207.757 192.96 203.375 188.597 198.979C188.414 198.795 188.244 198.605 188.081 198.435L183.145 193.501C180.515 196.136 175.256 201.41 175.256 201.41C171.47 205.21 167.691 209.023 163.912 212.836L163.902 212.846C163.718 212.769 163.59 212.747 163.52 212.677L163.314 212.475C159.127 208.366 154.946 204.263 151.642 199.354C145.441 190.137 141.857 179.995 141.15 168.912C139.941 150.048 146.049 133.813 159.334 120.434C184.306 95.2724 229.395 50.247 254.437 25.1632C256.41 23.1912 258.814 20.9437 260.8 19V46.2396C260.8 56.1134 260.793 65.9942 260.815 75.8681C260.815 76.6385 260.574 77.1685 260.03 77.7128C251.85 85.8549 223.686 114.002 215.535 122.173C206.527 131.191 197.555 140.245 188.534 149.243C184.985 152.784 182.687 156.932 182.1 161.944C181.64 165.817 182.248 169.549 183.867 173.252C184.292 172.885 184.702 172.574 185.062 172.213C190.584 166.693 196.106 161.159 201.628 155.632C202.434 154.826 202.434 154.826 203.226 155.611L203.247 155.632C207.677 160.046 212.107 164.454 216.537 168.861L216.546 168.87L221.891 174.129L223.102 172.916C228.886 167.121 234.67 161.327 240.45 155.526C241.072 154.897 241.383 154.975 241.948 155.582C244.536 158.346 247.322 160.933 249.768 163.809C257.262 172.602 261.794 182.808 263.435 194.237C265.153 206.21 263.611 217.794 258.606 228.827C255.594 235.456 251.507 241.386 246.353 246.553C236.087 256.844 225.843 267.156 215.577 277.447C202.455 290.607 169.314 323.744 156.192 336.912C152.113 341.004 143.742 349.139 143.742 349.139ZM201.663 192.823C200.553 191.699 199.386 190.618 198.305 189.459L192.731 183.894C195.72 180.896 198.708 177.896 201.691 174.892C202.335 174.249 202.702 174.284 203.303 174.927C204.562 176.263 205.905 177.528 207.142 178.751L212.209 183.831C209.221 186.827 206.233 189.824 203.247 192.823C202.61 193.452 202.214 193.381 201.663 192.823ZM158.285 315.482C158.073 315.701 157.825 315.892 157.422 316.245V316.252C157.422 309.764 157.415 303.53 157.436 297.303C157.436 297.028 157.606 296.681 157.811 296.476C173.33 280.899 208.86 245.337 224.393 229.774L224.579 229.587C226.964 227.197 229.348 224.808 231.181 221.936C235.988 214.394 237.586 206.217 236.151 197.41C235.423 192.943 233.853 188.801 231.386 185.013C231.032 184.469 231.11 184.172 231.584 183.698C234.652 180.673 237.664 177.599 240.732 174.503C242.783 176.828 244.225 179.444 245.533 182.129C249.506 190.3 250.991 198.944 250.107 207.977C248.997 219.285 244.536 229.039 236.483 237.103C218.44 255.176 180.4 293.253 162.357 311.333C160.986 312.704 159.642 314.104 158.285 315.482ZM173.482 183.812C170.364 186.921 167.267 190.045 163.965 193.36L163.958 193.367C162.777 191.473 161.611 189.784 160.621 188.003C156.153 179.981 154.081 171.344 154.562 162.191C155.212 149.751 159.956 139.051 168.794 130.209C181.393 117.6 193.957 104.955 206.541 92.3321C212.657 86.1972 238.784 60.0855 244.914 53.9647C245.543 53.3357 246.208 52.7349 247.021 51.9575C247.056 52.53 247.091 52.8621 247.091 53.1943C247.099 58.9829 247.113 64.7715 247.077 70.5601C247.07 70.9983 246.844 71.5354 246.533 71.8464C230.427 88.0106 194.268 124.109 178.204 140.316C172.881 145.68 169.522 152.183 168.49 159.745C167.373 167.944 169.148 175.549 173.432 182.596C173.694 183.02 173.948 183.345 173.482 183.812Z" fill="#1F2667" fill-opacity="0.9"/>
<path fill-rule="evenodd" clip-rule="evenodd" d="M143.742 349.139C143.727 348.8 143.699 348.461 143.699 348.121C143.699 330.282 143.749 312.443 143.621 294.603C143.607 292.13 144.328 290.483 146.054 288.765C163.114 271.809 200.044 234.735 217.09 217.78C222.661 212.238 224.803 203.248 221.509 195.297C221.41 195.057 221.275 194.83 221.092 194.463C220.477 195.021 219.897 195.502 219.367 196.025C213.958 201.418 208.549 206.803 203.169 212.217C202.568 212.825 202.271 212.811 201.67 212.189C197.336 207.757 192.96 203.375 188.597 198.979C188.414 198.795 188.244 198.605 188.081 198.435L183.145 193.501C180.515 196.136 175.256 201.41 175.256 201.41C171.47 205.21 167.691 209.023 163.912 212.836L163.902 212.846C163.718 212.769 163.59 212.747 163.52 212.677L163.314 212.475C159.127 208.366 154.946 204.263 151.642 199.354C145.441 190.137 141.857 179.995 141.15 168.912C139.941 150.048 146.049 133.813 159.334 120.434C184.306 95.2724 229.395 50.247 254.437 25.1632C256.41 23.1912 258.814 20.9437 260.8 19V46.2396C260.8 56.1134 260.793 65.9942 260.815 75.8681C260.815 76.6385 260.574 77.1685 260.03 77.7128C251.85 85.8549 223.686 114.002 215.535 122.173C206.527 131.191 197.555 140.245 188.534 149.243C184.985 152.784 182.687 156.932 182.1 161.944C181.64 165.817 182.248 169.549 183.867 173.252C184.292 172.885 184.702 172.574 185.062 172.213C190.584 166.693 196.106 161.159 201.628 155.632C202.434 154.826 202.434 154.826 203.226 155.611L203.247 155.632C207.677 160.046 212.107 164.454 216.537 168.861L216.546 168.87L221.891 174.129L223.102 172.916C228.886 167.121 234.67 161.327 240.45 155.526C241.072 154.897 241.383 154.975 241.948 155.582C244.536 158.346 247.322 160.933 249.768 163.809C257.262 172.602 261.794 182.808 263.435 194.237C265.153 206.21 263.611 217.794 258.606 228.827C255.594 235.456 251.507 241.386 246.353 246.553C236.087 256.844 225.843 267.156 215.577 277.447C202.455 290.607 169.314 323.744 156.192 336.912C152.113 341.004 143.742 349.139 143.742 349.139ZM201.663 192.823C200.553 191.699 199.386 190.618 198.305 189.459L192.731 183.894C195.72 180.896 198.708 177.896 201.691 174.892C202.335 174.249 202.702 174.284 203.303 174.927C204.562 176.263 205.905 177.528 207.142 178.751L212.209 183.831C209.221 186.827 206.233 189.824 203.247 192.823C202.61 193.452 202.214 193.381 201.663 192.823ZM158.285 315.482C158.073 315.701 157.825 315.892 157.422 316.245V316.252C157.422 309.764 157.415 303.53 157.436 297.303C157.436 297.028 157.606 296.681 157.811 296.476C173.33 280.899 208.86 245.337 224.393 229.774L224.579 229.587C226.964 227.197 229.348 224.808 231.181 221.936C235.988 214.394 237.586 206.217 236.151 197.41C235.423 192.943 233.853 188.801 231.386 185.013C231.032 184.469 231.11 184.172 231.584 183.698C234.652 180.673 237.664 177.599 240.732 174.503C242.783 176.828 244.225 179.444 245.533 182.129C249.506 190.3 250.991 198.944 250.107 207.977C248.997 219.285 244.536 229.039 236.483 237.103C218.44 255.176 180.4 293.253 162.357 311.333C160.986 312.704 159.642 314.104 158.285 315.482ZM173.482 183.812C170.364 186.921 167.267 190.045 163.965 193.36L163.958 193.367C162.777 191.473 161.611 189.784 160.621 188.003C156.153 179.981 154.081 171.344 154.562 162.191C155.212 149.751 159.956 139.051 168.794 130.209C181.393 117.6 193.957 104.955 206.541 92.3321C212.657 86.1972 238.784 60.0855 244.914 53.9647C245.543 53.3357 246.208 52.7349 247.021 51.9575C247.056 52.53 247.091 52.8621 247.091 53.1943C247.099 58.9829 247.113 64.7715 247.077 70.5601C247.07 70.9983 246.844 71.5354 246.533 71.8464C230.427 88.0106 194.268 124.109 178.204 140.316C172.881 145.68 169.522 152.183 168.49 159.745C167.373 167.944 169.148 175.549 173.432 182.596C173.694 183.02 173.948 183.345 173.482 183.812Z" fill="url(#paint0_linear_3_37)"/>
<defs>
<linearGradient id="paint0_linear_3_37" x1="204.184" y1="38.6174" x2="201.426" y2="322.974" gradientUnits="userSpaceOnUse">
<stop stop-color="#1595B6"/>
<stop offset="1" stop-color="#1595B6" stop-opacity="0"/>
</linearGradient>
</defs>
</svg>
